<?xml version="1.0" encoding="utf-8"?>
<!-- Generator: Adobe Illustrator 22.0.0, SVG Export Plug-In . SVG Version: 6.00 Build 0)  -->
<svg version="1.1" id="agv_x5F_w_x5F_s" xmlns="http://www.w3.org/2000/svg" xmlns:xlink="http://www.w3.org/1999/xlink" x="0px"
	 y="0px" viewBox="0 0 479.0195007 437.7582092" style="enable-background:new 0 0 479.0195007 437.7582092;" xml:space="preserve">
<style type="text/css">
	.st0{fill:#D0D0D0;}
	.st1{fill:#FFFFFF;}
	.st2{fill:#333333;}
	.st3{fill:#ECECEC;}
	.st4{fill:#565656;}
	.st5{fill:#757575;}
	.st6{fill:#E2E2E2;}
	.st7{fill:#3A3A3A;}
	.st8{fill:#FFD941;}
	.st9{fill:#00C490;}
	.st10{fill:#E6001E;}
	.st11{fill:#64D0FF;}
</style>
<polygon class="st0" points="213.912735,305.9428711 182.6886749,288.112854 182.6886749,294.0517273 213.912735,312.0967102 "/>
<polygon class="st1" points="286.9511719,267.2257385 286.9511719,273.1646423 219.5363464,312.0967102 219.5363464,305.9428711 "/>
<polygon class="st2" points="213.912735,312.0967102 213.912735,316.6289673 182.6886749,298.5840454 182.6886749,294.0517273 "/>
<polygon class="st3" points="286.9511719,263.2305908 256.3839722,245.5825958 250.760376,245.5825958 182.6886749,284.8838196 
	182.6886749,288.112854 213.912735,305.9428711 219.5363464,305.9428711 286.9511719,267.2257385 "/>
<polygon class="st4" points="286.9511719,273.1646423 286.9511414,277.6968994 219.5363312,316.6289673 219.5363464,312.0967102 "/>
<path class="st2" d="M286.1494446,278.7225037c-0.0213318-0.0441284-0.039856-0.0899353-0.0619507-0.1335449
	c-0.0308838-0.0652466-0.0647278-0.127655-0.0991211-0.1894531c-0.0325623-0.0602722-0.0694275-0.1175842-0.1034546-0.1768188
	c-0.224823-0.346344-0.508728-0.6314087-0.8576965-0.8328552c-1.9619446-1.1327515-5.1428833,0.7037964-7.1048584,4.1019897
	c-0.3710327,0.6426697-0.6713867,1.295105-0.9020691,1.9384155l-0.0002441-0.0002747l-4.2430115,2.4496765
	c1.1939697,2.3326416,3.4924316,3.9548035,6.1712646,4.1294861c0.0986633,0.0064087,0.1971436,0.0131226,0.2968445,0.015564
	c0.0602722,0.0014648,0.1189575,0.0093994,0.1795959,0.0093994c1.1082458,0,2.157135-0.2550964,3.1045532-0.7017517
	c2.6060486-1.2286682,4.421875-3.9485168,4.421875-7.1143188
	C286.9511719,280.9598999,286.6579895,279.7753296,286.1494446,278.7225037z"/>
<ellipse transform="matrix(0.5 -0.8660254 0.8660254 0.5 -104.5033493 388.4972229)" class="st5" cx="284.1967773" cy="284.7511597" rx="2.0897346" ry="1.2065088"/>
<path class="st2" d="M233.941452,308.8713989c-0.0213165-0.0441284-0.039856-0.0899353-0.0619354-0.1335449
	c-0.030899-0.0652466-0.0647278-0.127655-0.0991364-0.1894531c-0.0325623-0.0603027-0.0694122-0.1175842-0.1034546-0.1768188
	c-0.2248077-0.346344-0.508728-0.6314087-0.8576813-0.8328552c-1.9619446-1.1327515-5.1428833,0.7037964-7.1048737,4.1019897
	c-0.3710327,0.6426697-0.6713715,1.295105-0.9020691,1.9384155l-0.0002289-0.0002747l-4.2430115,2.4496765
	c1.1939545,2.3326416,3.4924316,3.9548035,6.1712646,4.1294861c0.0986481,0.0064087,0.1971436,0.0131226,0.2968292,0.015564
	c0.0602722,0.0014648,0.1189728,0.0093994,0.1795959,0.0093994c1.1082611,0,2.1571503-0.2550964,3.1045685-0.7017517
	c2.6060638-1.2286682,4.4218597-3.9485168,4.4218597-7.1143188
	C234.7431793,311.1087952,234.4499969,309.9242249,233.941452,308.8713989z"/>
<ellipse transform="matrix(0.5 -0.8660254 0.8660254 0.5 -156.7170563 358.3582153)" class="st5" cx="231.9888" cy="314.9000549" rx="2.0897346" ry="1.2065088"/>
<rect x="213.912735" y="305.9428711" class="st6" width="5.6236076" height="6.1538329"/>
<rect x="213.912735" y="312.0967102" class="st7" width="5.6236076" height="4.5322504"/>
<polygon class="st7" points="227.0402985,297.4378967 197.4564209,280.5302429 187.0382385,286.545166 216.6221161,303.4528503 "/>
<polygon class="st7" points="255.5802917,248.5824127 251.5636902,248.5824127 202.2970886,277.0651855 233.1210632,294.6816406 
	283.0941162,265.9819641 283.0941162,264.4682922 "/>
<polygon class="st8" points="199.5629425,283.5075684 198.0868073,282.6639404 196.5978699,283.5235901 198.0739899,284.367218 "/>
<polygon class="st0" points="202.5151978,285.1948242 201.0390778,284.3511963 199.5501251,285.2108459 201.0262451,286.0544739 "/>
<polygon class="st0" points="205.467453,286.8821106 203.991333,286.0384521 202.5023804,286.8981018 203.9785004,287.7417297 "/>
<polygon class="st9" points="208.4197083,288.5693665 206.9435883,287.7257385 205.4546356,288.5853882 206.9307709,289.4290161 "/>
<polygon class="st0" points="211.3719635,290.2566223 209.8958435,289.4129944 208.4068909,290.272644 209.8830261,291.116272 "/>
<polygon class="st0" points="214.324234,291.9438782 212.8480988,291.1002502 211.3591461,291.9598999 212.8352814,292.8035278 "/>
<polygon class="st0" points="217.316452,293.5911865 215.840332,292.7475281 214.3513794,293.6071777 215.8275146,294.4508057 "/>
<polygon class="st0" points="220.2687225,295.2784424 218.7925873,294.4348145 217.3036346,295.2944641 218.7797699,296.138092 "/>
<polygon class="st0" points="223.2209778,296.9656982 221.7448425,296.1220703 220.2558899,296.98172 221.7320251,297.8253479 "/>
<polygon class="st10" points="196.5850372,285.2268677 195.1089172,284.3832397 193.6199646,285.2428894 195.0960999,286.0865173 
	"/>
<polygon class="st0" points="199.5373077,286.9141235 198.0611725,286.0704956 196.5722198,286.9301453 198.0483551,287.7737732 "/>
<polygon class="st8" points="202.4895325,288.6220093 201.0252686,287.7579346 199.5245056,288.5968018 200.9887695,289.4608765 "/>
<polygon class="st8" points="205.4418182,290.2886658 203.965683,289.4450073 202.4767303,290.304657 203.9528656,291.1482849 "/>
<polygon class="st0" points="208.3940735,291.9759216 206.9179382,291.1322937 205.4290009,291.9919434 206.9051208,292.8355713 "/>
<polygon class="st0" points="211.3463287,293.6631775 209.8701935,292.8195496 208.3812561,293.6791992 209.8573761,294.5228271 "/>
<polygon class="st0" points="214.338562,295.3104553 212.8624268,294.4668274 211.3734894,295.3264771 212.8496094,296.170105 "/>
<polygon class="st0" points="217.2908173,296.9977417 215.814682,296.1540833 214.3257446,297.0137329 215.8018646,297.8573608 "/>
<polygon class="st9" points="220.2430725,298.6849976 218.7669525,297.8413696 217.2779999,298.7010193 218.7541199,299.5446472 "/>
<polygon class="st11" points="280.3558655,274.5461731 226.1318665,305.6875305 226.1318665,307.2041321 280.3558655,275.8899231 
	"/>
</svg>
