<?xml version="1.0" encoding="utf-8"?>
<!-- Generator: Adobe Illustrator 22.0.0, SVG Export Plug-In . SVG Version: 6.00 Build 0)  -->
<svg version="1.1" id="agv_x5F_e_x5F_s" xmlns="http://www.w3.org/2000/svg" xmlns:xlink="http://www.w3.org/1999/xlink" x="0px"
	 y="0px" viewBox="0 0 479.0195007 437.7582092" style="enable-background:new 0 0 479.0195007 437.7582092;" xml:space="preserve">
<style type="text/css">
	.st0{fill:#FFFFFF;}
	.st1{fill:#D0D0D0;}
	.st2{fill:#565656;}
	.st3{fill:#ECECEC;}
	.st4{fill:#333333;}
	.st5{fill:#757575;}
	.st6{fill:#E2E2E2;}
	.st7{fill:#3A3A3A;}
	.st8{fill:#00C490;}
	.st9{fill:#FFD941;}
	.st10{fill:#E6001E;}
	.st11{fill:#64D0FF;}
</style>
<polygon class="st0" points="255.7270966,305.9428711 286.9511414,288.112854 286.9511414,294.0517273 255.7270966,312.0967102 "/>
<polygon class="st1" points="182.6886749,267.2257385 182.6886749,273.1646423 250.1035004,312.0967102 250.1035004,305.9428711 "/>
<polygon class="st2" points="255.7270966,312.0967102 255.7271118,316.6289673 286.9511719,298.5840454 286.9511414,294.0517273 "/>
<polygon class="st3" points="182.6886749,263.2305908 213.2558594,245.5825958 218.8794556,245.5825958 286.9511719,284.8838196 
	286.9511414,288.112854 255.7270966,305.9428711 250.1035004,305.9428711 182.6886749,267.2257385 "/>
<polygon class="st4" points="182.6886749,273.1646423 182.6886749,277.6968994 250.1035004,316.6289673 250.1035004,312.0967102 "/>
<path class="st4" d="M183.4904022,278.7225037c0.0213165-0.0441284,0.039856-0.0899353,0.0619354-0.1335449
	c0.030899-0.0652466,0.0647278-0.127655,0.0991364-0.1894531c0.0325623-0.0602722,0.0694122-0.1175842,0.1034546-0.1768188
	c0.2248077-0.346344,0.508728-0.6314087,0.8576813-0.8328552c1.9619446-1.1327515,5.1428833,0.7037964,7.1048737,4.1019897
	c0.3710327,0.6426697,0.6713715,1.295105,0.9020691,1.9384155l0.0002289-0.0002747l4.2430115,2.4496765
	c-1.1939545,2.3326416-3.4924316,3.9548035-6.1712646,4.1294861c-0.0986481,0.0064087-0.1971436,0.0131226-0.2968292,0.015564
	c-0.0602722,0.0014648-0.1189728,0.0093994-0.1795959,0.0093994c-1.1082611,0-2.1571655-0.2550964-3.1045685-0.7017517
	c-2.6060638-1.2286682-4.4218597-3.9485168-4.4218597-7.1143188
	C182.6886749,280.9598999,182.9818573,279.7753296,183.4904022,278.7225037z"/>
<ellipse transform="matrix(0.8660254 -0.5 0.5 0.8660254 -117.5309219 130.8709564)" class="st5" cx="185.4430542" cy="284.7511597" rx="1.2065088" ry="2.0897346"/>
<path class="st4" d="M235.6983795,308.8713989c0.0213318-0.0441284,0.039856-0.0899353,0.0619354-0.1335449
	c0.0309143-0.0652466,0.0647278-0.127655,0.0991364-0.1894531c0.0325775-0.0603027,0.0694122-0.1175842,0.1034546-0.1768188
	c0.224823-0.346344,0.508728-0.6314087,0.8576813-0.8328552c1.9619446-1.1327515,5.1428833,0.7037964,7.1048737,4.1019897
	c0.3710327,0.6426697,0.6713715,1.295105,0.9020691,1.9384155l0.0002289-0.0002747l4.2430115,2.4496765
	c-1.1939545,2.3326416-3.4924316,3.9548035-6.1712646,4.1294861c-0.0986328,0.0064087-0.1971436,0.0131226-0.296814,0.015564
	c-0.0602722,0.0014648-0.1189728,0.0093994-0.1796112,0.0093994c-1.1082611,0-2.1571503-0.2550964-3.1045685-0.7017517
	c-2.6060486-1.2286682-4.4218445-3.9485168-4.4218445-7.1143188
	C234.8966675,311.1087952,235.1898346,309.9242249,235.6983795,308.8713989z"/>
<ellipse transform="matrix(0.8660254 -0.5 0.5 0.8660254 -125.6108246 161.0141296)" class="st5" cx="237.6510315" cy="314.9000549" rx="1.2065088" ry="2.0897346"/>
<rect x="250.1035004" y="305.9428711" class="st6" width="5.6236076" height="6.1538329"/>
<rect x="250.1035004" y="312.0967102" class="st7" width="5.6236076" height="4.5322504"/>
<polygon class="st7" points="242.5995331,297.4378967 272.1834106,280.5302429 282.601593,286.545166 253.0177155,303.4528503 "/>
<polygon class="st7" points="214.0595398,248.5824127 218.0761414,248.5824127 267.3427429,277.0651855 236.5187683,294.6816406 
	186.5457306,265.9819641 186.5457306,264.4682922 "/>
<polygon class="st1" points="270.0769043,283.5075684 271.553009,282.6639404 273.0419617,283.5235901 271.5658569,284.367218 "/>
<polygon class="st1" points="267.1246338,285.1948242 268.600769,284.3511963 270.0897217,285.2108459 268.6135864,286.0544739 "/>
<polygon class="st1" points="264.1723938,286.8821106 265.6484985,286.0384521 267.1374512,286.8981018 265.6613159,287.7417297 "/>
<polygon class="st1" points="261.2201233,288.5693665 262.6962585,287.7257385 264.1852112,288.5853882 262.7090759,289.4290161 "/>
<polygon class="st1" points="258.2678528,290.2566223 259.743988,289.4129944 261.2329407,290.272644 259.7568054,291.116272 "/>
<polygon class="st8" points="255.3156128,291.9438782 256.791748,291.1002502 258.2807007,291.9598999 256.8045654,292.8035278 "/>
<polygon class="st1" points="252.3233795,293.5911865 253.7994995,292.7475281 255.2884521,293.6071777 253.8123322,294.4508057 "/>
<polygon class="st1" points="249.3711243,295.2784424 250.8472443,294.4348145 252.3361969,295.2944641 250.8600769,296.138092 "/>
<polygon class="st9" points="246.418869,296.9656982 247.894989,296.1220703 249.3839417,296.98172 247.9078064,297.8253479 "/>
<polygon class="st8" points="273.0547791,285.2268677 274.5309143,284.3832397 276.0198669,285.2428894 274.5437317,286.0865173 "/>
<polygon class="st1" points="270.1025391,286.9141235 271.5786743,286.0704956 273.067627,286.9301453 271.5914917,287.7737732 "/>
<polygon class="st1" points="267.1502991,288.6220093 268.614563,287.7579346 270.1153259,288.5968018 268.651062,289.4608765 "/>
<polygon class="st1" points="264.1980286,290.2886658 265.6741638,289.4450073 267.1630859,290.304657 265.6869812,291.1482849 "/>
<polygon class="st1" points="261.2457581,291.9759216 262.7218933,291.1322937 264.2108459,291.9919434 262.7347107,292.8355713 "/>
<polygon class="st9" points="258.2935181,293.6631775 259.7696228,292.8195496 261.2585754,293.6791992 259.7824707,294.5228271 "/>
<polygon class="st9" points="255.3012695,295.3104553 256.7774048,294.4668274 258.2663574,295.3264771 256.7902222,296.170105 "/>
<polygon class="st1" points="252.3490143,296.9977417 253.8251495,296.1540833 255.3141022,297.0137329 253.8379669,297.8573608 "/>
<polygon class="st10" points="249.396759,298.6849976 250.8728943,297.8413696 252.3618469,298.7010193 250.8857117,299.5446472 "/>
<polygon class="st11" points="189.2839661,274.5461731 243.5079651,305.6875305 243.5079651,307.2041321 189.2839661,275.8899231 
	"/>
</svg>
