<?xml version="1.0" encoding="utf-8"?>
<!-- Generator: Adobe Illustrator 22.0.0, SVG Export Plug-In . SVG Version: 6.00 Build 0)  -->
<svg version="1.1" id="conveyor" xmlns="http://www.w3.org/2000/svg" xmlns:xlink="http://www.w3.org/1999/xlink" x="0px" y="0px"
	 viewBox="0 0 479.0195007 437.7582092" style="enable-background:new 0 0 479.0195007 437.7582092;" xml:space="preserve">
<style type="text/css">
	.st0{fill:#757575;}
	.st1{fill:#565656;}
	.st2{fill:#ECECEC;}
	.st3{fill:#D0D0D0;}
	.st4{fill:#FFFFFF;}
	.st5{fill:#1F1F1F;}
	.st6{fill:#A3A3A3;}
	.st7{fill:#333333;}
	.st8{fill:#848484;}
	.st9{fill:#666666;}
	.st10{fill:#E2E2E2;}
	.st11{fill:#C6C6C6;}
	.st12{fill:#B3B3B3;}
	.st13{fill:#BDBDBD;}
	.st14{fill:#E6001E;}
	.st15{fill:#0077B3;}
	.st16{fill:#32A3D9;}
	.st17{fill:#43B2E6;}
	.st18{fill:#2195CC;}
	.st19{fill:#73D4FF;}
</style>
<polygon class="st0" points="134.112854,289.9404297 134.112854,273.698822 259.9478149,201.0484314 259.9478149,217.3821716 "/>
<polygon class="st1" points="365.5491333,278.2600708 365.5491333,262.0184937 259.9478149,201.1523743 259.9478149,217.3821716 "/>
<polygon class="st2" points="300.3989868,152.4008484 259.9478149,129.0463562 219.4966431,152.4008484 259.9478149,175.7553406 "/>
<polygon class="st3" points="320.6245728,246.5170135 219.4966583,188.1307831 219.4966583,152.4008484 259.9478149,175.7553406 
	259.9478149,163.3798981 300.3989868,186.7343903 300.3989258,199.1098022 320.6245728,210.7870789 "/>
<polygon class="st1" points="102.5345917,271.7087097 102.5345917,255.3628387 134.112854,273.698822 134.112854,289.9404297 "/>
<polygon class="st4" points="320.6245728,210.7870789 361.0757141,187.4325867 361.0757141,223.1625214 320.6245728,246.5170135 "/>
<polygon class="st5" points="219.4966431,175.7553406 98.1436157,245.8190918 138.5943146,269.1733093 259.9478149,199.1098328 "/>
<polygon class="st5" points="219.4966431,182.7639618 98.1436157,252.827713 138.5943146,276.1819458 259.9478149,206.118454 "/>
<g>
	
		<ellipse transform="matrix(0.5 -0.8660254 0.8660254 0.5 -166.8499298 209.6567993)" class="st5" cx="98.1431503" cy="249.3246765" rx="4.290494" ry="2.4771178"/>
</g>
<polygon class="st5" points="95.9446182,252.998703 136.4708862,276.4004517 143.1714172,270.1690369 135.5604858,249.0354156 
	101.1769867,245.7975616 "/>
<g>
	
		<ellipse transform="matrix(0.5 -0.8660254 0.8660254 0.5 -166.8494415 256.365509)" class="st1" cx="138.5943146" cy="272.6786194" rx="4.290494" ry="2.4771178"/>
</g>
<polygon class="st5" points="224.9854126,178.924408 236.8695831,172.0630951 254.4591675,182.2180786 254.4591675,195.9407654 "/>
<polygon class="st6" points="224.9854126,165.2017212 236.8695831,172.0630951 224.9854126,178.924408 "/>
<path class="st7" d="M138.5943146,269.1732788v0.0021667c-1.6686096,0.9633789-3.0338135,3.3280029-3.0338135,5.2547302
	c0,1.9267578,1.3652039,2.7149963,3.0338135,1.7516174v0.0001221l121.3535004-70.0634766v-7.0086365L138.5943146,269.1732788z"/>
<polygon class="st2" points="259.9478149,163.3798981 300.3989868,140.0254059 340.8501282,163.3798981 300.3989868,186.7343903 "/>
<polygon class="st4" points="300.3989258,199.1098022 340.8501282,175.7553406 340.8501282,163.3798981 300.3989868,186.7343903 "/>
<polygon class="st2" points="340.8501282,175.7553406 361.0757141,187.4325867 320.6245728,210.7870789 300.3989258,199.1098022 "/>
<polygon class="st8" points="138.5943146,270.7097473 138.5943146,274.6441956 259.9478149,204.5696411 259.9478149,200.6352081 "/>
<g>
	<path class="st7" d="M157.1133728,261.993988c0-1.0819702,0.7666626-2.4098511,1.7036896-2.9508667
		c0.9370422-0.5409851,1.7049866-0.0990906,1.706543,0.9819641c0.0015564,1.0810852-0.7651062,2.4089661-1.7037048,2.9508667
		C157.8813019,263.5178223,157.1133728,263.0759583,157.1133728,261.993988z"/>
</g>
<g>
	<path class="st7" d="M177.3391876,250.3148651c0-1.0819702,0.7666626-2.4098511,1.7036896-2.9508514
		c0.9370422-0.5409851,1.7049866-0.0991211,1.706543,0.9819641c0.0015564,1.0810699-0.7651062,2.4089508-1.7037048,2.9508514
		C178.1071167,251.8387146,177.3391876,251.3968353,177.3391876,250.3148651z"/>
</g>
<g>
	<path class="st7" d="M197.5645294,238.6233215c0-1.0819702,0.7666626-2.4098511,1.7037048-2.9508514
		c0.937027-0.5409851,1.7049713-0.0991058,1.7065277,0.9819641s-0.7651062,2.4089508-1.7037048,2.9508514
		C198.3324738,240.147171,197.5645294,239.705307,197.5645294,238.6233215z"/>
</g>
<g>
	<path class="st7" d="M217.7901154,226.9457855c0-1.0819702,0.7666626-2.4098511,1.7037048-2.9508514
		c0.9370422-0.5409851,1.7049713-0.0991211,1.7065277,0.9819641c0.0015717,1.0810699-0.7651062,2.4089508-1.7036896,2.9508514
		C218.5580597,228.469635,217.7901154,228.0277557,217.7901154,226.9457855z"/>
</g>
<g>
	<path class="st7" d="M238.0157013,215.2914124c0-1.0819702,0.7666626-2.4098511,1.7036896-2.9508514
		c0.9370422-0.5410004,1.7049866-0.0991211,1.706543,0.9819489s-0.7651062,2.4089661-1.7037048,2.9508514
		C238.7836304,216.8152618,238.0157013,216.3733826,238.0157013,215.2914124z"/>
</g>
<g>
	<path class="st1" d="M157.8599701,261.5636597c0-0.6086121,0.4312592-1.3555603,0.9583435-1.6598511
		c0.5270691-0.3043213,0.9590454-0.0557556,0.9599152,0.5523376c0.000885,0.6080933-0.4303741,1.3550415-0.9583282,1.6598511
		S157.8599701,262.1722412,157.8599701,261.5636597z"/>
</g>
<g>
	<path class="st1" d="M178.0857849,249.8845367c0-0.6086121,0.4312592-1.355545,0.9583282-1.6598663
		c0.5270844-0.304306,0.9590607-0.0557404,0.9599304,0.5523529c0.000885,0.6081085-0.4303741,1.3550415-0.9583282,1.6598511
		C178.5177612,250.7416992,178.0857849,250.4931335,178.0857849,249.8845367z"/>
</g>
<g>
	<path class="st1" d="M198.311142,238.1929932c0-0.6086121,0.4312439-1.355545,0.9583282-1.6598511
		c0.5270844-0.3043213,0.9590454-0.0557556,0.9599304,0.5523376c0.0008698,0.6081085-0.4303741,1.3550415-0.9583435,1.6598511
		C198.743103,239.0501556,198.311142,238.8016052,198.311142,238.1929932z"/>
</g>
<g>
	<path class="st1" d="M218.5367279,226.5154572c0-0.6086121,0.4312439-1.355545,0.9583282-1.6598663
		c0.5270844-0.304306,0.9590454-0.0557404,0.9599304,0.5523529c0.0008698,0.6081085-0.4303741,1.3550415-0.9583282,1.6598511
		C218.968689,227.3726196,218.5367279,227.124054,218.5367279,226.5154572z"/>
</g>
<g>
	<path class="st1" d="M238.7622986,214.8610687c0-0.6085968,0.4312592-1.3555298,0.9583435-1.6598511
		c0.5270691-0.304306,0.9590454-0.0557556,0.9599152,0.5523529c0.000885,0.6080933-0.4303741,1.3550415-0.9583282,1.6598511
		C239.1942749,215.7182465,238.7622986,215.4696808,238.7622986,214.8610687z"/>
</g>
<g>
	<path class="st7" d="M136.8877869,273.6622314c0-1.0819702,0.7666626-2.4098511,1.7037048-2.9508362
		c0.937027-0.5410156,1.7049713-0.0991211,1.7065277,0.9819336c0.0015564,1.0810852-0.7651062,2.4089661-1.7037048,2.9508667
		C137.6557312,275.1860962,136.8877869,274.7442017,136.8877869,273.6622314z"/>
</g>
<g>
	<path class="st1" d="M137.6343994,273.2319031c0-0.6086121,0.4312439-1.3555603,0.9583282-1.6598511
		c0.5270844-0.3043213,0.9590454-0.0557556,0.9599152,0.5523376c0.000885,0.6080933-0.4303589,1.3550415-0.9583282,1.6598511
		C138.0663605,274.0890503,137.6343994,273.8405151,137.6343994,273.2319031z"/>
</g>
<polygon class="st0" points="397.1274109,260.0283508 397.1274109,243.6824951 365.5491333,262.0184937 365.5491333,278.2600708 "/>
<polygon class="st5" points="361.0757141,210.7889709 401.5183716,234.1387329 361.0676575,257.4929504 320.6245728,234.1431274 "/>
<g>
	
		<ellipse transform="matrix(0.8660254 -0.5 0.5 0.8660254 -65.0288391 232.5977173)" class="st5" cx="401.5188293" cy="237.6443329" rx="2.4771178" ry="4.290494"/>
</g>
<polygon class="st5" points="403.7173767,241.3183594 363.1911011,264.7201233 356.4905701,258.4887085 364.1015015,237.355072 
	398.4849854,234.117218 "/>
<g>
	
		<ellipse transform="matrix(0.8660254 -0.5 0.5 0.8660254 -82.1252365 215.5009766)" class="st1" cx="361.0676575" cy="260.9982605" rx="2.4771178" ry="4.290494"/>
</g>
<polygon class="st5" points="355.5883789,213.9561462 343.7041931,207.0948334 326.114624,217.2498169 326.114624,230.9725037 "/>
<polygon class="st6" points="355.5883789,200.2334595 343.7041931,207.0948334 355.5883789,213.9561462 "/>
<path class="st7" d="M361.067688,257.4929504v0.0021362c1.6685791,0.9633789,3.0338135,3.3280334,3.0338135,5.2547302
	c0,1.9267578-1.3652344,2.7149963-3.0338135,1.7516174v0.0001526l-40.4431458-23.3498688l0.0000305-7.0085907
	L361.067688,257.4929504z"/>
<polygon class="st8" points="361.0676575,259.0294189 361.0676575,262.9638367 320.6245422,239.6103058 320.6245422,235.6758575 "/>
<g>
	<path class="st7" d="M342.5486145,250.3136444c0-1.0819702-0.7666626-2.4098511-1.7037048-2.9508514
		c-0.9370117-0.5410004-1.7049561-0.0991211-1.7065125,0.9819489s0.7651062,2.4089508,1.7037048,2.9508514
		C341.7806702,251.8374939,342.5486145,251.3956146,342.5486145,250.3136444z"/>
</g>
<g>
	<path class="st1" d="M341.802002,249.8833008c0-0.6086121-0.4312439-1.355545-0.958313-1.6598511
		c-0.5270996-0.304306-0.9590454-0.0557556-0.9599304,0.5523529c-0.000885,0.6080933,0.4303589,1.3550262,0.9583435,1.6598511
		C341.3700562,250.7404633,341.802002,250.4919128,341.802002,249.8833008z"/>
</g>
<g>
	<path class="st7" d="M362.7742004,261.9819031c0-1.0819702-0.7666626-2.4098511-1.7037048-2.9508667
		c-0.9370422-0.5409851-1.7049561-0.0991211-1.7065125,0.9819641c-0.0015564,1.0810547,0.7651062,2.4089355,1.7036743,2.9508362
		C362.0062561,263.5057373,362.7742004,263.0638733,362.7742004,261.9819031z"/>
</g>
<g>
	<path class="st1" d="M362.0275879,261.5515442c0-0.6086121-0.4312439-1.3555298-0.958313-1.6598511
		c-0.5270996-0.3042908-0.9590454-0.0557556-0.9599304,0.5523682c-0.000885,0.6080933,0.4303589,1.355011,0.958313,1.6598511
		C361.5956421,262.4087219,362.0275879,262.1601563,362.0275879,261.5515442z"/>
</g>
<g>
	<path class="st5" d="M279.8119202,182.5046387c0-1.0819702-0.7666626-2.4098511-1.7037048-2.9508514
		c-0.9370117-0.5409851-1.7049561-0.0991058-1.7065125,0.9819641s0.7651062,2.4089508,1.7037048,2.9508514
		C279.0439758,184.0284882,279.8119202,183.5866089,279.8119202,182.5046387z"/>
</g>
<polygon class="st5" points="275.5483398,180.2195892 276.8993835,179.4396973 279.3276672,183.5953217 277.9434204,184.3929291 "/>
<g>
	<path class="st7" d="M278.4479065,183.29216c0-1.0819702-0.7666626-2.4098511-1.7036743-2.9508514
		c-0.9370422-0.5410004-1.7049866-0.0991211-1.706543,0.9819489s0.7651062,2.4089508,1.7037048,2.9508514
		S278.4479065,184.3741302,278.4479065,183.29216z"/>
</g>
<g>
	<path class="st9" d="M277.7013245,182.8618164c0-0.6086121-0.4312744-1.355545-0.9583435-1.6598511
		c-0.5270691-0.3043213-0.9590454-0.0557556-0.9599304,0.5523376c-0.000885,0.6081085,0.4303894,1.3550415,0.9583435,1.6598663
		C277.2693481,183.7189789,277.7013245,183.4704285,277.7013245,182.8618164z"/>
</g>
<g>
	<path class="st5" d="M289.5837402,188.1454468c0-1.0819702-0.7666626-2.4098511-1.7036743-2.9508514
		c-0.9370422-0.5410004-1.7049866-0.0991211-1.706543,0.9819489s0.7651062,2.4089508,1.7037048,2.9508514
		S289.5837402,189.227417,289.5837402,188.1454468z"/>
</g>
<polygon class="st5" points="285.3201599,185.8603973 286.6712036,185.0804901 289.0994873,189.2361145 287.7152405,190.0337372 "/>
<g>
	<path class="st7" d="M288.2197571,188.9329529c0-1.0819702-0.7666626-2.4098511-1.7037048-2.9508514
		s-1.7049866-0.0991211-1.706543,0.9819489c-0.0015564,1.0810852,0.7651062,2.4089661,1.7037048,2.9508514
		C287.4518127,190.4568024,288.2197571,190.0149231,288.2197571,188.9329529z"/>
</g>
<g>
	<path class="st9" d="M287.4731445,188.5026245c0-0.6086121-0.4312439-1.355545-0.9583435-1.6598663
		c-0.5270691-0.304306-0.9590454-0.0557556-0.9599304,0.5523529c-0.0008545,0.6081085,0.4303894,1.3550415,0.9583435,1.6598511
		C287.0411682,189.359787,287.4731445,189.1112213,287.4731445,188.5026245z"/>
</g>
<g>
	<path class="st5" d="M270.0627747,176.875c0-1.0819702-0.7666626-2.4098511-1.7037048-2.9508514
		s-1.7049866-0.0991211-1.706543,0.9819489s0.7651062,2.4089508,1.7037048,2.9508514S270.0627747,177.9569702,270.0627747,176.875z"
		/>
</g>
<polygon class="st5" points="265.7991638,174.5899506 267.1502075,173.8100433 269.5784912,177.9656677 268.1942444,178.7632904 "/>
<g>
	<path class="st7" d="M268.698761,177.6625061c0-1.0819702-0.7666626-2.4098511-1.7037048-2.9508514
		s-1.7049866-0.0991211-1.706543,0.9819489s0.7651062,2.4089661,1.7037048,2.9508514
		C267.9308167,179.1863556,268.698761,178.7444763,268.698761,177.6625061z"/>
</g>
<g>
	<path class="st9" d="M267.9521484,177.2321625c0-0.6085968-0.4312439-1.3555298-0.9583435-1.6598511
		c-0.5270691-0.304306-0.9590454-0.0557556-0.9599304,0.5523529c-0.0008545,0.6080933,0.4303894,1.3550415,0.9583435,1.6598511
		C267.5201721,178.0893402,267.9521484,177.8407745,267.9521484,177.2321625z"/>
</g>
<polygon class="st10" points="280.1733704,161.8822784 300.3989868,150.2050323 320.6245422,161.8822784 300.3989868,173.5595245 
	"/>
<polygon class="st0" points="284.5649109,161.8820648 300.3993225,152.7405701 316.2337341,161.8820648 300.3993225,171.0241089 "/>
<polygon class="st11" points="320.6245422,161.8822784 320.6245422,164.0780792 300.3989868,175.7553406 300.3989868,173.5595245 
	"/>
<polygon class="st12" points="300.3989868,173.5595245 300.3989868,175.7553406 280.1733704,164.0780945 280.1733704,161.8822784 
	"/>
<polygon class="st13" points="300.3993225,152.7405701 300.3993225,153.8384705 285.5157471,162.4310303 284.5649109,161.8820648 
	"/>
<polygon class="st6" points="300.3993225,152.7405701 316.2337341,161.8820648 315.2828979,162.4310303 300.3993225,153.8384705 "/>
<polygon class="st14" points="311.4503479,209.5271301 311.4503479,214.0514832 317.0963135,217.3120422 317.0963135,212.787262 "/>
<polygon class="st15" points="150.3697205,135.5563812 150.3697205,215.6660919 138.5943146,222.4647064 138.5943146,142.3549194 
	"/>
<polygon class="st16" points="187.9944153,274.3264771 199.6793213,267.4764404 199.72435,164.0524597 187.9494171,170.849411 "/>
<polygon class="st17" points="199.72435,164.0524597 141.4662628,130.4159698 129.6908569,137.2145081 187.9494171,170.849411 "/>
<polygon class="st18" points="179.0459442,165.7096863 187.9494171,170.849411 187.9944153,274.3264771 179.0454865,269.160553 "/>
<polygon class="st18" points="129.6908569,137.2145081 138.5943146,142.3549194 138.5943146,222.4647064 129.6908569,227.6051636 
	"/>
<polygon class="st18" points="138.5943146,142.3549194 138.5943146,152.4008484 179.0454865,175.7541046 179.0459442,165.7096863 
	"/>
<g>
	<path class="st5" d="M136.1801453,145.9592438c0-1.8738098-1.3277435-4.1735077-2.9505615-5.1104431
		c-1.6228027-0.9369202-2.9527588-0.1716614-2.9554596,1.7006073c-0.0027008,1.8722534,1.325058,4.1719513,2.9505615,5.1104431
		C134.8501892,148.5983276,136.1801453,147.8330688,136.1801453,145.9592438z"/>
</g>
<polygon class="st5" points="128.7962189,142.0018768 131.1360321,140.6511993 135.3414764,147.8481445 132.9441528,149.2294922 "/>
<g>
	<path class="st7" d="M133.8178864,147.3231049c0-1.8738098-1.3277588-4.1735229-2.9505615-5.1104431
		c-1.622818-0.9369354-2.952774-0.1716614-2.9554672,1.700592c-0.0027008,1.8722534,1.3250504,4.1719666,2.9505539,5.1104431
		C132.4879303,149.9621887,133.8178864,149.1969147,133.8178864,147.3231049z"/>
</g>
<g>
	<path class="st19" d="M132.5248718,146.5778198c0-1.0540161-0.7468567-2.3475952-1.6596985-2.8746185
		c-0.9128265-0.5270233-1.6609344-0.0965729-1.6624451,0.9565735c-0.0015259,1.0531464,0.7453461,2.3467255,1.6596832,2.8746338
		C131.7767639,148.0623016,132.5248718,147.6318359,132.5248718,146.5778198z"/>
</g>
<polygon class="st18" points="179.0457153,260.090332 179.0454865,269.160553 199.2710571,280.8505554 199.2710571,271.7677307 "/>
<polygon class="st16" points="211.046463,264.9691772 199.2710571,271.7677307 199.2710571,280.8505554 211.046463,274.0520325 "/>
<polygon class="st17" points="187.9494171,265.2310181 199.6849365,258.4094543 211.046463,264.9691772 199.2710571,271.7677307 "/>
<polygon class="st18" points="118.3726044,225.0656738 118.3723679,234.1358948 130.9839478,226.8585815 130.9839478,221.3690643 
	"/>
<polygon class="st17" points="118.3726044,225.0656738 129.6908569,218.505249 129.6908569,227.6051636 126.2309036,229.6027679 "/>
<g>
	<path class="st5" d="M186.6159973,175.0777283c0-1.8738098-1.3277588-4.1735077-2.9505615-5.1104431
		c-1.622818-0.9369354-2.952774-0.1716614-2.9554749,1.700592c-0.0026855,1.8722687,1.325058,4.1719666,2.9505615,5.1104431
		C185.2860413,177.7168121,186.6159973,176.9515533,186.6159973,175.0777283z"/>
</g>
<polygon class="st5" points="179.2320557,171.1203613 181.5718842,169.7696838 185.7773132,176.9666138 183.3800049,178.3479767 "/>
<g>
	<path class="st7" d="M184.2537384,176.4415894c0-1.8738251-1.3277588-4.1735229-2.9505615-5.1104431
		c-1.622818-0.9369354-2.952774-0.1716614-2.9554749,1.700592s1.325058,4.1719513,2.9505615,5.1104431
		S184.2537384,178.3153992,184.2537384,176.4415894z"/>
</g>
<g>
	<path class="st19" d="M182.9607086,175.6963043c0-1.0540314-0.7468567-2.3476105-1.6596832-2.8746338
		s-1.6609344-0.0965576-1.6624451,0.9565887c-0.0015259,1.0531464,0.7453308,2.3467255,1.6596832,2.8746338
		C182.212616,177.1807861,182.9607086,176.7503204,182.9607086,175.6963043z"/>
</g>
</svg>
