<?xml version="1.0" encoding="utf-8"?>
<!-- Generator: Adobe Illustrator 22.0.0, SVG Export Plug-In . SVG Version: 6.00 Build 0)  -->
<svg version="1.1" id="finnished_x5F_goods_x5F_big"
	 xmlns="http://www.w3.org/2000/svg" xmlns:xlink="http://www.w3.org/1999/xlink" x="0px" y="0px"
	 viewBox="0 0 479.0195007 437.7582092" style="enable-background:new 0 0 479.0195007 437.7582092;" xml:space="preserve">
<style type="text/css">
	.st0{fill:#3A3A3A;}
	.st1{fill:#333333;}
	.st2{fill:#292929;}
	.st3{fill:#1F1F1F;}
	.st4{fill:#141414;}
	.st5{fill:#D0D0D0;}
	.st6{fill:#ECECEC;}
	.st7{fill:#BDBDBD;}
	.st8{fill:#C6C6C6;}
	.st9{fill:#B3B3B3;}
	.st10{fill:#949494;}
	.st11{fill:#E6001E;}
	.st12{fill:#FFFFFF;}
	.st13{fill:#C1002A;}
</style>
<polygon class="st0" points="166.7497864,194.8643188 239.5223846,152.8490448 312.2949829,194.8643188 239.5223694,236.8795929 "/>
<polygon class="st1" points="312.2949829,194.8643188 312.2949829,198.8142395 239.5223694,240.8295135 239.5223694,236.8795929 "/>
<polygon class="st2" points="239.5223694,236.8795929 239.5223694,240.8295135 166.7497864,198.8142395 166.7497864,194.8643188 "/>
<polygon class="st2" points="308.824707,200.8177948 308.824707,204.9141998 298.0125732,211.1565857 298.0125732,207.0601807 "/>
<polygon class="st2" points="281.3147278,216.6987 281.3147278,220.795105 270.502594,227.0374908 270.502594,222.9410858 "/>
<polygon class="st2" points="250.3345032,234.5865326 250.3345032,238.6829376 239.5223694,244.9253235 239.5223694,240.8289185 "/>
<polygon class="st3" points="228.7102509,234.5865326 228.7102509,238.6829376 239.5223694,244.9253235 239.5223694,240.8289185 "/>
<polygon class="st3" points="298.0125732,211.1565857 294.4649963,209.1083832 298.0125732,207.0601807 "/>
<polygon class="st3" points="270.502594,227.0374908 266.9550171,224.9892883 270.502594,222.9410858 "/>
<polygon class="st3" points="170.220047,200.8177948 170.220047,204.9136047 181.0326996,211.1562805 181.0326996,207.0604858 "/>
<polygon class="st4" points="181.0326996,211.1562805 184.5797577,209.1083832 181.0326996,207.0604858 "/>
<polygon class="st3" points="197.730011,216.692749 197.730011,220.7891541 208.5421448,227.0315399 208.5421448,222.9351349 "/>
<polygon class="st4" points="208.5421448,227.0315399 212.0897369,224.9833374 208.5421448,222.9351349 "/>
<polygon class="st5" points="196.6617126,177.5946655 196.6617126,149.5844879 220.9192352,163.5895691 220.9192352,191.599762 "/>
<polygon class="st6" points="196.6617126,149.5844879 220.9192352,135.5793915 245.1767578,149.5844727 220.9192352,163.5895691 "/>
<polygon class="st7" points="220.9192352,163.5895691 220.9192352,191.599762 245.176712,177.594635 245.1767578,149.5844727 "/>
<polygon class="st8" points="231.6222229,141.7587738 207.3646851,155.7639008 210.2162323,157.4101715 234.4737549,143.4050598 "/>
<polygon class="st9" points="207.3646851,155.7639008 207.3646851,161.0304413 208.7904663,163.1702271 210.2162323,162.6767273 
	210.2162323,157.4101715 "/>
<polygon class="st7" points="243.6125336,176.4262238 243.6125336,173.4318542 238.4197083,176.4299469 238.4197083,179.4243164 "/>
<polygon class="st9" points="221.9436951,191.0082855 221.9436951,162.9981079 246.2012177,177.0031891 246.2012177,205.013382 "/>
<polygon class="st6" points="221.9436951,162.9981079 246.2012177,148.9930115 270.4587402,162.9980927 246.2012177,177.0031891 "/>
<polygon class="st7" points="246.2012177,177.0031891 246.2012177,205.013382 270.4586792,191.008255 270.4587402,162.9980927 "/>
<polygon class="st8" points="256.9042053,155.1723938 232.6466675,169.1775208 235.4982147,170.8237915 259.7557373,156.8186798 "/>
<polygon class="st10" points="232.6466675,169.1775208 232.6466675,174.4440613 234.0724335,176.583847 235.4982147,176.0903473 
	235.4982147,170.8237915 "/>
<polygon class="st11" points="241.0913391,180.3226013 241.0913391,176.2868958 244.5657959,178.2928619 244.5657959,182.3285828 
	"/>
<polygon class="st7" points="268.8945313,189.8398438 268.8945313,186.8454742 263.7016907,189.8435669 263.7016907,192.8379364 "/>
<polygon class="st5" points="170.220047,192.8607635 170.220047,164.8505859 194.4775696,178.8556824 194.4775696,206.86586 "/>
<polygon class="st6" points="170.220047,164.8505859 194.4775696,150.8454895 218.7350922,164.8505859 194.4775696,178.8556824 "/>
<polygon class="st12" points="194.4775696,178.8556824 194.4775696,206.86586 218.7350311,192.860733 218.7350922,164.8505859 "/>
<polygon class="st8" points="205.1805573,157.0248718 180.9230194,171.0299988 183.7745514,172.6762848 208.0320892,158.6711578 "/>
<polygon class="st9" points="180.9230194,171.0299988 180.9230194,176.2965546 182.3487854,178.4363251 183.7745514,177.9428253 
	183.7745514,172.6762848 "/>
<polygon class="st11" points="189.367691,182.1750793 189.367691,178.1393738 192.8421478,180.1453552 192.8421478,184.1810608 "/>
<polygon class="st7" points="217.1708679,191.6923218 217.1708679,188.6979675 211.9780273,191.6960449 211.9780273,194.6904144 "/>
<polygon class="st5" points="196.6616974,205.6048431 196.6616974,177.5946655 220.9192352,191.599762 220.9192352,219.6099396 "/>
<polygon class="st6" points="196.6616974,177.5946655 220.91922,163.5895691 245.1767426,177.5946503 220.9192352,191.599762 "/>
<polygon class="st12" points="220.9192352,191.599762 220.9192352,219.6099396 245.1766968,205.6048126 245.1767426,177.5946503 "/>
<polygon class="st8" points="231.6222076,169.7689514 207.3646851,183.7740784 210.216217,185.4203644 234.4737549,171.4152374 "/>
<polygon class="st9" points="207.3646851,183.7740784 207.3646851,189.0406342 208.790451,191.1804047 210.216217,190.6869049 
	210.216217,185.4203644 "/>
<polygon class="st11" points="215.8093567,194.9191589 215.8093567,190.8834534 219.2837982,192.8894348 219.2837982,196.9251404 
	"/>
<polygon class="st7" points="243.6125336,204.4364014 243.6125336,201.4420471 238.419693,204.4401245 238.419693,207.434494 "/>
<polygon class="st9" points="250.6177521,202.2837067 250.6177521,174.2735138 274.8752747,188.2786102 274.8752747,216.2887878 "/>
<polygon class="st6" points="250.6177521,174.2735138 274.8752747,160.2684326 299.132782,174.2735138 274.8752747,188.2786102 "/>
<polygon class="st12" points="274.8752747,188.2786102 274.8752747,216.2887878 299.1327515,202.2836609 299.132782,174.2735138 "/>
<polygon class="st8" points="285.5782471,166.4478149 261.3207397,180.4529266 264.1722717,182.0992126 288.4298096,168.0940857 "/>
<polygon class="st10" points="261.3207397,180.4529266 261.3207397,185.7194824 262.7464905,187.8592682 264.1722717,187.3657684 
	264.1722717,182.0992126 "/>
<polygon class="st13" points="269.7654114,191.5980225 269.7654114,187.5623016 273.2398376,189.5682831 273.2398376,193.6040039 
	"/>
<polygon class="st7" points="297.568573,201.1152496 297.568573,198.1208954 292.3757324,201.118988 292.3757324,204.1133423 "/>
<polygon class="st5" points="223.7037811,217.8774414 223.7037811,189.8672638 247.9613037,203.872345 247.9613037,231.8825378 "/>
<polygon class="st6" points="223.7037811,189.8672638 247.9613037,175.8621674 272.2188416,189.8672485 247.9613037,203.872345 "/>
<polygon class="st12" points="247.9613037,203.872345 247.9613037,231.8825378 272.2187805,217.8774109 272.2188416,189.8672485 "/>
<polygon class="st8" points="258.6643066,182.0415497 234.4067535,196.0466766 237.2583008,197.6929626 261.5158386,183.6878357 "/>
<polygon class="st9" points="234.4067535,196.0466766 234.4067535,201.3132172 235.8325348,203.4530029 237.2583008,202.9595032 
	237.2583008,197.6929626 "/>
<polygon class="st11" points="242.8514252,207.1917572 242.8514252,203.1560516 246.325882,205.1620178 246.325882,209.1977386 "/>
<polygon class="st7" points="270.6546021,216.7089996 270.6546021,213.7146301 265.4617615,216.7127228 265.4617615,219.7070923 "/>
<polygon class="st5" points="218.0262909,153.6332397 218.0262909,125.6230621 242.2838287,139.6281433 242.2838287,167.6383362 "/>
<polygon class="st6" points="218.0262909,125.6230621 242.2838135,111.6179657 266.5413513,125.6230545 242.2838287,139.6281433 "/>
<polygon class="st8" points="242.2838287,139.6281433 242.2838287,167.6383362 266.5412903,153.6332092 266.5413513,125.6230545 "/>
<polygon class="st8" points="252.9868011,117.797348 228.7292786,131.802475 231.5808105,133.448761 255.8383484,119.443634 "/>
<polygon class="st9" points="228.7292786,131.802475 228.7292786,137.0690155 230.1550446,139.2088013 231.5808105,138.7153015 
	231.5808105,133.448761 "/>
<polygon class="st11" points="237.1739502,142.9475555 237.1739502,138.91185 240.648407,140.9178162 240.648407,144.953537 "/>
<polygon class="st7" points="264.9771118,152.464798 264.9771118,149.4704285 259.7843018,152.4685211 259.7843018,155.4628906 "/>
<polygon class="st5" points="181.380661,164.8505859 181.380661,136.8404083 205.6381836,150.8454895 205.6381836,178.8556824 "/>
<polygon class="st6" points="181.380661,136.8404083 205.6381836,122.8353119 229.8957062,136.8403931 205.6381836,150.8454895 "/>
<polygon class="st7" points="205.6381836,150.8454895 205.6381836,178.8556824 229.8956604,164.8505554 229.8957062,136.8403931 "/>
<polygon class="st8" points="216.3411713,129.0146942 192.0836487,143.0198212 194.9351807,144.6660919 219.1927185,130.6609802 "/>
<polygon class="st9" points="192.0836487,143.0198212 192.0836487,148.2863617 193.5094147,150.4261475 194.9351807,149.9326477 
	194.9351807,144.6660919 "/>
<polygon class="st11" points="200.5283051,154.1649017 200.5283051,150.1291962 204.0027618,152.1351624 204.0027618,156.1708832 
	"/>
<polygon class="st7" points="228.3314972,163.6821442 228.3314972,160.6877747 223.1386566,163.6858673 223.1386566,166.6802368 "/>
<polygon class="st5" points="243.0443573,168.1989594 243.0443573,140.1887817 267.3018799,154.1938629 267.3018799,182.2040558 "/>
<polygon class="st6" points="243.0443573,140.1887817 267.3018799,126.1836853 291.5594177,140.1887665 267.3018799,154.1938629 "/>
<polygon class="st12" points="267.3018799,154.1938629 267.3018799,182.2040558 291.5593567,168.1989136 291.5594177,140.1887665 
	"/>
<polygon class="st8" points="278.0048828,132.3630676 253.747345,146.3681946 256.598877,148.0144653 280.8564148,134.0093536 "/>
<polygon class="st9" points="253.747345,146.3681946 253.747345,151.6347351 255.173111,153.7745209 256.598877,153.2810211 
	256.598877,148.0144653 "/>
<polygon class="st11" points="262.1920166,157.5132751 262.1920166,153.4775543 265.6664734,155.4835358 265.6664734,159.5192566 
	"/>
<polygon class="st7" points="289.9951782,167.0305176 289.9951782,164.0361481 284.8023682,167.0342407 284.8023682,170.028595 "/>
<polygon class="st5" points="207.5059662,179.1820679 207.5059662,151.1718903 231.7634888,165.1769867 231.7634888,193.1871643 "/>
<polygon class="st6" points="207.5059662,151.1718903 231.7634888,137.1668091 256.0209961,151.1718903 231.7634888,165.1769867 "/>
<polygon class="st12" points="231.7634888,165.1769867 231.7634888,193.1871643 256.0209656,179.1820374 256.0209961,151.1718903 
	"/>
<polygon class="st8" points="242.4664764,143.3461914 218.2089386,157.3513031 221.0604706,158.9975891 245.3180084,144.9924622 "/>
<polygon class="st9" points="218.2089386,157.3513031 218.2089386,162.6178589 219.6347046,164.7576294 221.0604706,164.2641296 
	221.0604706,158.9975891 "/>
<polygon class="st11" points="226.6536102,168.4963989 226.6536102,164.4606781 230.128067,166.4666595 230.128067,170.5023804 "/>
<polygon class="st7" points="254.4567871,178.0136261 254.4567871,175.0192719 249.2639465,178.0173492 249.2639465,181.0117188 "/>
<polygon class="st5" points="211.2406921,141.0424957 211.2406921,113.0323105 235.4982147,127.0374069 235.4982147,155.0475922 "/>
<polygon class="st6" points="211.2406921,113.0323105 235.4982147,99.0272217 259.7557373,113.0323029 235.4982147,127.0374069 "/>
<polygon class="st12" points="235.4982147,127.0374069 235.4982147,155.0475922 259.7556763,141.0424652 259.7557373,113.0323029 
	"/>
<polygon class="st8" points="246.2012024,105.206604 221.9436646,119.2117233 224.7952118,120.8580093 249.0527344,106.8528824 "/>
<polygon class="st9" points="221.9436646,119.2117233 221.9436646,124.4782791 223.3694305,126.6180573 224.7952118,126.1245575 
	224.7952118,120.8580093 "/>
<polygon class="st11" points="230.3883362,130.3568115 230.3883362,126.3210983 233.862793,128.3270721 233.862793,132.362793 "/>
<polygon class="st7" points="258.1915283,139.874054 258.1915283,136.8796844 252.9986725,139.8777771 252.9986725,142.8721466 "/>
<polygon class="st0" points="256.3253479,247.0419922 329.0979614,205.0267181 401.8705444,247.0419922 329.0979614,289.057251 "/>
<polygon class="st1" points="401.8705444,247.0419922 401.8705444,250.9919128 329.0979614,293.0071716 329.0979614,289.057251 "/>
<polygon class="st2" points="329.0979614,289.057251 329.0979614,293.0071716 256.3253479,250.9919128 256.3253479,247.0419922 "/>
<polygon class="st2" points="398.4002991,252.9954681 398.4002991,257.0918579 387.5881653,263.334259 387.5881653,259.237854 "/>
<polygon class="st2" points="370.8903198,268.8763733 370.8903198,272.9727783 360.078186,279.2151489 360.078186,275.1187439 "/>
<polygon class="st2" points="339.9100647,286.7641907 339.9100647,290.8605957 329.0979614,297.1029968 329.0979614,293.0065918 "/>
<polygon class="st3" points="318.2858276,286.7641907 318.2858276,290.8605957 329.0979614,297.1029968 329.0979614,293.0065918 "/>
<polygon class="st3" points="387.5881653,263.334259 384.0405579,261.2860413 387.5881653,259.237854 "/>
<polygon class="st3" points="360.078186,279.2151489 356.5305786,277.1669617 360.078186,275.1187439 "/>
<polygon class="st3" points="259.7956238,252.9954681 259.7956238,257.0912781 270.6082764,263.3339539 270.6082764,259.2381592 "/>
<polygon class="st4" points="270.6082764,263.3339539 274.1553345,261.2860413 270.6082764,259.2381592 "/>
<polygon class="st3" points="287.305603,268.8704224 287.305603,272.9668274 298.1177063,279.209198 298.1177063,275.112793 "/>
<polygon class="st4" points="298.1177063,279.209198 301.6653137,277.1610107 298.1177063,275.112793 "/>
<polygon class="st5" points="286.2372742,229.7723236 286.2372742,201.762146 310.494812,215.7672424 310.494812,243.77742 "/>
<polygon class="st6" points="286.2372742,201.762146 310.494812,187.7570648 334.7523193,201.762146 310.494812,215.7672424 "/>
<polygon class="st7" points="310.494812,215.7672424 310.494812,243.77742 334.7522888,229.7722931 334.7523193,201.762146 "/>
<polygon class="st8" points="321.1977844,193.9364471 296.9402771,207.9415588 299.7918091,209.5878448 324.0493469,195.5827179 "/>
<polygon class="st9" points="296.9402771,207.9415588 296.9402771,213.2081146 298.3660278,215.3478851 299.7918091,214.8543854 
	299.7918091,209.5878448 "/>
<polygon class="st7" points="333.1881104,228.6038818 333.1881104,225.6095276 327.9952698,228.607605 327.9952698,231.6019745 "/>
<polygon class="st9" points="311.5192566,243.1859589 311.5192566,215.175766 335.7767944,229.1808624 335.7767944,257.19104 "/>
<polygon class="st6" points="311.5192566,215.175766 335.7767944,201.1706848 360.0343018,215.175766 335.7767944,229.1808624 "/>
<polygon class="st7" points="335.7767944,229.1808624 335.7767944,257.19104 360.0342712,243.1859131 360.0343018,215.175766 "/>
<polygon class="st8" points="346.4797668,207.3500671 322.2222595,221.3551788 325.0737915,223.0014648 349.3313293,208.9963379 "/>
<polygon class="st10" points="322.2222595,221.3551788 322.2222595,226.6217346 323.6480103,228.7615051 325.0737915,228.2680206 
	325.0737915,223.0014648 "/>
<polygon class="st11" points="330.6669312,232.5002747 330.6669312,228.4645538 334.1413574,230.4705353 334.1413574,234.5062561 
	"/>
<polygon class="st7" points="358.4700928,242.0175018 358.4700928,239.0231476 353.2772522,242.0212402 353.2772522,245.0155945 "/>
<polygon class="st5" points="259.7956238,245.0384369 259.7956238,217.0282593 284.0531311,231.0333405 284.0531311,259.0435181 "/>
<polygon class="st6" points="259.7956238,217.0282593 284.0531311,203.0231628 308.3106689,217.028244 284.0531311,231.0333405 "/>
<polygon class="st12" points="284.0531311,231.0333405 284.0531311,259.0435181 308.3106079,245.0384064 308.3106689,217.028244 "/>
<polygon class="st8" points="294.756134,209.2025452 270.4985962,223.2076721 273.3501282,224.8539429 297.607666,210.8488312 "/>
<polygon class="st9" points="270.4985962,223.2076721 270.4985962,228.4742126 271.9243774,230.6139984 273.3501282,230.1204987 
	273.3501282,224.8539429 "/>
<polygon class="st11" points="278.9432678,234.3527527 278.9432678,230.3170319 282.4177246,232.3230133 282.4177246,236.3587341 
	"/>
<polygon class="st7" points="306.74646,243.8699951 306.74646,240.8756256 301.5536194,243.8737183 301.5536194,246.8680878 "/>
<polygon class="st5" points="286.2372742,257.7825012 286.2372742,229.7723389 310.494812,243.77742 310.494812,271.7875977 "/>
<polygon class="st6" points="286.2372742,229.7723389 310.494812,215.7672424 334.7523193,229.7723236 310.494812,243.77742 "/>
<polygon class="st12" points="310.494812,243.77742 310.494812,271.7875977 334.7522888,257.7824707 334.7523193,229.7723236 "/>
<polygon class="st8" points="321.1977844,221.9466248 296.9402466,235.9517517 299.7918091,237.5980225 324.0493164,223.5929108 "/>
<polygon class="st9" points="296.9402466,235.9517517 296.9402466,241.2182922 298.3660278,243.358078 299.7918091,242.8645782 
	299.7918091,237.5980225 "/>
<polygon class="st11" points="305.3849182,247.0968323 305.3849182,243.0611115 308.859375,245.0670929 308.859375,249.1028137 "/>
<polygon class="st7" points="333.1881104,256.6140747 333.1881104,253.6197052 327.9952698,256.6177979 327.9952698,259.6121521 "/>
<polygon class="st9" points="340.1933289,254.4613647 340.1933289,226.4511871 364.4508362,240.4562836 364.4508362,268.4664612 "/>
<polygon class="st6" points="340.1933289,226.4511871 364.4508362,212.4460907 388.708374,226.4511719 364.4508362,240.4562836 "/>
<polygon class="st12" points="364.4508362,240.4562836 364.4508362,268.4664612 388.708313,254.4613342 388.708374,226.4511719 "/>
<polygon class="st8" points="375.1538391,218.625473 350.8963013,232.6306 353.7478333,234.276886 378.0053711,220.271759 "/>
<polygon class="st10" points="350.8963013,232.6306 350.8963013,237.8971558 352.3220825,240.0369263 353.7478333,239.5434265 
	353.7478333,234.276886 "/>
<polygon class="st13" points="359.3409729,243.7756805 359.3409729,239.739975 362.8154297,241.7459564 362.8154297,245.781662 "/>
<polygon class="st7" points="387.144165,253.292923 387.144165,250.2985687 381.9513245,253.2966461 381.9513245,256.2910156 "/>
<polygon class="st5" points="313.2793579,270.0551147 313.2793579,242.0449219 337.5368958,256.0500183 337.5368958,284.0602112 "/>
<polygon class="st6" points="313.2793579,242.0449219 337.5368958,228.0398407 361.7944031,242.0449219 337.5368958,256.0500183 "/>
<polygon class="st12" points="337.5368958,256.0500183 337.5368958,284.0602112 361.794342,270.0550842 361.7944031,242.0449219 "/>
<polygon class="st8" points="348.2398682,234.219223 323.9823303,248.2243347 326.8338623,249.8706207 351.0914001,235.8654938 "/>
<polygon class="st9" points="323.9823303,248.2243347 323.9823303,253.4908905 325.4081116,255.6306763 326.8338623,255.1371765 
	326.8338623,249.8706207 "/>
<polygon class="st11" points="332.427002,259.3694153 332.427002,255.3337097 335.9014587,257.3396912 335.9014587,261.3753967 "/>
<polygon class="st7" points="360.2301941,268.8866577 360.2301941,265.8923035 355.0373535,268.8903809 355.0373535,271.8847656 "/>
<polygon class="st5" points="307.6018677,205.8109131 307.6018677,177.8007202 331.8594055,191.8058167 331.8594055,219.8159943 "/>
<polygon class="st6" points="307.6018677,177.8007202 331.8594055,163.795639 356.1169128,177.8007202 331.8594055,191.8058167 "/>
<polygon class="st8" points="331.8594055,191.8058167 331.8594055,219.8159943 356.1168823,205.8108673 356.1169128,177.8007202 "/>
<polygon class="st8" points="342.5623779,169.9750214 318.3048401,183.9801331 321.1564026,185.6264191 345.4139099,171.6212921 "/>
<polygon class="st9" points="318.3048401,183.9801331 318.3048401,189.2466888 319.7306213,191.3864746 321.1564026,190.8929749 
	321.1564026,185.6264191 "/>
<polygon class="st11" points="326.7495117,195.1252289 326.7495117,191.0895081 330.2239685,193.0954895 330.2239685,197.1312103 
	"/>
<polygon class="st7" points="354.5527039,204.6424561 354.5527039,201.6481018 349.3598633,204.6461945 349.3598633,207.6405487 "/>
<polygon class="st5" points="270.9562378,217.0282593 270.9562378,189.0180664 295.2137756,203.0231628 295.2137756,231.0333405 "/>
<polygon class="st6" points="270.9562378,189.0180664 295.2137756,175.0129852 319.471283,189.0180664 295.2137756,203.0231628 "/>
<polygon class="st7" points="295.2137756,203.0231628 295.2137756,231.0333405 319.4712219,217.0282135 319.471283,189.0180664 "/>
<polygon class="st8" points="305.916748,181.1923676 281.6592102,195.1974792 284.5107422,196.8437653 308.76828,182.8386383 "/>
<polygon class="st9" points="281.6592102,195.1974792 281.6592102,200.464035 283.0849915,202.6038055 284.5107422,202.110321 
	284.5107422,196.8437653 "/>
<polygon class="st11" points="290.1038818,206.3425751 290.1038818,202.3068542 293.5783386,204.3128357 293.5783386,208.3485565 
	"/>
<polygon class="st7" points="317.907074,215.8598022 317.907074,212.865448 312.7142334,215.8635406 312.7142334,218.8578949 "/>
<polygon class="st5" points="332.6199341,220.3766174 332.6199341,192.3664398 356.8774719,206.3715363 356.8774719,234.3817139 "/>
<polygon class="st6" points="332.6199341,192.3664398 356.8774719,178.3613434 381.1349792,192.3664246 356.8774719,206.3715363 "/>
<polygon class="st12" points="356.8774719,206.3715363 356.8774719,234.3817139 381.1349487,220.3765869 381.1349792,192.3664246 
	"/>
<polygon class="st8" points="367.5804443,184.5407257 343.3229065,198.5458527 346.174469,200.1921387 370.4319763,186.1870117 "/>
<polygon class="st9" points="343.3229065,198.5458527 343.3229065,203.8124084 344.7486877,205.952179 346.174469,205.4586792 
	346.174469,200.1921387 "/>
<polygon class="st11" points="351.7675781,209.6909332 351.7675781,205.6552277 355.2420349,207.6612091 355.2420349,211.6969147 
	"/>
<polygon class="st7" points="379.5707703,219.2081757 379.5707703,216.2138214 374.3779297,219.2118988 374.3779297,222.2062683 "/>
<polygon class="st5" points="297.081543,231.3597412 297.081543,203.3495636 321.3390503,217.3546448 321.3390503,245.3648376 "/>
<polygon class="st6" points="297.081543,203.3495636 321.3390503,189.3444672 345.5965881,203.3495483 321.3390503,217.3546448 "/>
<polygon class="st12" points="321.3390503,217.3546448 321.3390503,245.3648376 345.5965271,231.3597107 345.5965881,203.3495483 
	"/>
<polygon class="st8" points="332.0420532,195.5238495 307.7845154,209.5289764 310.6360474,211.1752472 334.8935852,197.1701355 "/>
<polygon class="st9" points="307.7845154,209.5289764 307.7845154,214.795517 309.2102966,216.9353027 310.6360474,216.441803 
	310.6360474,211.1752472 "/>
<polygon class="st11" points="316.229187,220.674057 316.229187,216.6383362 319.7036438,218.6443176 319.7036438,222.6800385 "/>
<polygon class="st7" points="344.0323486,230.1912994 344.0323486,227.1969299 338.8395386,230.1950226 338.8395386,233.1893921 "/>
<polygon class="st5" points="300.8162537,193.2201538 300.8162537,165.2099762 325.0737915,179.2150726 325.0737915,207.2252502 "/>
<polygon class="st6" points="300.8162537,165.2099762 325.0737915,151.204895 349.3312988,165.2099762 325.0737915,179.2150726 "/>
<polygon class="st12" points="325.0737915,179.2150726 325.0737915,207.2252502 349.3312683,193.2201233 349.3312988,165.2099762 
	"/>
<polygon class="st8" points="335.7767639,157.3842773 311.5192261,171.389389 314.3707886,173.035675 338.6283264,159.0305481 "/>
<polygon class="st9" points="311.5192261,171.389389 311.5192261,176.6559448 312.9450073,178.7957153 314.3707886,178.3022156 
	314.3707886,173.035675 "/>
<polygon class="st11" points="319.9638977,182.5344849 319.9638977,178.498764 323.4383545,180.5047455 323.4383545,184.5404663 "/>
<polygon class="st7" points="347.7670898,192.051712 347.7670898,189.0573578 342.5742493,192.0554352 342.5742493,195.0498047 "/>
<polygon class="st0" points="77.1615829,246.8668823 149.9341736,204.8516083 222.7067719,246.8668823 149.9341736,288.8821716 "/>
<polygon class="st1" points="222.7067719,246.8668823 222.7067719,250.816803 149.9341736,292.8320618 149.9341736,288.8821716 "/>
<polygon class="st2" points="149.9341736,288.8821716 149.9341736,292.8320618 77.1615829,250.816803 77.1615829,246.8668823 "/>
<polygon class="st2" points="219.2365112,252.8203583 219.2365112,256.9167786 208.4243774,263.1591492 208.4243774,259.0627441 "/>
<polygon class="st2" points="191.726532,268.7012634 191.726532,272.7976685 180.9143982,279.0400391 180.9143982,274.943634 "/>
<polygon class="st2" points="160.7463074,286.5890808 160.7463074,290.6854858 149.9341736,296.927887 149.9341736,292.8314819 "/>
<polygon class="st3" points="139.1220398,286.5890808 139.1220398,290.6854858 149.9341736,296.927887 149.9341736,292.8314819 "/>
<polygon class="st3" points="208.4243774,263.1591492 204.8767853,261.1109314 208.4243774,259.0627441 "/>
<polygon class="st3" points="180.9143982,279.0400391 177.366806,276.9918518 180.9143982,274.943634 "/>
<polygon class="st3" points="80.6318359,252.8203583 80.6318359,256.9161682 91.4444885,263.158844 91.4444885,259.0630493 "/>
<polygon class="st4" points="91.4444885,263.158844 94.9915619,261.1109314 91.4444885,259.0630493 "/>
<polygon class="st3" points="108.1418152,268.6953125 108.1418152,272.7917175 118.9539413,279.0340881 118.9539413,274.9376831 "/>
<polygon class="st4" points="118.9539413,279.0340881 122.5015335,276.9859009 118.9539413,274.9376831 "/>
<polygon class="st5" points="107.0735092,229.597229 107.0735092,201.5870361 131.3310394,215.5921326 131.3310394,243.6023102 "/>
<polygon class="st6" points="107.0735092,201.5870361 131.3310394,187.581955 155.588562,201.5870361 131.3310394,215.5921326 "/>
<polygon class="st7" points="131.3310394,215.5921326 131.3310394,243.6023102 155.588501,229.5971832 155.588562,201.5870361 "/>
<polygon class="st8" points="142.0340271,193.7613373 117.7764893,207.766449 120.6280289,209.412735 144.8855591,195.407608 "/>
<polygon class="st9" points="117.7764893,207.766449 117.7764893,213.0330048 119.2022552,215.1727905 120.6280289,214.6792908 
	120.6280289,209.412735 "/>
<polygon class="st7" points="154.0243378,228.428772 154.0243378,225.4344177 148.8314972,228.4325104 148.8314972,231.4268646 "/>
<polygon class="st9" points="132.355484,243.010849 132.355484,215.0006714 156.6130219,229.0057526 156.6130219,257.0159302 "/>
<polygon class="st6" points="132.355484,215.0006714 156.6130066,200.995575 180.8705292,215.0006561 156.6130219,229.0057526 "/>
<polygon class="st7" points="156.6130219,229.0057526 156.6130219,257.0159302 180.8704834,243.0108032 180.8705292,215.0006561 "/>
<polygon class="st8" points="167.3159943,207.1749573 143.0584717,221.1800842 145.9100037,222.826355 170.1675415,208.8212433 "/>
<polygon class="st10" points="143.0584717,221.1800842 143.0584717,226.4466248 144.4842377,228.5864105 145.9100037,228.0929108 
	145.9100037,222.826355 "/>
<polygon class="st11" points="151.5031433,232.3251648 151.5031433,228.289444 154.9776001,230.2954254 154.9776001,234.3311462 "/>
<polygon class="st7" points="179.3063202,241.8424072 179.3063202,238.8480377 174.1134796,241.8461304 174.1134796,244.8404846 "/>
<polygon class="st5" points="80.6318359,244.863327 80.6318359,216.8531494 104.8893661,230.8582306 104.8893661,258.8684082 "/>
<polygon class="st6" points="80.6318359,216.8531494 104.8893585,202.848053 129.1468811,216.8531342 104.8893661,230.8582306 "/>
<polygon class="st12" points="104.8893661,230.8582306 104.8893661,258.8684082 129.1468353,244.8632965 129.1468811,216.8531342 
	"/>
<polygon class="st8" points="115.5923538,209.0274353 91.334816,223.0325623 94.1863556,224.6788483 118.4438934,210.6737213 "/>
<polygon class="st9" points="91.334816,223.0325623 91.334816,228.2991028 92.7605896,230.4388885 94.1863556,229.9453888 
	94.1863556,224.6788483 "/>
<polygon class="st11" points="99.7794876,234.1776428 99.7794876,230.1419373 103.2539444,232.1479034 103.2539444,236.1836243 "/>
<polygon class="st7" points="127.5826645,243.6948853 127.5826645,240.7005157 122.3898315,243.6986084 122.3898315,246.6929779 "/>
<polygon class="st5" points="107.0735016,257.6073914 107.0735016,229.597229 131.3310242,243.6023102 131.3310242,271.6124878 "/>
<polygon class="st6" points="107.0735016,229.597229 131.3310242,215.5921326 155.5885468,229.5972137 131.3310242,243.6023102 "/>
<polygon class="st12" points="131.3310242,243.6023102 131.3310242,271.6124878 155.588501,257.6073608 155.5885468,229.5972137 "/>
<polygon class="st8" points="142.0340118,221.7715149 117.7764816,235.7766418 120.6280212,237.4229126 144.8855438,223.4178009 "/>
<polygon class="st9" points="117.7764816,235.7766418 117.7764816,241.0431824 119.2022476,243.1829681 120.6280212,242.6894684 
	120.6280212,237.4229126 "/>
<polygon class="st11" points="126.2211456,246.9217224 126.2211456,242.8860016 129.6956024,244.891983 129.6956024,248.9277039 "/>
<polygon class="st7" points="154.0243225,256.4389648 154.0243225,253.4445953 148.8314972,256.442688 148.8314972,259.4370422 "/>
<polygon class="st9" points="161.029541,254.2862549 161.029541,226.2760773 185.2870789,240.2811737 185.2870789,268.2913513 "/>
<polygon class="st6" points="161.029541,226.2760773 185.2870636,212.2709961 209.5445862,226.2760773 185.2870789,240.2811737 "/>
<polygon class="st12" points="185.2870789,240.2811737 185.2870789,268.2913513 209.5445404,254.2862244 209.5445862,226.2760773 
	"/>
<polygon class="st8" points="195.9900513,218.4503784 171.7325287,232.4554901 174.5840607,234.1017761 198.8415985,220.0966492 "/>
<polygon class="st10" points="171.7325287,232.4554901 171.7325287,237.7220459 173.1582947,239.8618164 174.5840607,239.3683167 
	174.5840607,234.1017761 "/>
<polygon class="st13" points="180.1772003,243.6005859 180.1772003,239.5648651 183.6516571,241.5708466 183.6516571,245.6065674 
	"/>
<polygon class="st7" points="207.9803772,253.1178131 207.9803772,250.1234589 202.7875366,253.1215363 202.7875366,256.1159058 "/>
<polygon class="st5" points="134.1155853,269.8800049 134.1155853,241.8698273 158.3731079,255.8749084 158.3731079,283.8851013 "/>
<polygon class="st6" points="134.1155853,241.8698273 158.3731079,227.8647308 182.6306305,241.869812 158.3731079,255.8749084 "/>
<polygon class="st12" points="158.3731079,255.8749084 158.3731079,283.8851013 182.6305847,269.8799744 182.6306305,241.869812 "/>
<polygon class="st8" points="169.0760956,234.0441132 144.8185577,248.0492401 147.670105,249.6955109 171.9276276,235.6903992 "/>
<polygon class="st9" points="144.8185577,248.0492401 144.8185577,253.3157806 146.2443237,255.4555664 147.670105,254.9620667 
	147.670105,249.6955109 "/>
<polygon class="st11" points="153.2632294,259.1943359 153.2632294,255.1585999 156.7376862,257.1645813 156.7376862,261.2003174 
	"/>
<polygon class="st7" points="181.0664063,268.7115479 181.0664063,265.7171936 175.8735657,268.715271 175.8735657,271.7096558 "/>
<polygon class="st5" points="128.4380951,205.6358032 128.4380951,177.6256256 152.6956177,191.6307068 152.6956177,219.6408997 "/>
<polygon class="st6" points="128.4380951,177.6256256 152.6956177,163.6205292 176.9531403,177.6256104 152.6956177,191.6307068 "/>
<polygon class="st8" points="152.6956177,191.6307068 152.6956177,219.6408997 176.9530945,205.6357727 176.9531403,177.6256104 "/>
<polygon class="st8" points="163.3986053,169.7999115 139.1410675,183.8050385 141.9926147,185.4513092 166.2501526,171.4461975 "/>
<polygon class="st9" points="139.1410675,183.8050385 139.1410675,189.071579 140.5668488,191.2113647 141.9926147,190.717865 
	141.9926147,185.4513092 "/>
<polygon class="st11" points="147.5857391,194.950119 147.5857391,190.9143982 151.0601959,192.9203796 151.0601959,196.9561005 "/>
<polygon class="st7" points="175.3889313,204.4673615 175.3889313,201.4729919 170.1960907,204.4710846 170.1960907,207.4654541 "/>
<polygon class="st5" points="91.7924576,216.8531494 91.7924576,188.8429718 116.0499878,202.848053 116.0499878,230.8582458 "/>
<polygon class="st6" points="91.7924576,188.8429718 116.0499802,174.8378754 140.3075104,188.8429565 116.0499878,202.848053 "/>
<polygon class="st7" points="116.0499878,202.848053 116.0499878,230.8582458 140.3074646,216.8531036 140.3075104,188.8429565 "/>
<polygon class="st8" points="126.7529755,181.0172577 102.4954376,195.0223846 105.3469772,196.6686554 129.6045074,182.6635437 "/>
<polygon class="st9" points="102.4954376,195.0223846 102.4954376,200.2889252 103.9212112,202.4287109 105.3469772,201.9352112 
	105.3469772,196.6686554 "/>
<polygon class="st11" points="110.9401093,206.1674652 110.9401093,202.1317444 114.414566,204.1377258 114.414566,208.1734467 "/>
<polygon class="st7" points="138.7432861,215.6847076 138.7432861,212.6903381 133.5504608,215.6884308 133.5504608,218.682785 "/>
<polygon class="st5" points="153.4561615,220.2015076 153.4561615,192.19133 177.7136841,206.1964264 177.7136841,234.206604 "/>
<polygon class="st6" points="153.4561615,192.19133 177.7136841,178.1862488 201.9712067,192.19133 177.7136841,206.1964264 "/>
<polygon class="st12" points="177.7136841,206.1964264 177.7136841,234.206604 201.9711609,220.2014771 201.9712067,192.19133 "/>
<polygon class="st8" points="188.4166718,184.3656311 164.1591339,198.3707428 167.0106812,200.0170288 191.268219,186.0119019 "/>
<polygon class="st9" points="164.1591339,198.3707428 164.1591339,203.6372986 165.5849152,205.7770691 167.0106812,205.2835693 
	167.0106812,200.0170288 "/>
<polygon class="st11" points="172.6038055,209.5158386 172.6038055,205.4801178 176.0782623,207.4860992 176.0782623,211.5218201 
	"/>
<polygon class="st7" points="200.4069824,219.0330658 200.4069824,216.0387115 195.2141571,219.0368042 195.2141571,222.0311584 "/>
<polygon class="st5" points="117.9177551,231.1846313 117.9177551,203.1744537 142.1752777,217.1795502 142.1752777,245.1897278 "/>
<polygon class="st6" points="117.9177551,203.1744537 142.1752777,189.1693573 166.4328003,203.1744385 142.1752777,217.1795502 "/>
<polygon class="st12" points="142.1752777,217.1795502 142.1752777,245.1897278 166.4327545,231.1846008 166.4328003,203.1744385 
	"/>
<polygon class="st8" points="152.8782654,195.3487396 128.6207428,209.3538666 131.4722748,211.0001526 155.7298126,196.9950256 "/>
<polygon class="st9" points="128.6207428,209.3538666 128.6207428,214.6204071 130.0465088,216.7601929 131.4722748,216.2666931 
	131.4722748,211.0001526 "/>
<polygon class="st11" points="137.0653992,220.4989471 137.0653992,216.4632416 140.539856,218.4692078 140.539856,222.5049286 "/>
<polygon class="st7" points="164.8685913,230.0161896 164.8685913,227.0218201 159.6757507,230.0199127 159.6757507,233.0142822 "/>
<polygon class="st5" points="121.6524811,193.0450592 121.6524811,165.0348663 145.9100189,179.0399628 145.9100189,207.0501404 "/>
<polygon class="st6" points="121.6524811,165.0348663 145.9100037,151.0297852 170.1675262,165.0348663 145.9100189,179.0399628 "/>
<polygon class="st12" points="145.9100189,179.0399628 145.9100189,207.0501404 170.1674805,193.0450134 170.1675262,165.0348663 
	"/>
<polygon class="st8" points="156.6129913,157.2091675 132.3554688,171.2142792 135.2070007,172.8605652 159.4645386,158.8554382 "/>
<polygon class="st9" points="132.3554688,171.2142792 132.3554688,176.480835 133.7812347,178.6206207 135.2070007,178.127121 
	135.2070007,172.8605652 "/>
<polygon class="st11" points="140.8001404,182.359375 140.8001404,178.3236542 144.2745819,180.3296356 144.2745819,184.3653564 "/>
<polygon class="st7" points="168.6033173,191.8766174 168.6033173,188.8822479 163.4104767,191.8803406 163.4104767,194.8746948 "/>
<polygon class="st0" points="166.7371521,299.0445557 239.5097504,257.0292664 312.2823486,299.0445557 239.5097504,341.0598145 "/>
<polygon class="st1" points="312.2823486,299.0445557 312.2823486,302.9944763 239.5097504,345.0097351 239.5097504,341.0598145 "/>
<polygon class="st2" points="239.5097504,341.0598145 239.5097504,345.0097351 166.7371521,302.9944763 166.7371521,299.0445557 "/>
<polygon class="st2" points="308.8120728,304.9980164 308.8120728,309.0944214 297.9999695,315.3368225 297.9999695,311.2404175 "/>
<polygon class="st2" points="281.302124,320.8789063 281.302124,324.9753418 270.4899902,331.2177124 270.4899902,327.1213074 "/>
<polygon class="st2" points="250.3218842,338.7667542 250.3218842,342.8631592 239.5097504,349.1055603 239.5097504,345.0091248 "/>
<polygon class="st3" points="228.6976166,338.7667542 228.6976166,342.8631592 239.5097504,349.1055603 239.5097504,345.0091248 "/>
<polygon class="st3" points="297.9999695,315.3368225 294.4523621,313.2886047 297.9999695,311.2404175 "/>
<polygon class="st3" points="270.4899902,331.2177124 266.9423828,329.1695251 270.4899902,327.1213074 "/>
<polygon class="st3" points="170.2074127,304.9980164 170.2074127,309.093811 181.0200653,315.3365173 181.0200653,311.2407227 "/>
<polygon class="st4" points="181.0200653,315.3365173 184.5671387,313.2886047 181.0200653,311.2407227 "/>
<polygon class="st3" points="197.717392,320.8729858 197.717392,324.9693909 208.5295105,331.2117615 208.5295105,327.1153564 "/>
<polygon class="st4" points="208.5295105,331.2117615 212.0771179,329.1635742 208.5295105,327.1153564 "/>
<polygon class="st5" points="196.6490784,281.7749023 196.6490784,253.7647095 220.9066162,267.7698059 220.9066162,295.7799683 "/>
<polygon class="st6" points="196.6490784,253.7647095 220.906601,239.759613 245.1641388,253.7646942 220.9066162,267.7698059 "/>
<polygon class="st7" points="220.9066162,267.7698059 220.9066162,295.7799683 245.1640778,281.7748413 245.1641388,253.7646942 "/>
<polygon class="st8" points="231.6096039,245.9389954 207.352066,259.9441223 210.203598,261.5903931 234.4611359,247.5852814 "/>
<polygon class="st9" points="207.352066,259.9441223 207.352066,265.2106628 208.777832,267.3504639 210.203598,266.8569641 
	210.203598,261.5903931 "/>
<polygon class="st7" points="243.5999146,280.6064453 243.5999146,277.6120911 238.407074,280.6101685 238.407074,283.6045227 "/>
<polygon class="st9" points="221.9310608,295.1885071 221.9310608,267.1783447 246.1885986,281.1834106 246.1885986,309.1936035 "/>
<polygon class="st6" points="221.9310608,267.1783447 246.1885834,253.173233 270.446106,267.1783142 246.1885986,281.1834106 "/>
<polygon class="st7" points="246.1885986,281.1834106 246.1885986,309.1936035 270.4460754,295.1884766 270.446106,267.1783142 "/>
<polygon class="st8" points="256.891571,259.3526306 232.6340485,273.3577576 235.4855804,275.0040283 259.743103,260.9989014 "/>
<polygon class="st10" points="232.6340485,273.3577576 232.6340485,278.6242981 234.0598145,280.7640686 235.4855804,280.2705688 
	235.4855804,275.0040283 "/>
<polygon class="st11" points="241.0787201,284.5028381 241.0787201,280.4671021 244.5531769,282.4730835 244.5531769,286.5088196 
	"/>
<polygon class="st7" points="268.881897,294.0200806 268.881897,291.0256958 263.6890564,294.0238037 263.6890564,297.018158 "/>
<polygon class="st5" points="170.2074127,297.0409851 170.2074127,269.0308228 194.4649353,283.0359192 194.4649353,311.0460815 "/>
<polygon class="st6" points="170.2074127,269.0308228 194.4649353,255.0257263 218.7224579,269.0307922 194.4649353,283.0359192 "/>
<polygon class="st12" points="194.4649353,283.0359192 194.4649353,311.0460815 218.7224121,297.0409546 218.7224579,269.0307922 
	"/>
<polygon class="st8" points="205.167923,261.2051086 180.9104004,275.2102356 183.7619324,276.8565063 208.0194702,262.8513794 "/>
<polygon class="st9" points="180.9104004,275.2102356 180.9104004,280.4767761 182.3361664,282.6165466 183.7619324,282.1230469 
	183.7619324,276.8565063 "/>
<polygon class="st11" points="189.3550568,286.3553162 189.3550568,282.3196106 192.8295135,284.3255615 192.8295135,288.3612976 
	"/>
<polygon class="st7" points="217.1582489,295.8725586 217.1582489,292.8781738 211.9654083,295.8762817 211.9654083,298.870636 "/>
<polygon class="st5" points="196.6490784,309.7850647 196.6490784,281.7749023 220.906601,295.7799683 220.906601,323.7901611 "/>
<polygon class="st6" points="196.6490784,281.7749023 220.906601,267.7698059 245.1641235,281.7748718 220.906601,295.7799683 "/>
<polygon class="st12" points="220.906601,295.7799683 220.906601,323.7901611 245.1640778,309.7850342 245.1641235,281.7748718 "/>
<polygon class="st8" points="231.6095886,273.9491882 207.3520508,287.9543152 210.203598,289.6005859 234.4611206,275.595459 "/>
<polygon class="st9" points="207.3520508,287.9543152 207.3520508,293.2208557 208.7778168,295.3606262 210.203598,294.8671265 
	210.203598,289.6005859 "/>
<polygon class="st11" points="215.7967224,299.0993958 215.7967224,295.0636902 219.2711792,297.0696411 219.2711792,301.1053772 
	"/>
<polygon class="st7" points="243.5998993,308.6166382 243.5998993,305.6222534 238.407074,308.6203613 238.407074,311.6147156 "/>
<polygon class="st9" points="250.6051178,306.4639282 250.6051178,278.4537354 274.8626404,292.4588318 274.8626404,320.4690247 "/>
<polygon class="st6" points="250.6051178,278.4537354 274.8626404,264.4486694 299.1201782,278.4537354 274.8626404,292.4588318 "/>
<polygon class="st12" points="274.8626404,292.4588318 274.8626404,320.4690247 299.1201172,306.4638977 299.1201782,278.4537354 
	"/>
<polygon class="st8" points="285.5656433,270.6280518 261.3081055,284.6331482 264.1596375,286.2794495 288.4171753,272.2743225 "/>
<polygon class="st10" points="261.3081055,284.6331482 261.3081055,289.8997192 262.7338562,292.0394897 264.1596375,291.54599 
	264.1596375,286.2794495 "/>
<polygon class="st13" points="269.7527771,295.7782593 269.7527771,291.7425232 273.2272339,293.7485046 273.2272339,297.7842407 
	"/>
<polygon class="st7" points="297.5559387,305.2954712 297.5559387,302.3011169 292.3631287,305.2991943 292.3631287,308.2935791 "/>
<polygon class="st5" points="223.6911621,322.0576782 223.6911621,294.0474854 247.9486847,308.0525818 247.9486847,336.0627747 "/>
<polygon class="st6" points="223.6911621,294.0474854 247.9486847,280.0423889 272.2062073,294.0474854 247.9486847,308.0525818 "/>
<polygon class="st12" points="247.9486847,308.0525818 247.9486847,336.0627747 272.2061462,322.0576477 272.2062073,294.0474854 
	"/>
<polygon class="st8" points="258.6516724,286.2217712 234.3941345,300.2268982 237.2456818,301.8731689 261.5032043,287.8680725 "/>
<polygon class="st9" points="234.3941345,300.2268982 234.3941345,305.4934387 235.8199005,307.6332397 237.2456818,307.13974 
	237.2456818,301.8731689 "/>
<polygon class="st11" points="242.8388062,311.3719788 242.8388062,307.3362732 246.3132629,309.3422546 246.3132629,313.3779602 
	"/>
<polygon class="st7" points="270.6419983,320.8892212 270.6419983,317.8948669 265.4491577,320.8929443 265.4491577,323.8873291 "/>
<polygon class="st5" points="218.0136719,257.8134766 218.0136719,229.8032837 242.2711945,243.8083801 242.2711945,271.818573 "/>
<polygon class="st6" points="218.0136719,229.8032837 242.2711945,215.7982025 266.528717,229.8032837 242.2711945,243.8083801 "/>
<polygon class="st8" points="242.2711945,243.8083801 242.2711945,271.818573 266.528656,257.813446 266.528717,229.8032837 "/>
<polygon class="st8" points="252.9741821,221.9775848 228.7166443,235.9826965 231.5681915,237.6289825 255.8257294,223.6238556 "/>
<polygon class="st9" points="228.7166443,235.9826965 228.7166443,241.2492523 230.1424255,243.3890228 231.5681915,242.8955231 
	231.5681915,237.6289825 "/>
<polygon class="st11" points="237.1613159,247.1277924 237.1613159,243.0920715 240.6357727,245.098053 240.6357727,249.1337738 "/>
<polygon class="st7" points="264.9645081,256.6450195 264.9645081,253.6506653 259.7716675,256.6487427 259.7716675,259.6431274 "/>
<polygon class="st5" points="181.368042,269.0308228 181.368042,241.0206299 205.6255646,255.0257263 205.6255646,283.0359192 "/>
<polygon class="st6" points="181.368042,241.0206299 205.6255646,227.0155334 229.8830872,241.0206299 205.6255646,255.0257263 "/>
<polygon class="st7" points="205.6255646,255.0257263 205.6255646,283.0359192 229.8830261,269.0307922 229.8830872,241.0206299 "/>
<polygon class="st8" points="216.3285522,233.1949158 192.0710144,247.2000427 194.9225616,248.8463287 219.1800842,234.8412018 "/>
<polygon class="st9" points="192.0710144,247.2000427 192.0710144,252.4665985 193.4967804,254.606369 194.9225616,254.1128693 
	194.9225616,248.8463287 "/>
<polygon class="st11" points="200.515686,258.3451233 200.515686,254.3094177 203.9901428,256.3153992 203.9901428,260.3511047 "/>
<polygon class="st7" points="228.3188629,267.8623657 228.3188629,264.8680115 223.1260223,267.8660889 223.1260223,270.8604736 "/>
<polygon class="st5" points="243.0317383,272.3791809 243.0317383,244.3690033 267.2892761,258.3740845 267.2892761,286.3842773 "/>
<polygon class="st6" points="243.0317383,244.3690033 267.2892456,230.3639069 291.5467834,244.368988 267.2892761,258.3740845 "/>
<polygon class="st12" points="267.2892761,258.3740845 267.2892761,286.3842773 291.5467224,272.3791504 291.5467834,244.368988 "/>
<polygon class="st8" points="277.9922485,236.5432892 253.7347107,250.5484161 256.5862427,252.1947021 280.8437805,238.1895752 "/>
<polygon class="st9" points="253.7347107,250.5484161 253.7347107,255.8149567 255.1604919,257.9547424 256.5862427,257.4612427 
	256.5862427,252.1947021 "/>
<polygon class="st11" points="262.1793823,261.693512 262.1793823,257.6577759 265.6538391,259.6637573 265.6538391,263.6994934 "/>
<polygon class="st7" points="289.9825745,271.2107239 289.9825745,268.2163696 284.7897339,271.2144775 284.7897339,274.2088318 "/>
<polygon class="st5" points="207.4933319,283.3623047 207.4933319,255.3521118 231.7508545,269.3572083 231.7508545,297.3674011 "/>
<polygon class="st6" points="207.4933319,255.3521118 231.7508545,241.3470306 256.0083923,255.3521118 231.7508545,269.3572083 "/>
<polygon class="st12" points="231.7508545,269.3572083 231.7508545,297.3674011 256.0083313,283.3622742 256.0083923,255.3521118 
	"/>
<polygon class="st8" points="242.4538422,247.526413 218.1963196,261.5315247 221.0478516,263.1778259 245.3053894,249.1726837 "/>
<polygon class="st9" points="218.1963196,261.5315247 218.1963196,266.7980957 219.6220856,268.9378662 221.0478516,268.4443665 
	221.0478516,263.1778259 "/>
<polygon class="st11" points="226.640976,272.6766052 226.640976,268.6408997 230.1154327,270.6468811 230.1154327,274.6825867 "/>
<polygon class="st7" points="254.4441681,282.1938477 254.4441681,279.1994934 249.2513275,282.1975708 249.2513275,285.1919556 "/>
<polygon class="st5" points="211.2280579,245.2227173 211.2280579,217.2125397 235.4855957,231.2176361 235.4855957,259.2278137 "/>
<polygon class="st6" points="211.2280579,217.2125397 235.4855804,203.2074432 259.743103,217.2125244 235.4855957,231.2176361 "/>
<polygon class="st12" points="235.4855957,231.2176361 235.4855957,259.2278137 259.7430725,245.2226868 259.743103,217.2125244 "/>
<polygon class="st8" points="246.1885681,209.3868256 221.9310455,223.3919525 224.7825775,225.0382385 249.0401154,211.0331116 "/>
<polygon class="st9" points="221.9310455,223.3919525 221.9310455,228.6585083 223.3568115,230.7982788 224.7825775,230.3047791 
	224.7825775,225.0382385 "/>
<polygon class="st11" points="230.3757172,234.5370331 230.3757172,230.5013275 233.8501587,232.507309 233.8501587,236.5430145 "/>
<polygon class="st7" points="258.178894,244.0542755 258.178894,241.0599213 252.9860535,244.0579987 252.9860535,247.0523682 "/>
</svg>
