<?xml version="1.0" encoding="utf-8"?>
<!-- Generator: Adobe Illustrator 22.0.0, SVG Export Plug-In . SVG Version: 6.00 Build 0)  -->
<svg version="1.1" id="finnished_x5F_goods_x5F_small"
	 xmlns="http://www.w3.org/2000/svg" xmlns:xlink="http://www.w3.org/1999/xlink" x="0px" y="0px"
	 viewBox="0 0 479.0195007 437.7582092" style="enable-background:new 0 0 479.0195007 437.7582092;" xml:space="preserve">
<style type="text/css">
	.st0{fill:#3A3A3A;}
	.st1{fill:#333333;}
	.st2{fill:#292929;}
	.st3{fill:#1F1F1F;}
	.st4{fill:#141414;}
	.st5{fill:#D0D0D0;}
	.st6{fill:#ECECEC;}
	.st7{fill:#BDBDBD;}
	.st8{fill:#C6C6C6;}
	.st9{fill:#B3B3B3;}
	.st10{fill:#949494;}
	.st11{fill:#E6001E;}
	.st12{fill:#FFFFFF;}
	.st13{fill:#C1002A;}
</style>
<polygon class="st0" points="166.7497864,194.8643188 239.5223846,152.8490448 312.2949829,194.8643188 239.5223694,236.8795929 "/>
<polygon class="st1" points="312.2949829,194.8643188 312.2949829,198.8142395 239.5223694,240.8295135 239.5223694,236.8795929 "/>
<polygon class="st2" points="239.5223694,236.8795929 239.5223694,240.8295135 166.7497864,198.8142395 166.7497864,194.8643188 "/>
<polygon class="st2" points="308.824707,200.8177948 308.824707,204.9141998 298.0125732,211.1565857 298.0125732,207.0601807 "/>
<polygon class="st2" points="281.3147278,216.6987 281.3147278,220.795105 270.502594,227.0374908 270.502594,222.9410858 "/>
<polygon class="st2" points="250.3345032,234.5865326 250.3345032,238.6829376 239.5223694,244.9253235 239.5223694,240.8289185 "/>
<polygon class="st3" points="228.7102509,234.5865326 228.7102509,238.6829376 239.5223694,244.9253235 239.5223694,240.8289185 "/>
<polygon class="st3" points="298.0125732,211.1565857 294.4649963,209.1083832 298.0125732,207.0601807 "/>
<polygon class="st3" points="270.502594,227.0374908 266.9550171,224.9892883 270.502594,222.9410858 "/>
<polygon class="st3" points="170.220047,200.8177948 170.220047,204.9136047 181.0326996,211.1562805 181.0326996,207.0604858 "/>
<polygon class="st4" points="181.0326996,211.1562805 184.5797577,209.1083832 181.0326996,207.0604858 "/>
<polygon class="st3" points="197.730011,216.692749 197.730011,220.7891541 208.5421448,227.0315399 208.5421448,222.9351349 "/>
<polygon class="st4" points="208.5421448,227.0315399 212.0897369,224.9833374 208.5421448,222.9351349 "/>
<polygon class="st5" points="196.6617126,177.5946655 196.6617126,149.5844879 220.9192352,163.5895691 220.9192352,191.599762 "/>
<polygon class="st6" points="196.6617126,149.5844879 220.9192352,135.5793915 245.1767578,149.5844727 220.9192352,163.5895691 "/>
<polygon class="st7" points="220.9192352,163.5895691 220.9192352,191.599762 245.176712,177.594635 245.1767578,149.5844727 "/>
<polygon class="st8" points="231.6222229,141.7587738 207.3646851,155.7639008 210.2162323,157.4101715 234.4737549,143.4050598 "/>
<polygon class="st9" points="207.3646851,155.7639008 207.3646851,161.0304413 208.7904663,163.1702271 210.2162323,162.6767273 
	210.2162323,157.4101715 "/>
<polygon class="st7" points="243.6125336,176.4262238 243.6125336,173.4318542 238.4197083,176.4299469 238.4197083,179.4243164 "/>
<polygon class="st9" points="221.9436951,191.0082855 221.9436951,162.9981079 246.2012177,177.0031891 246.2012177,205.013382 "/>
<polygon class="st6" points="221.9436951,162.9981079 246.2012177,148.9930115 270.4587402,162.9980927 246.2012177,177.0031891 "/>
<polygon class="st7" points="246.2012177,177.0031891 246.2012177,205.013382 270.4586792,191.008255 270.4587402,162.9980927 "/>
<polygon class="st8" points="256.9042053,155.1723938 232.6466675,169.1775208 235.4982147,170.8237915 259.7557373,156.8186798 "/>
<polygon class="st10" points="232.6466675,169.1775208 232.6466675,174.4440613 234.0724335,176.583847 235.4982147,176.0903473 
	235.4982147,170.8237915 "/>
<polygon class="st11" points="241.0913391,180.3226013 241.0913391,176.2868958 244.5657959,178.2928619 244.5657959,182.3285828 
	"/>
<polygon class="st7" points="268.8945313,189.8398438 268.8945313,186.8454742 263.7016907,189.8435669 263.7016907,192.8379364 "/>
<polygon class="st5" points="170.220047,192.8607635 170.220047,164.8505859 194.4775696,178.8556824 194.4775696,206.86586 "/>
<polygon class="st6" points="170.220047,164.8505859 194.4775696,150.8454895 218.7350922,164.8505859 194.4775696,178.8556824 "/>
<polygon class="st12" points="194.4775696,178.8556824 194.4775696,206.86586 218.7350311,192.860733 218.7350922,164.8505859 "/>
<polygon class="st8" points="205.1805573,157.0248718 180.9230194,171.0299988 183.7745514,172.6762848 208.0320892,158.6711578 "/>
<polygon class="st9" points="180.9230194,171.0299988 180.9230194,176.2965546 182.3487854,178.4363251 183.7745514,177.9428253 
	183.7745514,172.6762848 "/>
<polygon class="st11" points="189.367691,182.1750793 189.367691,178.1393738 192.8421478,180.1453552 192.8421478,184.1810608 "/>
<polygon class="st7" points="217.1708679,191.6923218 217.1708679,188.6979675 211.9780273,191.6960449 211.9780273,194.6904144 "/>
<polygon class="st5" points="196.6616974,205.6048431 196.6616974,177.5946655 220.9192352,191.599762 220.9192352,219.6099396 "/>
<polygon class="st6" points="196.6616974,177.5946655 220.91922,163.5895691 245.1767426,177.5946503 220.9192352,191.599762 "/>
<polygon class="st12" points="220.9192352,191.599762 220.9192352,219.6099396 245.1766968,205.6048126 245.1767426,177.5946503 "/>
<polygon class="st8" points="231.6222076,169.7689514 207.3646851,183.7740784 210.216217,185.4203644 234.4737549,171.4152374 "/>
<polygon class="st9" points="207.3646851,183.7740784 207.3646851,189.0406342 208.790451,191.1804047 210.216217,190.6869049 
	210.216217,185.4203644 "/>
<polygon class="st11" points="215.8093567,194.9191589 215.8093567,190.8834534 219.2837982,192.8894348 219.2837982,196.9251404 
	"/>
<polygon class="st7" points="243.6125336,204.4364014 243.6125336,201.4420471 238.419693,204.4401245 238.419693,207.434494 "/>
<polygon class="st9" points="250.6177521,202.2837067 250.6177521,174.2735138 274.8752747,188.2786102 274.8752747,216.2887878 "/>
<polygon class="st6" points="250.6177521,174.2735138 274.8752747,160.2684326 299.132782,174.2735138 274.8752747,188.2786102 "/>
<polygon class="st12" points="274.8752747,188.2786102 274.8752747,216.2887878 299.1327515,202.2836609 299.132782,174.2735138 "/>
<polygon class="st8" points="285.5782471,166.4478149 261.3207397,180.4529266 264.1722717,182.0992126 288.4298096,168.0940857 "/>
<polygon class="st10" points="261.3207397,180.4529266 261.3207397,185.7194824 262.7464905,187.8592682 264.1722717,187.3657684 
	264.1722717,182.0992126 "/>
<polygon class="st13" points="269.7654114,191.5980225 269.7654114,187.5623016 273.2398376,189.5682831 273.2398376,193.6040039 
	"/>
<polygon class="st7" points="297.568573,201.1152496 297.568573,198.1208954 292.3757324,201.118988 292.3757324,204.1133423 "/>
<polygon class="st5" points="223.7037811,217.8774414 223.7037811,189.8672638 247.9613037,203.872345 247.9613037,231.8825378 "/>
<polygon class="st6" points="223.7037811,189.8672638 247.9613037,175.8621674 272.2188416,189.8672485 247.9613037,203.872345 "/>
<polygon class="st12" points="247.9613037,203.872345 247.9613037,231.8825378 272.2187805,217.8774109 272.2188416,189.8672485 "/>
<polygon class="st8" points="258.6643066,182.0415497 234.4067535,196.0466766 237.2583008,197.6929626 261.5158386,183.6878357 "/>
<polygon class="st9" points="234.4067535,196.0466766 234.4067535,201.3132172 235.8325348,203.4530029 237.2583008,202.9595032 
	237.2583008,197.6929626 "/>
<polygon class="st11" points="242.8514252,207.1917572 242.8514252,203.1560516 246.325882,205.1620178 246.325882,209.1977386 "/>
<polygon class="st7" points="270.6546021,216.7089996 270.6546021,213.7146301 265.4617615,216.7127228 265.4617615,219.7070923 "/>
<polygon class="st5" points="218.0262909,153.6332397 218.0262909,125.6230621 242.2838287,139.6281433 242.2838287,167.6383362 "/>
<polygon class="st6" points="218.0262909,125.6230621 242.2838135,111.6179657 266.5413513,125.6230545 242.2838287,139.6281433 "/>
<polygon class="st8" points="242.2838287,139.6281433 242.2838287,167.6383362 266.5412903,153.6332092 266.5413513,125.6230545 "/>
<polygon class="st8" points="252.9868011,117.797348 228.7292786,131.802475 231.5808105,133.448761 255.8383484,119.443634 "/>
<polygon class="st9" points="228.7292786,131.802475 228.7292786,137.0690155 230.1550446,139.2088013 231.5808105,138.7153015 
	231.5808105,133.448761 "/>
<polygon class="st11" points="237.1739502,142.9475555 237.1739502,138.91185 240.648407,140.9178162 240.648407,144.953537 "/>
<polygon class="st7" points="264.9771118,152.464798 264.9771118,149.4704285 259.7843018,152.4685211 259.7843018,155.4628906 "/>
<polygon class="st5" points="181.380661,164.8505859 181.380661,136.8404083 205.6381836,150.8454895 205.6381836,178.8556824 "/>
<polygon class="st6" points="181.380661,136.8404083 205.6381836,122.8353119 229.8957062,136.8403931 205.6381836,150.8454895 "/>
<polygon class="st7" points="205.6381836,150.8454895 205.6381836,178.8556824 229.8956604,164.8505554 229.8957062,136.8403931 "/>
<polygon class="st8" points="216.3411713,129.0146942 192.0836487,143.0198212 194.9351807,144.6660919 219.1927185,130.6609802 "/>
<polygon class="st9" points="192.0836487,143.0198212 192.0836487,148.2863617 193.5094147,150.4261475 194.9351807,149.9326477 
	194.9351807,144.6660919 "/>
<polygon class="st11" points="200.5283051,154.1649017 200.5283051,150.1291962 204.0027618,152.1351624 204.0027618,156.1708832 
	"/>
<polygon class="st7" points="228.3314972,163.6821442 228.3314972,160.6877747 223.1386566,163.6858673 223.1386566,166.6802368 "/>
<polygon class="st5" points="243.0443573,168.1989594 243.0443573,140.1887817 267.3018799,154.1938629 267.3018799,182.2040558 "/>
<polygon class="st6" points="243.0443573,140.1887817 267.3018799,126.1836853 291.5594177,140.1887665 267.3018799,154.1938629 "/>
<polygon class="st12" points="267.3018799,154.1938629 267.3018799,182.2040558 291.5593567,168.1989136 291.5594177,140.1887665 
	"/>
<polygon class="st8" points="278.0048828,132.3630676 253.747345,146.3681946 256.598877,148.0144653 280.8564148,134.0093536 "/>
<polygon class="st9" points="253.747345,146.3681946 253.747345,151.6347351 255.173111,153.7745209 256.598877,153.2810211 
	256.598877,148.0144653 "/>
<polygon class="st11" points="262.1920166,157.5132751 262.1920166,153.4775543 265.6664734,155.4835358 265.6664734,159.5192566 
	"/>
<polygon class="st7" points="289.9951782,167.0305176 289.9951782,164.0361481 284.8023682,167.0342407 284.8023682,170.028595 "/>
<polygon class="st5" points="207.5059662,179.1820679 207.5059662,151.1718903 231.7634888,165.1769867 231.7634888,193.1871643 "/>
<polygon class="st6" points="207.5059662,151.1718903 231.7634888,137.1668091 256.0209961,151.1718903 231.7634888,165.1769867 "/>
<polygon class="st12" points="231.7634888,165.1769867 231.7634888,193.1871643 256.0209656,179.1820374 256.0209961,151.1718903 
	"/>
<polygon class="st8" points="242.4664764,143.3461914 218.2089386,157.3513031 221.0604706,158.9975891 245.3180084,144.9924622 "/>
<polygon class="st9" points="218.2089386,157.3513031 218.2089386,162.6178589 219.6347046,164.7576294 221.0604706,164.2641296 
	221.0604706,158.9975891 "/>
<polygon class="st11" points="226.6536102,168.4963989 226.6536102,164.4606781 230.128067,166.4666595 230.128067,170.5023804 "/>
<polygon class="st7" points="254.4567871,178.0136261 254.4567871,175.0192719 249.2639465,178.0173492 249.2639465,181.0117188 "/>
<polygon class="st5" points="211.2406921,141.0424957 211.2406921,113.0323105 235.4982147,127.0374069 235.4982147,155.0475922 "/>
<polygon class="st6" points="211.2406921,113.0323105 235.4982147,99.0272217 259.7557373,113.0323029 235.4982147,127.0374069 "/>
<polygon class="st12" points="235.4982147,127.0374069 235.4982147,155.0475922 259.7556763,141.0424652 259.7557373,113.0323029 
	"/>
<polygon class="st8" points="246.2012024,105.206604 221.9436646,119.2117233 224.7952118,120.8580093 249.0527344,106.8528824 "/>
<polygon class="st9" points="221.9436646,119.2117233 221.9436646,124.4782791 223.3694305,126.6180573 224.7952118,126.1245575 
	224.7952118,120.8580093 "/>
<polygon class="st11" points="230.3883362,130.3568115 230.3883362,126.3210983 233.862793,128.3270721 233.862793,132.362793 "/>
<polygon class="st7" points="258.1915283,139.874054 258.1915283,136.8796844 252.9986725,139.8777771 252.9986725,142.8721466 "/>
</svg>
