<?xml version="1.0" encoding="utf-8"?>
<!-- Generator: Adobe Illustrator 22.0.0, SVG Export Plug-In . SVG Version: 6.00 Build 0)  -->
<svg version="1.1" id="Machine_x5F_Red" xmlns="http://www.w3.org/2000/svg" xmlns:xlink="http://www.w3.org/1999/xlink" x="0px"
	 y="0px" viewBox="0 0 479.9954834 438.8007813" style="enable-background:new 0 0 479.9954834 438.8007813;" xml:space="preserve">
<style type="text/css">
	.st0{fill:#E26161;}
	.st1{fill:#AD4444;}
	.st2{fill:#D05757;}
	.st3{fill:#893030;}
	.st4{fill:#BE4D4D;}
	.st5{fill:#9B3A3A;}
</style>
<polygon class="st0" points="199.9924469,184.7641144 199.9924469,254.0461578 299.9924622,196.3111267 299.9924622,127.0290909 "/>
<polygon class="st1" points="199.9924469,184.7641144 139.9924469,150.1231079 139.9924469,219.4051361 199.9924469,254.0461578 "/>
<polygon class="st2" points="139.9924469,150.1231079 199.9924469,184.7641144 299.9924622,127.0290909 239.9924469,92.3880768 "/>
<polygon class="st3" points="139.9924469,219.4051361 139.9924469,207.809967 199.9924469,242.4509888 199.9924469,254.0461578 "/>
<polygon class="st4" points="199.9924469,242.4509888 199.9924469,254.0461578 299.9924622,196.3111267 299.9924622,184.7782898 "/>
<polygon class="st4" points="239.9924469,184.7641144 279.9924622,161.670105 279.990509,184.7652435 239.9924469,207.8603821 "/>
<polygon class="st1" points="279.990509,184.7652435 274.9004211,181.824234 239.9924469,201.9803314 239.9924469,207.8603821 "/>
<polygon class="st5" points="274.9004211,181.824234 274.9004211,164.6099854 279.9924622,161.670105 279.990509,184.7652435 "/>
<polygon class="st4" points="285.8784485,158.257309 292.8010864,154.2750397 292.7991333,168.6588898 285.8784485,172.6640778 "/>
<polygon class="st0" points="287.26297,159.0750275 288.6474915,158.2756653 288.6474915,159.8743896 287.26297,160.6737366 "/>
<polygon class="st0" points="290.0320129,157.4763184 291.4165649,156.6769562 291.4165649,158.2756653 290.0320129,159.0750275 "/>
<polygon class="st0" points="287.26297,162.2724457 288.6474915,161.4730988 288.6474915,163.0718079 287.26297,163.8711548 "/>
<polygon class="st0" points="290.0320129,160.6737366 291.4165649,159.8743896 291.4165649,161.4730988 290.0320129,162.2724457 "/>
<polygon class="st0" points="287.26297,165.4698792 288.6474915,164.670517 288.6474915,166.2692261 287.26297,167.0685883 "/>
<polygon class="st0" points="290.0320129,163.8711548 291.4165649,163.0718079 291.4165649,164.670517 290.0320129,165.4698792 "/>
<polygon class="st0" points="287.26297,168.6672974 288.6474915,167.8679352 288.6474915,169.4666595 287.26297,170.2660065 "/>
<polygon class="st0" points="290.0320129,167.0685883 291.4165649,166.2692261 291.4165649,167.8679352 290.0320129,168.6672974 "/>
</svg>
