<?xml version="1.0" encoding="utf-8"?>
<!-- Generator: Adobe Illustrator 22.0.0, SVG Export Plug-In . SVG Version: 6.00 Build 0)  -->
<svg version="1.1" id="crossroad_1_" xmlns="http://www.w3.org/2000/svg" xmlns:xlink="http://www.w3.org/1999/xlink" x="0px"
	 y="0px" viewBox="0 0 479.0195007 437.7582092" style="enable-background:new 0 0 479.0195007 437.7582092;" xml:space="preserve">
<style type="text/css">
	.st0{fill:#FFFFFF;}
</style>
<polygon class="st0" points="239.5097504,249.7560577 233.510788,246.29216 310.2051086,202.0121613 316.2052002,205.4763184 "/>
<polygon class="st0" points="331.6291809,302.9408569 325.6299133,299.4771729 402.324707,255.1974335 408.3242493,258.6609497 "/>
<polygon class="st0" points="402.3249817,343.7568054 325.6293335,299.4775085 331.629425,296.0133362 408.3242493,340.2930908 "/>
<polygon class="st0" points="310.2017517,396.9441528 233.5076904,352.6639099 239.5069122,349.2002563 316.2009888,393.4804993 "/>
<polygon class="st0" points="76.6945801,343.7568359 70.6956253,340.2929382 147.3890839,296.0139771 153.3892059,299.4781494 "/>
<polygon class="st0" points="168.8141479,396.9420776 162.8148804,393.4783936 239.5069122,349.2002563 245.506485,352.6637878 "/>
<polygon class="st0" points="239.5103912,249.7557983 162.8143463,205.4762878 168.8144379,202.0121307 245.5096741,246.2921143 "/>
<polygon class="st0" points="147.3899689,302.941803 70.6956253,258.6610718 76.6948471,255.197403 153.3892059,299.4781494 "/>
</svg>
