<?xml version="1.0" encoding="utf-8"?>
<!-- Generator: Adobe Illustrator 22.0.0, SVG Export Plug-In . SVG Version: 6.00 Build 0)  -->
<svg version="1.1" id="warehouse_x5F_big" xmlns="http://www.w3.org/2000/svg" xmlns:xlink="http://www.w3.org/1999/xlink" x="0px"
	 y="0px" viewBox="0 0 479.0195007 437.7582092" style="enable-background:new 0 0 479.0195007 437.7582092;" xml:space="preserve">
<style type="text/css">
	.st0{fill:#A3A3A3;}
	.st1{fill:#949494;}
	.st2{fill:#B3B3B3;}
	.st3{fill:#848484;}
	.st4{fill:#3A3A3A;}
	.st5{fill:#333333;}
	.st6{fill:#292929;}
	.st7{fill:#D0D0D0;}
	.st8{fill:#ECECEC;}
	.st9{fill:#FFFFFF;}
	.st10{fill:#C6C6C6;}
	.st11{fill:#E6001E;}
	.st12{fill:#BDBDBD;}
	.st13{display:none;}
	.st14{display:inline;fill:#D0D0D0;}
	.st15{display:inline;fill:#ECECEC;}
	.st16{display:inline;fill:#FFFFFF;}
	.st17{display:inline;fill:#C6C6C6;}
	.st18{display:inline;fill:#B3B3B3;}
	.st19{display:inline;fill:#E6001E;}
	.st20{display:inline;fill:#BDBDBD;}
</style>
<polygon class="st0" points="239.865387,163.3687897 239.865387,11.7473431 241.5691223,10.7636976 241.5691223,162.3851318 "/>
<polygon class="st1" points="239.865387,163.3687897 239.865387,11.7473431 238.1616516,10.7636976 238.1616516,162.3851318 "/>
<polygon class="st2" points="239.865387,11.7473431 238.1616516,10.7636976 239.865387,9.7800522 241.5691223,10.7636976 "/>
<polygon class="st3" points="213.9425201,166.6321259 213.9425201,168.5931702 239.5205841,126.2516785 239.5205841,124.2906418 "/>
<polygon class="st0" points="239.5205841,124.2906418 213.9425201,166.6321259 213.0262146,166.1031036 238.6042786,123.7616119 "/>
<polygon class="st3" points="213.9425201,139.058136 239.5205841,152.0429688 239.5205841,153.8256531 213.9425201,140.8408203 "/>
<polygon class="st3" points="213.9425201,133.1316223 213.9425201,135.0926666 239.5205841,92.7511749 239.5205841,90.7901382 "/>
<polygon class="st0" points="239.5205841,90.7901382 213.9425201,133.1316223 213.0262146,132.6026001 238.6042786,90.2611084 "/>
<polygon class="st3" points="213.9425201,105.5576401 239.5205841,118.5424728 239.5205841,120.3251572 213.9425201,107.3403244 "/>
<polygon class="st3" points="213.9425201,99.1830063 213.9425201,101.1440506 239.5205841,58.8025627 239.5205841,56.8415222 "/>
<polygon class="st0" points="239.5205841,56.8415222 213.9425201,99.1830063 213.0262146,98.6539841 238.6042786,56.3124962 "/>
<polygon class="st3" points="213.9425201,71.609024 239.5205841,84.5938568 239.5205841,86.3765411 213.9425201,73.3917084 "/>
<polygon class="st3" points="213.9425201,66.2193069 213.9425201,68.1803436 239.5205841,25.8388577 239.5205841,23.877821 "/>
<polygon class="st0" points="239.5205841,23.877821 213.9425201,66.2193069 213.0262146,65.6902771 238.6042786,23.348793 "/>
<polygon class="st3" points="213.9425201,38.6453209 239.5205841,51.6301537 239.5205841,53.412838 213.9425201,40.4280014 "/>
<polygon class="st0" points="212.582428,179.141098 212.582428,27.5196476 214.2861633,26.5360012 214.2861633,178.1574402 "/>
<polygon class="st1" points="212.582428,179.141098 212.582428,27.5196476 210.8786926,26.5360012 210.8786926,178.1574402 "/>
<polygon class="st2" points="212.582428,27.5196476 210.8786926,26.5360012 212.582428,25.5523567 214.2861633,26.5360012 "/>
<polygon class="st4" points="212.582428,169.7011414 241.5691071,152.9656677 357.5158386,219.907547 328.5291443,236.6430206 "/>
<polygon class="st4" points="212.582428,171.2744598 241.5691071,154.5390015 357.5158386,221.4808807 328.5291443,238.2163391 "/>
<polygon class="st5" points="357.5158386,219.907547 357.5158386,221.4808807 328.5291443,238.2163391 328.5291443,236.6430206 "/>
<polygon class="st6" points="328.5291443,238.2163391 328.5291443,236.6430206 212.582428,169.7011414 212.582428,171.2744598 "/>
<polygon class="st7" points="223.0176392,169.5508575 223.0176392,148.1294556 241.5691071,158.8401642 241.5691071,180.2615509 "/>
<polygon class="st8" points="223.0176392,148.1294556 241.5691071,137.4187622 260.120575,148.1294556 241.5691071,158.8401642 "/>
<polygon class="st9" points="241.5691071,158.8401642 241.5691071,180.2615509 260.1205444,169.550827 260.120575,148.1294556 "/>
<polygon class="st10" points="249.7544556,142.144577 231.2029724,152.8553009 233.3837433,154.1143341 251.9352264,143.4036102 "/>
<polygon class="st2" points="231.2029724,152.8553009 231.2029724,156.8830109 232.2933655,158.519455 233.3837433,158.1420441 
	233.3837433,154.1143341 "/>
<polygon class="st11" points="237.6612091,161.3787537 237.6612091,158.2923431 240.3183746,159.8264618 240.3183746,162.9128723 
	"/>
<polygon class="st12" points="258.9243164,168.6572571 258.9243164,166.3672638 254.9529724,168.6601105 254.9529724,170.950119 "/>
<polygon class="st7" points="252.004303,186.2863312 252.004303,164.8649292 270.5557861,175.5756226 270.5557861,196.9970245 "/>
<polygon class="st8" points="252.004303,164.8649292 270.5557861,154.1542358 289.1072388,164.8649139 270.5557861,175.5756226 "/>
<polygon class="st9" points="270.5557861,175.5756226 270.5557861,196.9970245 289.1072083,186.2863007 289.1072388,164.8649139 "/>
<polygon class="st10" points="278.7411194,158.8800507 260.1896362,169.5907745 262.3704224,170.8497925 280.9219055,160.1390686 
	"/>
<polygon class="st2" points="260.1896362,169.5907745 260.1896362,173.6184845 261.2800293,175.2549286 262.3704224,174.8775024 
	262.3704224,170.8497925 "/>
<polygon class="st11" points="266.6478882,178.114212 266.6478882,175.0278168 269.3050537,176.5619354 269.3050537,179.6483307 "/>
<polygon class="st12" points="287.9109802,185.3927307 287.9109802,183.1027374 283.9396362,185.3955841 283.9396362,187.6855927 
	"/>
<polygon class="st7" points="280.9909973,203.0217896 280.9909973,181.6004028 299.5424805,192.3110962 299.5424805,213.7324982 "/>
<polygon class="st8" points="280.9909973,181.6004028 299.5424805,170.8896942 318.0939331,181.6003876 299.5424805,192.3110962 "/>
<polygon class="st9" points="299.5424805,192.3110962 299.5424805,213.7324982 318.0939026,203.0217743 318.0939331,181.6003876 "/>
<polygon class="st10" points="307.7278137,175.615509 289.1763306,186.3262329 291.3571167,187.5852661 309.9085999,176.8745422 "/>
<polygon class="st2" points="289.1763306,186.3262329 289.1763306,190.3539429 290.2667236,191.990387 291.3571167,191.6129761 
	291.3571167,187.5852661 "/>
<polygon class="st11" points="295.6345825,194.8496857 295.6345825,191.7632904 298.291748,193.2973938 298.291748,196.3838043 "/>
<polygon class="st12" points="316.8976746,202.1282043 316.8976746,199.8381958 312.9263306,202.1310577 312.9263306,204.421051 "/>
<polygon class="st7" points="309.9776917,219.7572632 309.9776917,198.3358612 328.5291748,209.0465698 328.5291748,230.4679718 "/>
<polygon class="st8" points="309.9776917,198.3358612 328.5291443,187.6251678 347.0806274,198.3358612 328.5291748,209.0465698 "/>
<polygon class="st9" points="328.5291748,209.0465698 328.5291748,230.4679718 347.0805969,219.7572327 347.0806274,198.3358612 "/>
<polygon class="st10" points="336.7145081,192.3509827 318.1630249,203.0617065 320.343811,204.3207397 338.8952637,193.6100159 "/>
<polygon class="st2" points="318.1630249,203.0617065 318.1630249,207.0894165 319.253418,208.7258606 320.343811,208.3484497 
	320.343811,204.3207397 "/>
<polygon class="st11" points="324.6212769,211.5851593 324.6212769,208.4987488 327.2784424,210.0328674 327.2784424,213.119278 "/>
<polygon class="st12" points="345.8843689,218.863678 345.8843689,216.5736694 341.9130249,218.8665161 341.9130249,221.1565247 "/>
<polygon class="st4" points="212.582428,136.2301941 241.5691071,119.4947281 357.5158386,186.436615 328.5291443,203.1720734 "/>
<polygon class="st4" points="212.582428,137.8035278 241.5691071,121.0680542 357.5158386,188.0099335 328.5291443,204.7454071 "/>
<polygon class="st5" points="357.5158386,186.436615 357.5158386,188.0099335 328.5291443,204.7454071 328.5291443,203.1720734 "/>
<polygon class="st6" points="328.5291443,204.7454071 328.5291443,203.1720734 212.582428,136.2301941 212.582428,137.8035278 "/>
<polygon class="st7" points="223.0176392,136.0799103 223.0176392,114.6585159 241.5691071,125.3692169 241.5691071,146.7906189 "/>
<polygon class="st8" points="223.0176392,114.6585159 241.5691071,103.9478149 260.120575,114.6585083 241.5691071,125.3692169 "/>
<polygon class="st9" points="241.5691071,125.3692169 241.5691071,146.7906189 260.1205444,136.079895 260.120575,114.6585083 "/>
<polygon class="st10" points="249.7544556,108.6736374 231.2029724,119.3843613 233.3837433,120.6433868 251.9352264,109.932663 "/>
<polygon class="st2" points="231.2029724,119.3843613 231.2029724,123.4120712 232.2933655,125.0485077 233.3837433,124.6710968 
	233.3837433,120.6433868 "/>
<polygon class="st11" points="237.6612091,127.9078064 237.6612091,124.8214035 240.3183746,126.3555222 240.3183746,129.441925 "/>
<polygon class="st12" points="258.9243164,135.1863251 258.9243164,132.8963165 254.9529724,135.1891785 254.9529724,137.479187 "/>
<polygon class="st7" points="252.004303,152.8153839 252.004303,131.3939819 270.5557861,142.1046906 270.5557861,163.5260925 "/>
<polygon class="st8" points="252.004303,131.3939819 270.5557861,120.6832886 289.1072388,131.3939819 270.5557861,142.1046906 "/>
<polygon class="st9" points="270.5557861,142.1046906 270.5557861,163.5260925 289.1072083,152.8153687 289.1072388,131.3939819 "/>
<polygon class="st10" points="278.7411194,125.4091034 260.1896362,136.1198273 262.3704224,137.3788605 280.9219055,126.6681366 
	"/>
<polygon class="st2" points="260.1896362,136.1198273 260.1896362,140.1475372 261.2800293,141.7839813 262.3704224,141.4065704 
	262.3704224,137.3788605 "/>
<polygon class="st11" points="266.6478882,144.64328 266.6478882,141.5568848 269.3050537,143.0909882 269.3050537,146.1773987 "/>
<polygon class="st12" points="287.9109802,151.9217987 287.9109802,149.6317902 283.9396362,151.9246368 283.9396362,154.2146454 
	"/>
<polygon class="st7" points="280.9909973,169.5508575 280.9909973,148.1294556 299.5424805,158.8401489 299.5424805,180.2615509 "/>
<polygon class="st8" points="280.9909973,148.1294556 299.5424805,137.4187622 318.0939331,148.1294556 299.5424805,158.8401489 "/>
<polygon class="st9" points="299.5424805,158.8401489 299.5424805,180.2615509 318.0939026,169.550827 318.0939331,148.1294556 "/>
<polygon class="st10" points="307.7278137,142.144577 289.1763306,152.8553009 291.3571167,154.1143341 309.9085999,143.4036102 "/>
<polygon class="st2" points="289.1763306,152.8553009 289.1763306,156.8830109 290.2667236,158.519455 291.3571167,158.1420288 
	291.3571167,154.1143341 "/>
<polygon class="st11" points="295.6345825,161.3787537 295.6345825,158.2923431 298.291748,159.8264618 298.291748,162.9128571 "/>
<polygon class="st12" points="316.8976746,168.6572571 316.8976746,166.3672638 312.9263306,168.6601105 312.9263306,170.950119 "/>
<polygon class="st7" points="309.9776917,186.2863312 309.9776917,164.8649292 328.5291748,175.5756226 328.5291748,196.9970245 "/>
<polygon class="st8" points="309.9776917,164.8649292 328.5291443,154.1542206 347.0806274,164.8649139 328.5291748,175.5756226 "/>
<polygon class="st9" points="328.5291748,175.5756226 328.5291748,196.9970245 347.0805969,186.2863007 347.0806274,164.8649139 "/>
<polygon class="st10" points="336.7145081,158.8800507 318.1630249,169.5907745 320.343811,170.8497925 338.8952637,160.1390686 "/>
<polygon class="st2" points="318.1630249,169.5907745 318.1630249,173.6184692 319.253418,175.2549133 320.343811,174.8775024 
	320.343811,170.8497925 "/>
<polygon class="st11" points="324.6212769,178.114212 324.6212769,175.0278168 327.2784424,176.5619354 327.2784424,179.6483307 "/>
<polygon class="st12" points="345.8843689,185.3927307 345.8843689,183.1027222 341.9130249,185.3955841 341.9130249,187.6855927 
	"/>
<polygon class="st4" points="212.582428,102.7592545 241.5691071,86.0237885 357.5158386,152.9656677 328.5291748,169.7011414 "/>
<polygon class="st4" points="212.582428,104.3325806 241.5691071,87.5971146 357.5158386,154.5389862 328.5291748,171.2744598 "/>
<polygon class="st5" points="357.5158386,152.9656677 357.5158386,154.5389862 328.5291748,171.2744598 328.5291748,169.7011414 "/>
<polygon class="st6" points="328.5291748,171.2744598 328.5291748,169.7011414 212.582428,102.7592545 212.582428,104.3325806 "/>
<polygon class="st7" points="223.0176392,102.6089783 223.0176392,81.1875763 241.5691071,91.8982773 241.5691071,113.3196793 "/>
<polygon class="st8" points="223.0176392,81.1875763 241.5691071,70.4768753 260.120575,81.1875687 241.5691071,91.8982773 "/>
<polygon class="st9" points="241.5691071,91.8982773 241.5691071,113.3196793 260.1205444,102.6089478 260.120575,81.1875687 "/>
<polygon class="st10" points="249.7544556,75.2026978 231.2029724,85.9134216 233.3837433,87.1724472 251.9352264,76.4617233 "/>
<polygon class="st2" points="231.2029724,85.9134216 231.2029724,89.941124 232.2933655,91.5775681 233.3837433,91.2001572 
	233.3837433,87.1724472 "/>
<polygon class="st11" points="237.6612244,94.4368668 237.6612244,91.3504639 240.3183899,92.8845825 240.3183899,95.9709854 "/>
<polygon class="st12" points="258.9243164,101.7153854 258.9243164,99.4253769 254.9529724,101.7182312 254.9529724,104.0082397 "/>
<polygon class="st7" points="252.0043182,119.3444443 252.0043182,97.9230499 270.5557861,108.6337433 270.5557861,130.0551453 "/>
<polygon class="st8" points="252.0043182,97.9230499 270.5557861,87.2123489 289.1072693,97.9230423 270.5557861,108.6337433 "/>
<polygon class="st9" points="270.5557861,108.6337433 270.5557861,130.0551453 289.1072083,119.3444214 289.1072693,97.9230423 "/>
<polygon class="st10" points="278.7411194,91.9381638 260.1896362,102.6488876 262.3704224,103.9079208 280.9219055,93.197197 "/>
<polygon class="st2" points="260.1896362,102.6488876 260.1896362,106.6765976 261.2800293,108.3130417 262.3704224,107.9356232 
	262.3704224,103.9079208 "/>
<polygon class="st11" points="266.6478882,111.1723404 266.6478882,108.0859375 269.3050537,109.6200485 269.3050537,112.706459 "/>
<polygon class="st12" points="287.9109802,118.4508514 287.9109802,116.1608505 283.9396362,118.4537048 283.9396362,120.7437057 
	"/>
<polygon class="st7" points="280.9909973,136.0799103 280.9909973,114.6585159 299.5424805,125.3692169 299.5424805,146.7906189 "/>
<polygon class="st8" points="280.9909973,114.6585159 299.5424805,103.9478149 318.0939331,114.6585083 299.5424805,125.3692169 "/>
<polygon class="st9" points="299.5424805,125.3692169 299.5424805,146.7906189 318.0939026,136.0798798 318.0939331,114.6585083 "/>
<polygon class="st10" points="307.7278137,108.6736298 289.1763306,119.3843536 291.3571167,120.6433868 309.9085999,109.932663 "/>
<polygon class="st2" points="289.1763306,119.3843536 289.1763306,123.4120636 290.2667236,125.0485077 291.3571167,124.6710968 
	291.3571167,120.6433868 "/>
<polygon class="st11" points="295.6345825,127.9078064 295.6345825,124.8214035 298.291748,126.3555222 298.291748,129.441925 "/>
<polygon class="st12" points="316.8976746,135.1863251 316.8976746,132.8963165 312.9263306,135.1891632 312.9263306,137.4791718 
	"/>
<polygon class="st7" points="309.9776917,152.8153839 309.9776917,131.3939819 328.5291748,142.1046906 328.5291748,163.5260925 "/>
<polygon class="st8" points="309.9776917,131.3939819 328.5291748,120.6832886 347.0806274,131.3939819 328.5291748,142.1046906 "/>
<polygon class="st9" points="328.5291748,142.1046906 328.5291748,163.5260925 347.0805969,152.8153534 347.0806274,131.3939819 "/>
<polygon class="st10" points="336.7145081,125.4091034 318.1630249,136.1198273 320.343811,137.3788605 338.8952942,126.668129 "/>
<polygon class="st2" points="318.1630249,136.1198273 318.1630249,140.1475372 319.253418,141.7839813 320.343811,141.4065704 
	320.343811,137.3788605 "/>
<polygon class="st11" points="324.6212769,144.64328 324.6212769,141.5568695 327.2784424,143.0909882 327.2784424,146.1773987 "/>
<polygon class="st12" points="345.8843689,151.9217834 345.8843689,149.6317902 341.9130249,151.9246368 341.9130249,154.2146454 
	"/>
<polygon class="st4" points="212.582428,69.2883224 241.5691071,52.5528488 357.5158386,119.4947281 328.5291748,136.2301941 "/>
<polygon class="st4" points="212.582428,70.8616409 241.5691071,54.1261749 357.5158386,121.0680542 328.5291748,137.8035278 "/>
<polygon class="st5" points="357.5158386,119.4947281 357.5158386,121.0680542 328.5291748,137.8035278 328.5291748,136.2301941 "/>
<polygon class="st6" points="328.5291748,137.8035278 328.5291748,136.2301941 212.582428,69.2883224 212.582428,70.8616409 "/>
<polygon class="st7" points="223.0176392,69.1380386 223.0176392,47.7166367 241.5691071,58.4273376 241.5691071,79.8487396 "/>
<polygon class="st8" points="223.0176392,47.7166367 241.5691071,37.0059357 260.120575,47.716629 241.5691071,58.4273376 "/>
<polygon class="st9" points="241.5691071,58.4273376 241.5691071,79.8487396 260.1205444,69.1380081 260.120575,47.716629 "/>
<polygon class="st10" points="249.7544556,41.7317543 231.2029724,52.4424782 233.3837433,53.7015076 251.9352264,42.9907837 "/>
<polygon class="st2" points="231.2029724,52.4424782 231.2029724,56.4701881 232.2933655,58.1066284 233.3837433,57.7292175 
	233.3837433,53.7015076 "/>
<polygon class="st11" points="237.6612244,60.9659271 237.6612244,57.8795242 240.3183899,59.4136429 240.3183899,62.5000458 "/>
<polygon class="st12" points="258.9243164,68.2444458 258.9243164,65.9544373 254.9529724,68.2472916 254.9529724,70.5373001 "/>
<polygon class="st7" points="252.0043182,85.8735046 252.0043182,64.4521103 270.5557861,75.1628036 270.5557861,96.5842056 "/>
<polygon class="st8" points="252.0043182,64.4521103 270.5557861,53.7414093 289.1072693,64.4521027 270.5557861,75.1628036 "/>
<polygon class="st9" points="270.5557861,75.1628036 270.5557861,96.5842056 289.1072083,85.8734818 289.1072693,64.4521027 "/>
<polygon class="st10" points="278.7411194,58.4672241 260.1896362,69.177948 262.3704224,70.4369812 280.9219055,59.7262535 "/>
<polygon class="st2" points="260.1896362,69.177948 260.1896362,73.205658 261.2800293,74.8421021 262.3704224,74.4646835 
	262.3704224,70.4369812 "/>
<polygon class="st11" points="266.6478882,77.7014008 266.6478882,74.6149979 269.3050537,76.1491089 269.3050537,79.2355194 "/>
<polygon class="st12" points="287.9109802,84.9799118 287.9109802,82.6899109 283.9396362,84.9827652 283.9396362,87.2727661 "/>
<polygon class="st7" points="280.9909973,102.6089706 280.9909973,81.1875763 299.5424805,91.8982773 299.5424805,113.3196793 "/>
<polygon class="st8" points="280.9909973,81.1875763 299.5424805,70.4768753 318.0939331,81.1875687 299.5424805,91.8982773 "/>
<polygon class="st9" points="299.5424805,91.8982773 299.5424805,113.3196793 318.0939026,102.6089478 318.0939331,81.1875687 "/>
<polygon class="st10" points="307.7278137,75.2026901 289.1763306,85.913414 291.3571167,87.1724472 309.9085999,76.4617233 "/>
<polygon class="st2" points="289.1763306,85.913414 289.1763306,89.941124 290.2667236,91.5775681 291.3571167,91.2001572 
	291.3571167,87.1724472 "/>
<polygon class="st11" points="295.6345825,94.4368668 295.6345825,91.3504639 298.291748,92.8845825 298.291748,95.9709854 "/>
<polygon class="st12" points="316.8976746,101.7153778 316.8976746,99.4253769 312.9263306,101.7182312 312.9263306,104.0082397 "/>
<polygon class="st4" points="212.5824127,35.817379 241.5691071,19.0819092 357.5158386,86.0237885 328.5291443,102.7592545 "/>
<polygon class="st4" points="212.5824127,37.3907051 241.5691071,20.6552353 357.5158386,87.5971146 328.5291443,104.3325806 "/>
<polygon class="st5" points="357.5158386,86.0237885 357.5158386,87.5971146 328.5291443,104.3325806 328.5291443,102.7592545 "/>
<polygon class="st6" points="328.5291443,104.3325806 328.5291443,102.7592545 212.5824127,35.817379 212.5824127,37.3907051 "/>
<polygon class="st0" points="357.5158386,231.2943268 357.5158386,79.6728821 359.219574,78.6892319 359.219574,230.3106689 "/>
<polygon class="st1" points="357.5158386,231.2943268 357.5158386,79.6728821 355.8121033,78.6892319 355.8121033,230.3106689 "/>
<polygon class="st2" points="357.5158386,79.6728821 355.8121033,78.6892319 357.5158386,77.7055893 359.219574,78.6892319 "/>
<polygon class="st3" points="331.5929871,234.557663 331.5929871,236.5187073 357.171051,194.1772156 357.171051,192.2161713 "/>
<polygon class="st0" points="357.171051,192.2161713 331.5929871,234.557663 330.6766663,234.0286407 356.2547302,191.687149 "/>
<polygon class="st3" points="331.5929871,206.9836731 357.171051,219.9685059 357.171051,221.7511902 331.5929871,208.7663574 "/>
<polygon class="st3" points="331.5929871,201.0571594 331.5929871,203.0182037 357.171051,160.676712 357.171051,158.7156677 "/>
<polygon class="st0" points="357.171051,158.7156677 331.5929871,201.0571594 330.6766663,200.5281372 356.2547302,158.1866455 "/>
<polygon class="st3" points="331.5929871,173.4831696 357.171051,186.4680023 357.171051,188.2506866 331.5929871,175.2658539 "/>
<polygon class="st3" points="331.5929871,167.108551 331.5929871,169.0695801 357.171051,126.728096 357.171051,124.7670593 "/>
<polygon class="st0" points="357.171051,124.7670593 331.5929871,167.108551 330.6766663,166.5795135 356.2547302,124.2380371 "/>
<polygon class="st3" points="331.5929871,139.5345612 357.171051,152.5193939 357.171051,154.3020782 331.5929871,141.3172455 "/>
<polygon class="st3" points="331.5929871,134.1448364 331.5929871,136.1058807 357.171051,93.7643967 357.171051,91.80336 "/>
<polygon class="st0" points="357.171051,91.80336 331.5929871,134.1448364 330.6766663,133.6158142 356.2547302,91.2743301 "/>
<polygon class="st3" points="331.5929871,106.5708618 357.171051,119.5556946 357.171051,121.3383713 331.5929871,108.3535385 "/>
<polygon class="st0" points="330.2328796,247.0666351 330.2328796,95.4451828 331.936615,94.4615402 331.936615,246.0829773 "/>
<polygon class="st1" points="330.2328796,247.0666351 330.2328796,95.4451828 328.5291443,94.4615402 328.5291443,246.0829773 "/>
<polygon class="st2" points="330.2328796,95.4451828 328.5291443,94.4615402 330.2328796,93.47789 331.936615,94.4615402 "/>
<g class="st13">
	<polygon class="st14" points="270.9417419,142.8776398 270.9417419,132.2032013 280.1860657,137.5404205 280.1860657,148.214859 	
		"/>
	<polygon class="st15" points="270.9417419,132.2032013 280.1860657,126.8659821 289.4304199,132.2032013 280.1860657,137.5404205 	
		"/>
	<polygon class="st16" points="280.1860657,137.5404205 280.1860657,148.214859 289.4303894,142.8776245 289.4304199,132.2032013 	
		"/>
	<polygon class="st17" points="284.2648926,129.2208862 275.0205383,134.5581207 276.1072388,135.1855011 285.351593,129.8482666 	
		"/>
	<polygon class="st18" points="275.0205383,134.5581207 275.0205383,136.565155 275.5639038,137.3806152 276.1072388,137.1925507 
		276.1072388,135.1855011 	"/>
	<polygon class="st19" points="278.238739,138.8054199 278.238739,137.2674408 279.5628357,138.0319061 279.5628357,139.5698853 	
		"/>
	<polygon class="st20" points="288.8342896,142.4323578 288.8342896,141.2912292 286.8553467,142.4337769 286.8553467,143.5749054 	
		"/>
</g>
<polygon class="st0" points="359.6653137,232.5353088 359.6653137,80.9138641 361.3690491,79.9302139 361.3690491,231.551651 "/>
<polygon class="st1" points="359.6653137,232.5353088 359.6653137,80.9138641 357.9615784,79.9302139 357.9615784,231.551651 "/>
<polygon class="st2" points="359.6653137,80.9138641 357.9615784,79.9302139 359.6653137,78.9465714 361.3690491,79.9302139 "/>
<polygon class="st3" points="333.7424316,235.798645 333.7424316,237.7596893 359.3204956,195.4181976 359.3204956,193.4571533 "/>
<polygon class="st0" points="359.3204956,193.4571533 333.7424316,235.798645 332.8261414,235.2696228 358.4042053,192.9281311 "/>
<polygon class="st3" points="333.7424316,208.2246552 359.3204956,221.2094879 359.3204956,222.9921722 333.7424316,210.0073395 "/>
<polygon class="st3" points="333.7424316,202.2981415 333.7424316,204.2591858 359.3204956,161.9176941 359.3204956,159.9566498 "/>
<polygon class="st0" points="359.3204956,159.9566498 333.7424316,202.2981415 332.8261414,201.7691193 358.4042053,159.4276276 "/>
<polygon class="st3" points="333.7424316,174.7241516 359.3204956,187.7089844 359.3204956,189.4916687 333.7424316,176.5068359 "/>
<polygon class="st3" points="333.7424316,168.3495331 333.7424316,170.3105621 359.3204956,127.9690781 359.3204956,126.0080414 "/>
<polygon class="st0" points="359.3204956,126.0080414 333.7424316,168.3495331 332.8261414,167.8204956 358.4042053,125.4790192 "/>
<polygon class="st3" points="333.7424316,140.7755432 359.3204956,153.760376 359.3204956,155.5430603 333.7424316,142.5582275 "/>
<polygon class="st3" points="333.7424316,135.3858185 333.7424316,137.3468628 359.3204956,95.0053787 359.3204956,93.0443344 "/>
<polygon class="st0" points="359.3204956,93.0443344 333.7424316,135.3858185 332.8261414,134.8567963 358.4042053,92.5153122 "/>
<polygon class="st3" points="333.7424316,107.8118362 359.3204956,120.7966766 359.3204956,122.5793533 333.7424316,109.5945206 "/>
<polygon class="st0" points="332.3823547,248.3076172 332.3823547,96.6861649 334.0860901,95.7025223 334.0860901,247.3239594 "/>
<polygon class="st1" points="332.3823547,248.3076172 332.3823547,96.6861649 330.6786194,95.7025223 330.6786194,247.3239594 "/>
<polygon class="st2" points="332.3823547,96.6861649 330.6786194,95.7025223 332.3823242,94.7188721 334.0860901,95.7025223 "/>
<polygon class="st4" points="332.3823242,238.8676605 361.3690186,222.1321869 477.3157654,289.0740662 448.329071,305.8095398 "/>
<polygon class="st4" points="332.3823242,240.440979 361.3690186,223.7055206 477.3157654,290.6473999 448.329071,307.3828735 "/>
<polygon class="st5" points="477.3157654,289.0740662 477.3157654,290.6473999 448.329071,307.3828735 448.329071,305.8095398 "/>
<polygon class="st6" points="448.329071,307.3828735 448.329071,305.8095398 332.3823242,238.8676605 332.3823242,240.440979 "/>
<polygon class="st7" points="342.8175354,238.7173767 342.8175354,217.2959747 361.3690186,228.0066681 361.3690186,249.4280701 "/>
<polygon class="st8" points="342.8175354,217.2959747 361.3690186,206.5852814 379.9205017,217.2959747 361.3690186,228.0066681 "/>
<polygon class="st9" points="361.3690186,228.0066681 361.3690186,249.4280701 379.9204407,238.7173462 379.9205017,217.2959747 "/>
<polygon class="st10" points="369.5543518,211.3110962 351.0028992,222.0218201 353.1836548,223.2808533 371.7351379,212.5701294 
	"/>
<polygon class="st2" points="351.0028992,222.0218201 351.0028992,226.04953 352.0932617,227.6859741 353.1836548,227.308548 
	353.1836548,223.2808533 "/>
<polygon class="st11" points="357.4611206,230.5452728 357.4611206,227.4588623 360.1182861,228.992981 360.1182861,232.0793915 "/>
<polygon class="st12" points="378.7242126,237.8237762 378.7242126,235.533783 374.7528992,237.8266296 374.7528992,240.1166382 "/>
<polygon class="st7" points="371.8042297,255.4528503 371.8042297,234.0314484 390.3557129,244.7421417 390.3557129,266.1635437 "/>
<polygon class="st8" points="371.8042297,234.0314484 390.3556824,223.3207397 408.9071655,234.0314331 390.3557129,244.7421417 "/>
<polygon class="st9" points="390.3557129,244.7421417 390.3557129,266.1635437 408.907135,255.4528198 408.9071655,234.0314331 "/>
<polygon class="st10" points="398.5410461,228.0465698 379.989563,238.7572937 382.1703491,240.0163116 400.7218323,229.3055878 "/>
<polygon class="st2" points="379.989563,238.7572937 379.989563,242.7849884 381.0799561,244.4214325 382.1703491,244.0440216 
	382.1703491,240.0163116 "/>
<polygon class="st11" points="386.4478149,247.2807312 386.4478149,244.1943359 389.1049805,245.7284546 389.1049805,248.8148499 
	"/>
<polygon class="st12" points="407.710907,254.5592499 407.710907,252.2692413 403.739563,254.5621033 403.739563,256.8521118 "/>
<polygon class="st7" points="400.7909241,272.188324 400.7909241,250.7669067 419.3424072,261.4776001 419.3424072,282.8990173 "/>
<polygon class="st8" points="400.7909241,250.7669067 419.3423767,240.0562134 437.8938599,250.7669067 419.3424072,261.4776001 "/>
<polygon class="st9" points="419.3424072,261.4776001 419.3424072,282.8990173 437.8938293,272.1882935 437.8938599,250.7669067 "/>
<polygon class="st10" points="427.5277405,244.7820282 408.9762573,255.4927521 411.1570435,256.75177 429.7084961,246.0410614 "/>
<polygon class="st2" points="408.9762573,255.4927521 408.9762573,259.5204773 410.0666504,261.1569214 411.1570435,260.77948 
	411.1570435,256.75177 "/>
<polygon class="st11" points="415.4345093,264.0162048 415.4345093,260.9298096 418.0916748,262.4639282 418.0916748,265.5503235 
	"/>
<polygon class="st12" points="436.6976013,271.2947083 436.6976013,269.0047302 432.7262573,271.2975769 432.7262573,273.5875854 
	"/>
<polygon class="st7" points="429.7775879,288.9237976 429.7775879,267.5023804 448.329071,278.2130737 448.329071,299.634491 "/>
<polygon class="st8" points="429.7775879,267.5023804 448.329071,256.791687 466.8805542,267.5023804 448.329071,278.2130737 "/>
<polygon class="st9" points="448.329071,278.2130737 448.329071,299.634491 466.8804932,288.9237671 466.8805542,267.5023804 "/>
<polygon class="st10" points="456.5144043,261.5174866 437.9629517,272.2282104 440.1437073,273.4872437 458.6951904,262.7765198 
	"/>
<polygon class="st2" points="437.9629517,272.2282104 437.9629517,276.2559204 439.0533142,277.8923645 440.1437073,277.5149536 
	440.1437073,273.4872437 "/>
<polygon class="st11" points="444.4211731,280.7516785 444.4211731,277.6652832 447.0783386,279.1994019 447.0783386,282.2857971 
	"/>
<polygon class="st12" points="465.6842651,288.0301819 465.6842651,285.7401733 461.7129517,288.0330505 461.7129517,290.3230591 
	"/>
<polygon class="st4" points="332.3823242,205.3967133 361.3690186,188.6612549 477.3157654,255.6031342 448.329071,272.3385925 "/>
<polygon class="st4" points="332.3823242,206.970047 361.3690186,190.2345734 477.3157654,257.1764526 448.329071,273.9119263 "/>
<polygon class="st5" points="477.3157654,255.6031342 477.3157654,257.1764526 448.329071,273.9119263 448.329071,272.3385925 "/>
<polygon class="st6" points="448.329071,273.9119263 448.329071,272.3385925 332.3823242,205.3967133 332.3823242,206.970047 "/>
<polygon class="st7" points="342.8175354,205.2464294 342.8175354,183.8250427 361.3690186,194.5357361 361.3690186,215.9571381 "/>
<polygon class="st8" points="342.8175354,183.8250427 361.3690186,173.1143341 379.9205017,183.8250275 361.3690186,194.5357361 "/>
<polygon class="st9" points="361.3690186,194.5357361 361.3690186,215.9571381 379.9204407,205.2464142 379.9205017,183.8250275 "/>
<polygon class="st10" points="369.5543518,177.8401489 351.0028992,188.5508728 353.1836548,189.809906 371.7351379,179.0991821 "/>
<polygon class="st2" points="351.0028992,188.5508728 351.0028992,192.5785828 352.0932617,194.2150269 353.1836548,193.837616 
	353.1836548,189.809906 "/>
<polygon class="st11" points="357.4611206,197.0743256 357.4611206,193.9879303 360.1182861,195.5220337 360.1182861,198.6084442 
	"/>
<polygon class="st12" points="378.7242126,204.3528442 378.7242126,202.0628357 374.7528992,204.3556976 374.7528992,206.6456909 
	"/>
<polygon class="st7" points="371.8042297,221.9819031 371.8042297,200.5605011 390.3557129,211.2712097 390.3557129,232.6926117 "/>
<polygon class="st8" points="371.8042297,200.5605011 390.3556824,189.8498077 408.9071655,200.5605011 390.3557129,211.2712097 "/>
<polygon class="st9" points="390.3557129,211.2712097 390.3557129,232.6926117 408.907135,221.9818726 408.9071655,200.5605011 "/>
<polygon class="st10" points="398.5410461,194.5756226 379.989563,205.2863464 382.1703491,206.5453796 400.7218323,195.8346558 "/>
<polygon class="st2" points="379.989563,205.2863464 379.989563,209.3140564 381.0799561,210.9505005 382.1703491,210.5730896 
	382.1703491,206.5453796 "/>
<polygon class="st11" points="386.4478149,213.8097992 386.4478149,210.7233887 389.1049805,212.2575073 389.1049805,215.3439178 
	"/>
<polygon class="st12" points="407.710907,221.0883179 407.710907,218.7983093 403.739563,221.091156 403.739563,223.3811646 "/>
<polygon class="st7" points="400.7909241,238.7173767 400.7909241,217.2959747 419.3424072,228.0066681 419.3424072,249.4280701 "/>
<polygon class="st8" points="400.7909241,217.2959747 419.3423767,206.5852814 437.8938599,217.2959595 419.3424072,228.0066681 "/>
<polygon class="st9" points="419.3424072,228.0066681 419.3424072,249.4280701 437.8938293,238.7173462 437.8938599,217.2959595 "/>
<polygon class="st10" points="427.5277405,211.3110962 408.9762573,222.0218201 411.1570435,223.280838 429.7084961,212.5701141 "/>
<polygon class="st2" points="408.9762573,222.0218201 408.9762573,226.04953 410.0666504,227.6859741 411.1570435,227.308548 
	411.1570435,223.280838 "/>
<polygon class="st11" points="415.4345093,230.5452576 415.4345093,227.4588623 418.0916748,228.992981 418.0916748,232.0793762 "/>
<polygon class="st12" points="436.6976013,237.8237762 436.6976013,235.533783 432.7262573,237.8266296 432.7262573,240.1166382 "/>
<polygon class="st7" points="429.7775879,255.4528503 429.7775879,234.0314484 448.329071,244.7421417 448.329071,266.1635437 "/>
<polygon class="st8" points="429.7775879,234.0314484 448.329071,223.3207397 466.8805542,234.0314331 448.329071,244.7421417 "/>
<polygon class="st9" points="448.329071,244.7421417 448.329071,266.1635437 466.8804932,255.4528198 466.8805542,234.0314331 "/>
<polygon class="st10" points="456.5144043,228.0465698 437.9629517,238.7572784 440.1437073,240.0163116 458.6951904,229.3055878 
	"/>
<polygon class="st2" points="437.9629517,238.7572784 437.9629517,242.7849884 439.0533142,244.4214325 440.1437073,244.0440216 
	440.1437073,240.0163116 "/>
<polygon class="st11" points="444.4211731,247.2807312 444.4211731,244.1943359 447.0783386,245.7284546 447.0783386,248.8148499 
	"/>
<polygon class="st12" points="465.6842651,254.5592499 465.6842651,252.2692413 461.7129517,254.5621033 461.7129517,256.8521118 
	"/>
<polygon class="st4" points="332.3823547,171.9257813 361.3690186,155.1903076 477.3157654,222.1321869 448.329071,238.8676605 "/>
<polygon class="st4" points="332.3823547,173.4990997 361.3690186,156.7636261 477.3157654,223.7055054 448.329071,240.440979 "/>
<polygon class="st5" points="477.3157654,222.1321869 477.3157654,223.7055054 448.329071,240.440979 448.329071,238.8676605 "/>
<polygon class="st6" points="448.329071,240.440979 448.329071,238.8676605 332.3823547,171.9257813 332.3823547,173.4990997 "/>
<polygon class="st7" points="342.8175659,171.7754974 342.8175659,150.3540955 361.3690186,161.0647888 361.3690186,182.4861908 "/>
<polygon class="st8" points="342.8175659,150.3540955 361.3690186,139.6434021 379.9205017,150.3540802 361.3690186,161.0647888 "/>
<polygon class="st9" points="361.3690186,161.0647888 361.3690186,182.4861908 379.9204712,171.7754669 379.9205017,150.3540802 "/>
<polygon class="st10" points="369.5543823,144.3692169 351.0028992,155.0799408 353.1836548,156.3389587 371.7351379,145.6282349 
	"/>
<polygon class="st2" points="351.0028992,155.0799408 351.0028992,159.1076508 352.0932922,160.7440948 353.1836548,160.3666687 
	353.1836548,156.3389587 "/>
<polygon class="st11" points="357.4611511,163.6033783 357.4611511,160.516983 360.1183167,162.0511017 360.1183167,165.1374969 "/>
<polygon class="st12" points="378.7242126,170.881897 378.7242126,168.5919037 374.7528992,170.8847504 374.7528992,173.1747589 "/>
<polygon class="st7" points="371.8042297,188.5109711 371.8042297,167.0895691 390.3557129,177.8002625 390.3557129,199.2216644 "/>
<polygon class="st8" points="371.8042297,167.0895691 390.3557129,156.3788605 408.9071655,167.0895538 390.3557129,177.8002625 "/>
<polygon class="st9" points="390.3557129,177.8002625 390.3557129,199.2216644 408.907135,188.5109406 408.9071655,167.0895538 "/>
<polygon class="st10" points="398.5410461,161.1046906 379.989563,171.8153992 382.1703491,173.0744324 400.7218323,162.3637085 "/>
<polygon class="st2" points="379.989563,171.8153992 379.989563,175.8431091 381.0799561,177.4795532 382.1703491,177.1021423 
	382.1703491,173.0744324 "/>
<polygon class="st11" points="386.4478149,180.3388519 386.4478149,177.2524567 389.1049805,178.7865753 389.1049805,181.8729706 
	"/>
<polygon class="st12" points="407.710907,187.6173706 407.710907,185.3273621 403.739563,187.620224 403.739563,189.9102325 "/>
<polygon class="st7" points="400.7909241,205.2464294 400.7909241,183.8250275 419.3424072,194.5357361 419.3424072,215.9571381 "/>
<polygon class="st8" points="400.7909241,183.8250275 419.3424072,173.1143341 437.8938599,183.8250275 419.3424072,194.5357361 "/>
<polygon class="st9" points="419.3424072,194.5357361 419.3424072,215.9571381 437.8938293,205.2463989 437.8938599,183.8250275 "/>
<polygon class="st10" points="427.5277405,177.8401489 408.9762573,188.5508728 411.1570435,189.809906 429.7085266,179.0991821 "/>
<polygon class="st2" points="408.9762573,188.5508728 408.9762573,192.5785828 410.0666504,194.2150269 411.1570435,193.837616 
	411.1570435,189.809906 "/>
<polygon class="st11" points="415.4345093,197.0743256 415.4345093,193.987915 418.0916748,195.5220337 418.0916748,198.6084442 "/>
<polygon class="st12" points="436.6976013,204.3528442 436.6976013,202.0628357 432.7262573,204.3556824 432.7262573,206.6456909 
	"/>
<polygon class="st7" points="429.7776184,221.9819031 429.7776184,200.5605011 448.329071,211.2712097 448.329071,232.6925964 "/>
<polygon class="st8" points="429.7776184,200.5605011 448.329071,189.8498077 466.8805542,200.5605011 448.329071,211.2712097 "/>
<polygon class="st9" points="448.329071,211.2712097 448.329071,232.6925964 466.8805237,221.9818726 466.8805542,200.5605011 "/>
<polygon class="st10" points="456.5144348,194.5756226 437.9629517,205.2863464 440.1437073,206.5453796 458.6951904,195.8346558 
	"/>
<polygon class="st2" points="437.9629517,205.2863464 437.9629517,209.3140564 439.0533447,210.9505005 440.1437073,210.5730896 
	440.1437073,206.5453796 "/>
<polygon class="st11" points="444.4211731,213.8097992 444.4211731,210.7233887 447.0783386,212.2575073 447.0783386,215.3439178 
	"/>
<polygon class="st12" points="465.6842651,221.0883026 465.6842651,218.7983093 461.7129517,221.091156 461.7129517,223.3811646 "/>
<polygon class="st4" points="332.3823547,138.454834 361.3690186,121.719368 477.3157654,188.6612396 448.329071,205.3967133 "/>
<polygon class="st4" points="332.3823547,140.0281677 361.3690186,123.2926941 477.3157654,190.2345734 448.329071,206.970047 "/>
<polygon class="st5" points="477.3157654,188.6612396 477.3157654,190.2345734 448.329071,206.970047 448.329071,205.3967133 "/>
<polygon class="st6" points="448.329071,206.970047 448.329071,205.3967133 332.3823547,138.454834 332.3823547,140.0281677 "/>
<polygon class="st7" points="342.8175659,138.3045502 342.8175659,116.8831558 361.3690186,127.5938568 361.3690186,149.0152588 "/>
<polygon class="st8" points="342.8175659,116.8831558 361.3690186,106.1724548 379.9205017,116.8831482 361.3690186,127.5938568 "/>
<polygon class="st9" points="361.3690186,127.5938568 361.3690186,149.0152588 379.9204712,138.3045349 379.9205017,116.8831482 "/>
<polygon class="st10" points="369.5543823,110.8982697 351.0028992,121.6089935 353.1836548,122.8680267 371.7351379,112.1573029 
	"/>
<polygon class="st2" points="351.0028992,121.6089935 351.0028992,125.6367035 352.0932922,127.2731476 353.1836548,126.8957367 
	353.1836548,122.8680267 "/>
<polygon class="st11" points="357.4611511,130.1324463 357.4611511,127.0460434 360.1183167,128.5801544 360.1183167,131.6665649 
	"/>
<polygon class="st12" points="378.7242126,137.410965 378.7242126,135.1209564 374.7528992,137.4138031 374.7528992,139.7038116 "/>
<polygon class="st7" points="371.8042297,155.0400238 371.8042297,133.6186218 390.3557129,144.3293304 390.3557129,165.7507324 "/>
<polygon class="st8" points="371.8042297,133.6186218 390.3557129,122.9079285 408.9071655,133.6186218 390.3557129,144.3293304 "/>
<polygon class="st9" points="390.3557129,144.3293304 390.3557129,165.7507324 408.907135,155.0399933 408.9071655,133.6186218 "/>
<polygon class="st10" points="398.5410461,127.6337433 379.989563,138.3444672 382.1703491,139.6035004 400.7218323,128.8927765 "/>
<polygon class="st2" points="379.989563,138.3444672 379.989563,142.3721771 381.0799561,144.0086212 382.1703491,143.6312103 
	382.1703491,139.6035004 "/>
<polygon class="st11" points="386.4478149,146.8679199 386.4478149,143.7815094 389.1049805,145.3156281 389.1049805,148.4020386 
	"/>
<polygon class="st12" points="407.710907,154.1464386 407.710907,151.8564301 403.739563,154.1492767 403.739563,156.4392853 "/>
<polygon class="st7" points="400.7909241,171.7754974 400.7909241,150.3540955 419.3424072,161.0647888 419.3424072,182.4861908 "/>
<polygon class="st8" points="400.7909241,150.3540955 419.3424072,139.6433868 437.8938599,150.3540802 419.3424072,161.0647888 "/>
<polygon class="st9" points="419.3424072,161.0647888 419.3424072,182.4861908 437.8938293,171.7754669 437.8938599,150.3540802 "/>
<polygon class="st10" points="427.5277405,144.3692169 408.9762573,155.0799408 411.1570435,156.3389587 429.7085266,145.6282349 
	"/>
<polygon class="st2" points="408.9762573,155.0799408 408.9762573,159.1076355 410.0666504,160.7440796 411.1570435,160.3666687 
	411.1570435,156.3389587 "/>
<polygon class="st11" points="415.4345093,163.6033783 415.4345093,160.516983 418.0916748,162.0511017 418.0916748,165.1374969 "/>
<polygon class="st12" points="436.6976013,170.881897 436.6976013,168.5918884 432.7262573,170.8847504 432.7262573,173.1747589 "/>
<polygon class="st4" points="332.3823242,104.9838943 361.3690186,88.2484283 477.3157654,155.1903076 448.329071,171.9257813 "/>
<polygon class="st4" points="332.3823242,106.5572205 361.3690186,89.8217545 477.3157654,156.7636261 448.329071,173.4990997 "/>
<polygon class="st5" points="477.3157654,155.1903076 477.3157654,156.7636261 448.329071,173.4990997 448.329071,171.9257813 "/>
<polygon class="st6" points="448.329071,173.4990997 448.329071,171.9257813 332.3823242,104.9838943 332.3823242,106.5572205 "/>
<polygon class="st0" points="477.3157654,300.4608459 477.3157654,148.8394012 479.0195007,147.8557587 479.0195007,299.4772034 "/>
<polygon class="st1" points="477.3157654,300.4608459 477.3157654,148.8394012 475.61203,147.8557587 475.61203,299.4772034 "/>
<polygon class="st2" points="477.3157654,148.8394012 475.61203,147.8557587 477.3157654,146.8721008 479.0195007,147.8557587 "/>
<polygon class="st3" points="451.3928833,303.7241821 451.3928833,305.6852112 476.9709473,263.3437195 476.9709473,261.3826904 "/>
<polygon class="st0" points="476.9709473,261.3826904 451.3928833,303.7241821 450.476593,303.1951599 476.054657,260.8536682 "/>
<polygon class="st3" points="451.3928833,276.1502075 476.9709778,289.1350403 476.9709778,290.9177246 451.3928833,277.9328918 "/>
<polygon class="st3" points="451.3928833,270.2236633 451.3928833,272.1847229 476.9709473,229.8432312 476.9709473,227.8821869 "/>
<polygon class="st0" points="476.9709473,227.8821869 451.3928833,270.2236633 450.476593,269.6946411 476.054657,227.3531647 "/>
<polygon class="st3" points="451.3928833,242.6496887 476.9709778,255.6345215 476.9709778,257.4172058 451.3928833,244.432373 "/>
<polygon class="st3" points="451.3928833,236.2750702 451.3928833,238.2360992 476.9709473,195.8946228 476.9709473,193.9335785 "/>
<polygon class="st0" points="476.9709473,193.9335785 451.3928833,236.2750702 450.476593,235.7460327 476.054657,193.4045563 "/>
<polygon class="st3" points="451.3928833,208.7010803 476.9709778,221.6859131 476.9709778,223.4685974 451.3928833,210.4837646 "/>
<polygon class="st3" points="451.3928833,203.3113556 451.3928833,205.2723999 476.9709473,162.9309082 476.9709473,160.9698792 "/>
<polygon class="st0" points="476.9709473,160.9698792 451.3928833,203.3113556 450.476593,202.7823334 476.054657,160.4408417 "/>
<polygon class="st3" points="451.3928833,175.737381 476.9709778,188.7222137 476.9709778,190.5048981 451.3928833,177.5200653 "/>
<polygon class="st0" points="450.0328064,316.2331543 450.0328064,164.6117096 451.7365417,163.6280518 451.7365417,315.2494812 "/>
<polygon class="st1" points="450.0328064,316.2331543 450.0328064,164.6117096 448.329071,163.6280518 448.329071,315.2494812 "/>
<polygon class="st2" points="450.0328064,164.6117096 448.329071,163.6280518 450.0328064,162.6444092 451.7365417,163.6280518 "/>
<polygon class="st0" points="103.0376358,242.3458405 103.0376358,90.7244034 104.7413712,89.7407532 104.7413712,241.3621979 "/>
<polygon class="st1" points="103.0376358,242.3458405 103.0376358,90.7244034 101.3339005,89.7407532 101.3339005,241.3621979 "/>
<polygon class="st2" points="103.0376358,90.7244034 101.3339005,89.7407532 103.0376358,88.7571106 104.7413712,89.7407532 "/>
<polygon class="st3" points="77.114769,245.6091766 77.114769,247.5702209 102.6928329,205.2287292 102.6928329,203.2677002 "/>
<polygon class="st0" points="102.6928329,203.2677002 77.114769,245.6091766 76.1984634,245.0801544 101.7765274,202.738678 "/>
<polygon class="st3" points="77.114769,218.035202 102.6928406,231.0200348 102.6928406,232.8027191 77.114769,219.8178864 "/>
<polygon class="st3" points="77.114769,212.1086731 77.114769,214.0697174 102.6928329,171.7282257 102.6928329,169.7671967 "/>
<polygon class="st0" points="102.6928329,169.7671967 77.114769,212.1086731 76.1984634,211.5796509 101.7765274,169.2381744 "/>
<polygon class="st3" points="77.114769,184.5346985 102.6928406,197.5195313 102.6928406,199.3022156 77.114769,186.3173828 "/>
<polygon class="st3" points="77.114769,178.1600647 77.114769,180.121109 102.6928329,137.7796173 102.6928329,135.8185883 "/>
<polygon class="st0" points="102.6928329,135.8185883 77.114769,178.1600647 76.1984634,177.6310425 101.7765274,135.2895508 "/>
<polygon class="st3" points="77.114769,150.5860748 102.6928406,163.5709229 102.6928406,165.3535919 77.114769,152.3687592 "/>
<polygon class="st3" points="77.114769,145.1963654 77.114769,147.1573944 102.6928329,104.8159103 102.6928329,102.8548737 "/>
<polygon class="st0" points="102.6928329,102.8548737 77.114769,145.1963654 76.1984634,144.6673279 101.7765274,102.3258514 "/>
<polygon class="st3" points="77.114769,117.6223755 102.6928406,130.6072083 102.6928406,132.3898926 77.114769,119.4050598 "/>
<polygon class="st0" points="75.7546768,258.1181641 75.7546768,106.4967041 77.4584122,105.5130615 77.4584122,257.134491 "/>
<polygon class="st1" points="75.7546768,258.1181641 75.7546768,106.4967041 74.0509415,105.5130615 74.0509415,257.134491 "/>
<polygon class="st2" points="75.7546768,106.4967041 74.0509415,105.5130615 75.7546768,104.5294113 77.4584122,105.5130615 "/>
<polygon class="st4" points="75.7546768,248.6781921 104.7413559,231.9427338 220.6880951,298.884613 191.701416,315.6200867 "/>
<polygon class="st4" points="75.7546768,250.2515259 104.7413559,233.5160522 220.6880951,300.4579163 191.701416,317.1933899 "/>
<polygon class="st5" points="220.6880951,298.884613 220.6880951,300.4579163 191.701416,317.1933899 191.701416,315.6200867 "/>
<polygon class="st6" points="191.701416,317.1933899 191.701416,315.6200867 75.7546768,248.6781921 75.7546768,250.2515259 "/>
<polygon class="st7" points="86.189888,248.5279083 86.189888,227.1065216 104.7413635,237.817215 104.7413635,259.2386169 "/>
<polygon class="st8" points="86.189888,227.1065216 104.7413559,216.395813 123.2928314,227.1065063 104.7413635,237.817215 "/>
<polygon class="st9" points="104.7413635,237.817215 104.7413635,259.2386169 123.2927933,248.5278931 123.2928314,227.1065063 "/>
<polygon class="st10" points="112.9267044,221.1216278 94.3752213,231.8323517 96.5559998,233.0913849 115.1074753,222.380661 "/>
<polygon class="st2" points="94.3752213,231.8323517 94.3752213,235.8600616 95.4656143,237.4965057 96.5559998,237.1190948 
	96.5559998,233.0913849 "/>
<polygon class="st11" points="100.8334656,240.3558044 100.8334656,237.2694092 103.4906311,238.8035126 103.4906311,241.8899231 
	"/>
<polygon class="st12" points="122.0965576,247.6343231 122.0965576,245.3443146 118.1252213,247.6371765 118.1252213,249.9271698 
	"/>
<polygon class="st7" points="115.1765594,265.2633972 115.1765594,243.84198 133.7280426,254.5526886 133.7280426,275.9740906 "/>
<polygon class="st8" points="115.1765594,243.84198 133.7280273,233.1312866 152.2795105,243.84198 133.7280426,254.5526886 "/>
<polygon class="st9" points="133.7280426,254.5526886 133.7280426,275.9740906 152.2794647,265.2633667 152.2795105,243.84198 "/>
<polygon class="st10" points="141.9133759,237.8571014 123.3619003,248.5678253 125.5426712,249.8268585 144.0941467,239.1161346 
	"/>
<polygon class="st2" points="123.3619003,248.5678253 123.3619003,252.5955353 124.4522858,254.2319794 125.5426712,253.8545685 
	125.5426712,249.8268585 "/>
<polygon class="st11" points="129.8201447,257.0912781 129.8201447,254.0048676 132.4773102,255.5389862 132.4773102,258.6253967 
	"/>
<polygon class="st12" points="151.0832367,264.3697815 151.0832367,262.0797729 147.1118927,264.3726501 147.1118927,266.6626587 
	"/>
<polygon class="st7" points="144.1632538,281.9988403 144.1632538,260.5774536 162.7147217,271.288147 162.7147217,292.7095642 "/>
<polygon class="st8" points="144.1632538,260.5774536 162.7147217,249.8667603 181.2661896,260.5774536 162.7147217,271.288147 "/>
<polygon class="st9" points="162.7147217,271.288147 162.7147217,292.7095642 181.2661591,281.9988403 181.2661896,260.5774536 "/>
<polygon class="st10" points="170.9000702,254.5925751 152.348587,265.3032837 154.5293732,266.5623169 173.0808411,255.851593 "/>
<polygon class="st2" points="152.348587,265.3032837 152.348587,269.3309937 153.4389801,270.9674377 154.5293732,270.5900269 
	154.5293732,266.5623169 "/>
<polygon class="st11" points="158.806839,273.8267517 158.806839,270.7403259 161.4640045,272.2744446 161.4640045,275.3608704 "/>
<polygon class="st12" points="180.069931,281.1052551 180.069931,278.8152466 176.098587,281.1080933 176.098587,283.3981018 "/>
<polygon class="st7" points="173.1499329,298.734314 173.1499329,277.3129272 191.701416,288.0236206 191.701416,309.4450378 "/>
<polygon class="st8" points="173.1499329,277.3129272 191.701416,266.6022339 210.2528839,277.3129272 191.701416,288.0236206 "/>
<polygon class="st9" points="191.701416,288.0236206 191.701416,309.4450378 210.2528381,298.7342834 210.2528839,277.3129272 "/>
<polygon class="st10" points="199.8867493,271.3280334 181.3352814,282.0387573 183.5160522,283.2977905 202.0675354,272.5870667 
	"/>
<polygon class="st2" points="181.3352814,282.0387573 181.3352814,286.0664673 182.4256592,287.7029114 183.5160522,287.3255005 
	183.5160522,283.2977905 "/>
<polygon class="st11" points="187.7935181,290.5622253 187.7935181,287.4757996 190.4506836,289.0099182 190.4506836,292.096344 "/>
<polygon class="st12" points="209.0566101,297.8407288 209.0566101,295.5507202 205.0852814,297.8435669 205.0852814,300.1335754 
	"/>
<polygon class="st4" points="75.7546768,215.2072601 104.7413559,198.4717865 220.6880951,265.4136658 191.701416,282.1491394 "/>
<polygon class="st4" points="75.7546768,216.7805786 104.7413559,200.0451202 220.6880951,266.9869995 191.701416,283.7224731 "/>
<polygon class="st5" points="220.6880951,265.4136658 220.6880951,266.9869995 191.701416,283.7224731 191.701416,282.1491394 "/>
<polygon class="st6" points="191.701416,283.7224731 191.701416,282.1491394 75.7546768,215.2072601 75.7546768,216.7805786 "/>
<polygon class="st7" points="86.189888,215.0569763 86.189888,193.6355743 104.7413635,204.3462677 104.7413635,225.7676697 "/>
<polygon class="st8" points="86.189888,193.6355743 104.7413559,182.924881 123.2928314,193.6355743 104.7413635,204.3462677 "/>
<polygon class="st9" points="104.7413635,204.3462677 104.7413635,225.7676697 123.2927933,215.0569458 123.2928314,193.6355743 "/>
<polygon class="st10" points="112.9267044,187.6506958 94.3752213,198.3614197 96.5559998,199.6204529 115.1074753,188.909729 "/>
<polygon class="st2" points="94.3752213,198.3614197 94.3752213,202.3891296 95.4656143,204.0255737 96.5559998,203.6481476 
	96.5559998,199.6204529 "/>
<polygon class="st11" points="100.8334656,206.8848724 100.8334656,203.7984619 103.4906311,205.3325806 103.4906311,208.4189911 
	"/>
<polygon class="st12" points="122.0965576,214.1633759 122.0965576,211.8733826 118.1252213,214.1662292 118.1252213,216.4562378 
	"/>
<polygon class="st7" points="115.1765594,231.79245 115.1765594,210.371048 133.7280426,221.0817413 133.7280426,242.5031433 "/>
<polygon class="st8" points="115.1765594,210.371048 133.7280273,199.6603394 152.2795105,210.3710327 133.7280426,221.0817413 "/>
<polygon class="st9" points="133.7280426,221.0817413 133.7280426,242.5031433 152.2794647,231.7924194 152.2795105,210.3710327 "/>
<polygon class="st10" points="141.9133759,204.3861694 123.3619003,215.0968933 125.5426712,216.3559113 144.0941467,205.6451874 
	"/>
<polygon class="st2" points="123.3619003,215.0968933 123.3619003,219.124588 124.4522858,220.7610321 125.5426712,220.3836212 
	125.5426712,216.3559113 "/>
<polygon class="st11" points="129.8201447,223.6203308 129.8201447,220.5339355 132.4773102,222.0680542 132.4773102,225.1544495 
	"/>
<polygon class="st12" points="151.0832367,230.8988495 151.0832367,228.6088409 147.1118927,230.9017029 147.1118927,233.1917114 
	"/>
<polygon class="st7" points="144.1632538,248.5279083 144.1632538,227.1065063 162.7147217,237.817215 162.7147217,259.2386169 "/>
<polygon class="st8" points="144.1632538,227.1065063 162.7147217,216.395813 181.2661896,227.1065063 162.7147217,237.817215 "/>
<polygon class="st9" points="162.7147217,237.817215 162.7147217,259.2386169 181.2661591,248.5278931 181.2661896,227.1065063 "/>
<polygon class="st10" points="170.9000702,221.1216278 152.348587,231.8323517 154.5293732,233.0913849 173.0808411,222.380661 "/>
<polygon class="st2" points="152.348587,231.8323517 152.348587,235.8600616 153.4389801,237.4965057 154.5293732,237.1190948 
	154.5293732,233.0913849 "/>
<polygon class="st11" points="158.806839,240.3558044 158.806839,237.2694092 161.4640045,238.8035126 161.4640045,241.8899231 "/>
<polygon class="st12" points="180.069931,247.6343231 180.069931,245.3443146 176.098587,247.6371613 176.098587,249.9271698 "/>
<polygon class="st7" points="173.1499329,265.2633972 173.1499329,243.84198 191.701416,254.5526886 191.701416,275.9740906 "/>
<polygon class="st8" points="173.1499329,243.84198 191.701416,233.1312866 210.2528839,243.84198 191.701416,254.5526886 "/>
<polygon class="st9" points="191.701416,254.5526886 191.701416,275.9740906 210.2528381,265.2633667 210.2528839,243.84198 "/>
<polygon class="st10" points="199.8867493,237.8571014 181.3352814,248.5678253 183.5160522,249.8268585 202.0675354,239.1161346 
	"/>
<polygon class="st2" points="181.3352814,248.5678253 181.3352814,252.5955353 182.4256592,254.2319794 183.5160522,253.8545685 
	183.5160522,249.8268585 "/>
<polygon class="st11" points="187.7935181,257.0912781 187.7935181,254.0048676 190.4506836,255.5389862 190.4506836,258.6253967 
	"/>
<polygon class="st12" points="209.0566101,264.3697815 209.0566101,262.0797729 205.0852814,264.3726501 205.0852814,266.6626587 
	"/>
<polygon class="st4" points="75.7546768,181.7363129 104.7413635,165.0008392 220.6880951,231.9427185 191.701416,248.6781921 "/>
<polygon class="st4" points="75.7546768,183.3096466 104.7413635,166.574173 220.6880951,233.5160522 191.701416,250.2515259 "/>
<polygon class="st5" points="220.6880951,231.9427185 220.6880951,233.5160522 191.701416,250.2515259 191.701416,248.6781921 "/>
<polygon class="st6" points="191.701416,250.2515259 191.701416,248.6781921 75.7546768,181.7363129 75.7546768,183.3096466 "/>
<polygon class="st7" points="86.189888,181.5860291 86.189888,160.1646271 104.7413635,170.8753357 104.7413635,192.2967377 "/>
<polygon class="st8" points="86.189888,160.1646271 104.7413635,149.4539337 123.2928314,160.1646271 104.7413635,170.8753357 "/>
<polygon class="st9" points="104.7413635,170.8753357 104.7413635,192.2967377 123.2927933,181.5860138 123.2928314,160.1646271 "/>
<polygon class="st10" points="112.9267044,154.1797485 94.3752289,164.8904724 96.5560074,166.1495056 115.1074829,155.4387817 "/>
<polygon class="st2" points="94.3752289,164.8904724 94.3752289,168.9181824 95.4656143,170.5546265 96.5560074,170.1772156 
	96.5560074,166.1495056 "/>
<polygon class="st11" points="100.8334732,173.4139252 100.8334732,170.3275146 103.4906387,171.8616333 103.4906387,174.9480438 
	"/>
<polygon class="st12" points="122.0965652,180.6924438 122.0965652,178.4024353 118.1252289,180.695282 118.1252289,182.9852905 "/>
<polygon class="st7" points="115.1765671,198.3215027 115.1765671,176.9001007 133.7280426,187.6108093 133.7280426,209.0322113 "/>
<polygon class="st8" points="115.1765671,176.9001007 133.7280426,166.1894073 152.2795105,176.9001007 133.7280426,187.6108093 "/>
<polygon class="st9" points="133.7280426,187.6108093 133.7280426,209.0322113 152.2794647,198.3214722 152.2795105,176.9001007 "/>
<polygon class="st10" points="141.9133759,170.9152222 123.3619003,181.625946 125.5426788,182.8849792 144.094162,172.1742554 "/>
<polygon class="st2" points="123.3619003,181.625946 123.3619003,185.653656 124.4522934,187.2901001 125.5426788,186.9126892 
	125.5426788,182.8849792 "/>
<polygon class="st11" points="129.8201447,190.1493988 129.8201447,187.0629883 132.4773102,188.5971069 132.4773102,191.6835175 
	"/>
<polygon class="st12" points="151.0832367,197.4279175 151.0832367,195.1379089 147.111908,197.4307556 147.111908,199.7207642 "/>
<polygon class="st7" points="144.1632538,215.0569763 144.1632538,193.6355743 162.7147369,204.3462677 162.7147369,225.7676697 "/>
<polygon class="st8" points="144.1632538,193.6355743 162.7147217,182.9248657 181.2662048,193.6355591 162.7147369,204.3462677 "/>
<polygon class="st9" points="162.7147369,204.3462677 162.7147369,225.7676697 181.2661591,215.0569458 181.2662048,193.6355591 "/>
<polygon class="st10" points="170.9000702,187.6506958 152.348587,198.3614197 154.5293732,199.6204376 173.0808563,188.9097137 "/>
<polygon class="st2" points="152.348587,198.3614197 152.348587,202.3891144 153.4389801,204.0255585 154.5293732,203.6481476 
	154.5293732,199.6204376 "/>
<polygon class="st11" points="158.806839,206.8848572 158.806839,203.7984619 161.4640045,205.3325806 161.4640045,208.4189758 "/>
<polygon class="st12" points="180.069931,214.1633759 180.069931,211.8733673 176.0986023,214.1662292 176.0986023,216.4562378 "/>
<polygon class="st7" points="173.1499481,231.7924347 173.1499481,210.371048 191.701416,221.0817413 191.701416,242.5031433 "/>
<polygon class="st8" points="173.1499481,210.371048 191.701416,199.6603394 210.2528839,210.3710327 191.701416,221.0817413 "/>
<polygon class="st9" points="191.701416,221.0817413 191.701416,242.5031433 210.2528534,231.7924194 210.2528839,210.3710327 "/>
<polygon class="st10" points="199.8867645,204.3861542 181.3352814,215.0968781 183.5160522,216.3559113 202.0675354,205.6451874 
	"/>
<polygon class="st2" points="181.3352814,215.0968781 181.3352814,219.124588 182.4256592,220.7610321 183.5160522,220.3836212 
	183.5160522,216.3559113 "/>
<polygon class="st11" points="187.7935181,223.6203308 187.7935181,220.5339355 190.4506836,222.0680389 190.4506836,225.1544495 
	"/>
<polygon class="st12" points="209.0566101,230.8988495 209.0566101,228.6088409 205.0852814,230.9017029 205.0852814,233.1916962 
	"/>
<polygon class="st4" points="75.7546768,148.2653809 104.7413635,131.5299072 220.6880951,198.4717865 191.701416,215.2072601 "/>
<polygon class="st4" points="75.7546768,149.8386993 104.7413635,133.1032257 220.6880951,200.045105 191.701416,216.7805786 "/>
<polygon class="st5" points="220.6880951,198.4717865 220.6880951,200.045105 191.701416,216.7805786 191.701416,215.2072601 "/>
<polygon class="st6" points="191.701416,216.7805786 191.701416,215.2072601 75.7546768,148.2653809 75.7546768,149.8386993 "/>
<polygon class="st7" points="86.189888,148.115097 86.189888,126.6936951 104.7413635,137.4043884 104.7413635,158.8257904 "/>
<polygon class="st8" points="86.189888,126.6936951 104.7413635,115.9829941 123.2928314,126.6936874 104.7413635,137.4043884 "/>
<polygon class="st9" points="104.7413635,137.4043884 104.7413635,158.8257904 123.2927933,148.1150665 123.2928314,126.6936874 "/>
<polygon class="st10" points="112.9267044,120.7088089 94.3752289,131.4195404 96.5560074,132.6785583 115.1074829,121.9678421 "/>
<polygon class="st2" points="94.3752289,131.4195404 94.3752289,135.4472504 95.4656143,137.0836945 96.5560074,136.7062683 
	96.5560074,132.6785583 "/>
<polygon class="st11" points="100.8334732,139.9429779 100.8334732,136.8565826 103.4906387,138.3907013 103.4906387,141.4770966 
	"/>
<polygon class="st12" points="122.0965652,147.2214966 122.0965652,144.9315033 118.1252289,147.22435 118.1252289,149.5143585 "/>
<polygon class="st7" points="115.1765671,164.8505707 115.1765671,143.4291687 133.7280426,154.1398621 133.7280426,175.561264 "/>
<polygon class="st8" points="115.1765671,143.4291687 133.7280426,132.7184601 152.2795105,143.4291534 133.7280426,154.1398621 "/>
<polygon class="st9" points="133.7280426,154.1398621 133.7280426,175.561264 152.2794647,164.8505402 152.2795105,143.4291534 "/>
<polygon class="st10" points="141.9133759,137.4442902 123.3619003,148.1549988 125.5426788,149.414032 144.094162,138.7033081 "/>
<polygon class="st2" points="123.3619003,148.1549988 123.3619003,152.1827087 124.4522934,153.8191528 125.5426788,153.4417419 
	125.5426788,149.414032 "/>
<polygon class="st11" points="129.8201447,156.6784515 129.8201447,153.5920563 132.4773102,155.1261749 132.4773102,158.2125702 
	"/>
<polygon class="st12" points="151.0832367,163.9569702 151.0832367,161.6669617 147.111908,163.9598236 147.111908,166.2498322 "/>
<polygon class="st7" points="144.1632538,181.5860291 144.1632538,160.1646271 162.7147369,170.8753357 162.7147369,192.2967377 "/>
<polygon class="st8" points="144.1632538,160.1646271 162.7147217,149.4539337 181.2662048,160.1646271 162.7147369,170.8753357 "/>
<polygon class="st9" points="162.7147369,170.8753357 162.7147369,192.2967377 181.2661591,181.5859985 181.2662048,160.1646271 "/>
<polygon class="st10" points="170.9000702,154.1797485 152.348587,164.8904724 154.5293732,166.1495056 173.0808563,155.4387817 "/>
<polygon class="st2" points="152.348587,164.8904724 152.348587,168.9181824 153.4389801,170.5546265 154.5293732,170.1772156 
	154.5293732,166.1495056 "/>
<polygon class="st11" points="158.806839,173.4139252 158.806839,170.3275146 161.4640045,171.8616333 161.4640045,174.9480438 "/>
<polygon class="st12" points="180.069931,180.6924438 180.069931,178.4024353 176.0986023,180.695282 176.0986023,182.9852905 "/>
<polygon class="st4" points="75.7546692,114.7944336 104.7413559,98.0589676 220.6880951,165.0008392 191.7014008,181.7363129 "/>
<polygon class="st4" points="75.7546692,116.3677597 104.7413559,99.6322937 220.6880951,166.574173 191.7014008,183.3096466 "/>
<polygon class="st5" points="220.6880951,165.0008392 220.6880951,166.574173 191.7014008,183.3096466 191.7014008,181.7363129 "/>
<polygon class="st6" points="191.7014008,183.3096466 191.7014008,181.7363129 75.7546692,114.7944336 75.7546692,116.3677597 "/>
<polygon class="st0" points="220.6880951,310.2713928 220.6880951,158.6499329 222.3918304,157.6662903 222.3918304,309.2877197 "/>
<polygon class="st1" points="220.6880951,310.2713928 220.6880951,158.6499329 218.9843597,157.6662903 218.9843597,309.2877197 "/>
<polygon class="st2" points="220.6880951,158.6499329 218.9843597,157.6662903 220.6880951,156.6826477 222.3918304,157.6662903 "/>
<polygon class="st3" points="194.7652283,313.534729 194.7652283,315.4957581 220.3432922,273.1542664 220.3432922,271.1932373 "/>
<polygon class="st0" points="220.3432922,271.1932373 194.7652283,313.534729 193.8489227,313.0057068 219.4269867,270.6642151 "/>
<polygon class="st3" points="194.7652283,285.9607239 220.3433075,298.9455566 220.3433075,300.728241 194.7652283,287.7434082 "/>
<polygon class="st3" points="194.7652283,280.0342102 194.7652283,281.9952698 220.3432922,239.6537628 220.3432922,237.6927338 "/>
<polygon class="st0" points="220.3432922,237.6927338 194.7652283,280.0342102 193.8489227,279.505188 219.4269867,237.1637115 "/>
<polygon class="st3" points="194.7652283,252.4602356 220.3433075,265.4450684 220.3433075,267.2277527 194.7652283,254.2429199 "/>
<polygon class="st3" points="194.7652283,246.0856018 194.7652283,248.0466461 220.3432922,205.7051544 220.3432922,203.7441254 "/>
<polygon class="st0" points="220.3432922,203.7441254 194.7652283,246.0856018 193.8489227,245.5565796 219.4269867,203.2150879 "/>
<polygon class="st3" points="194.7652283,218.5116119 220.3433075,231.49646 220.3433075,233.279129 194.7652283,220.2942963 "/>
<polygon class="st3" points="194.7652283,213.1219025 194.7652283,215.0829315 220.3432922,172.7414551 220.3432922,170.7804108 "/>
<polygon class="st0" points="220.3432922,170.7804108 194.7652283,213.1219025 193.8489227,212.592865 219.4269867,170.2513885 "/>
<polygon class="st3" points="194.7652283,185.5479126 220.3433075,198.5327454 220.3433075,200.3154297 194.7652283,187.3305969 "/>
<polygon class="st0" points="193.4051361,326.0437012 193.4051361,174.4222412 195.1088715,173.4385986 195.1088715,325.0600281 "/>
<polygon class="st1" points="193.4051361,326.0437012 193.4051361,174.4222412 191.7014008,173.4385986 191.7014008,325.0600281 "/>
<polygon class="st2" points="193.4051361,174.4222412 191.7014008,173.4385986 193.4051361,172.4549561 195.1088715,173.4385986 "/>
<polygon class="st0" points="222.8375549,311.5123596 222.8375549,159.8909149 224.5412903,158.9072723 224.5412903,310.528717 "/>
<polygon class="st1" points="222.8375549,311.5123596 222.8375549,159.8909149 221.1338196,158.9072723 221.1338196,310.528717 "/>
<polygon class="st2" points="222.8375549,159.8909149 221.1338196,158.9072723 222.8375549,157.9236298 224.5412903,158.9072723 "/>
<polygon class="st3" points="196.9146881,314.7756958 196.9146881,316.7367554 222.4927521,274.3952637 222.4927521,272.4342041 "/>
<polygon class="st0" points="222.4927521,272.4342041 196.9146881,314.7756958 195.9983826,314.2466736 221.5764465,271.9051819 "/>
<polygon class="st3" points="196.9146881,287.2017212 222.4927521,300.186554 222.4927521,301.9692383 196.9146881,288.9844055 "/>
<polygon class="st3" points="196.9146881,281.2752075 196.9146881,283.2362366 222.4927521,240.8947449 222.4927521,238.9337158 "/>
<polygon class="st0" points="222.4927521,238.9337158 196.9146881,281.2752075 195.9983826,280.7461853 221.5764465,238.4046936 "/>
<polygon class="st3" points="196.9146881,253.7012177 222.4927521,266.6860352 222.4927521,268.4687195 196.9146881,255.483902 "/>
<polygon class="st3" points="196.9146881,247.3265839 196.9146881,249.2876282 222.4927521,206.9461365 222.4927521,204.9850922 "/>
<polygon class="st0" points="222.4927521,204.9850922 196.9146881,247.3265839 195.9983826,246.7975616 221.5764465,204.4560699 "/>
<polygon class="st3" points="196.9146881,219.752594 222.4927521,232.7374268 222.4927521,234.5201111 196.9146881,221.5352783 "/>
<polygon class="st3" points="196.9146881,214.3628845 196.9146881,216.3239136 222.4927521,173.9824371 222.4927521,172.0213928 "/>
<polygon class="st0" points="222.4927521,172.0213928 196.9146881,214.3628845 195.9983826,213.833847 221.5764465,171.4923706 "/>
<polygon class="st3" points="196.9146881,186.7888947 222.4927521,199.7737274 222.4927521,201.5564117 196.9146881,188.571579 "/>
<polygon class="st0" points="195.5545959,327.284668 195.5545959,175.6632233 197.2583313,174.6795807 197.2583313,326.3010254 "/>
<polygon class="st1" points="195.5545959,327.284668 195.5545959,175.6632233 193.8508606,174.6795807 193.8508606,326.3010254 "/>
<polygon class="st2" points="195.5545959,175.6632233 193.8508606,174.6795807 195.5545959,173.6959381 197.2583313,174.6795807 "/>
<polygon class="st4" points="195.5545959,317.8447266 224.541275,301.1092529 340.4880066,368.0511169 311.5013123,384.7865906 "/>
<polygon class="st4" points="195.5545959,319.4180298 224.541275,302.6825562 340.4880066,369.6244507 311.5013123,386.3599243 "/>
<polygon class="st5" points="340.4880066,368.0511169 340.4880066,369.6244507 311.5013123,386.3599243 311.5013123,384.7865906 "/>
<polygon class="st6" points="311.5013123,386.3599243 311.5013123,384.7865906 195.5545959,317.8447266 195.5545959,319.4180298 "/>
<polygon class="st7" points="205.9898071,317.6944275 205.9898071,296.2730408 224.541275,306.9837341 224.541275,328.4051208 "/>
<polygon class="st8" points="205.9898071,296.2730408 224.541275,285.5623474 243.0927429,296.2730408 224.541275,306.9837341 "/>
<polygon class="st9" points="224.541275,306.9837341 224.541275,328.4051208 243.0927124,317.694397 243.0927429,296.2730408 "/>
<polygon class="st10" points="232.7266235,290.288147 214.1751404,300.9988708 216.3559113,302.2579041 234.9073944,291.5471802 "/>
<polygon class="st2" points="214.1751404,300.9988708 214.1751404,305.0265808 215.2655334,306.6630249 216.3559113,306.285614 
	216.3559113,302.2579041 "/>
<polygon class="st11" points="220.6333923,309.5223083 220.6333923,306.4359131 223.2905579,307.9700317 223.2905579,311.056427 "/>
<polygon class="st12" points="241.8964691,316.8008423 241.8964691,314.5108337 237.9251404,316.8036804 237.9251404,319.093689 "/>
<polygon class="st7" points="234.9764709,334.4299011 234.9764709,313.0085144 253.5279541,323.7192078 253.5279541,345.1405945 "/>
<polygon class="st8" points="234.9764709,313.0085144 253.5279541,302.2977905 272.0794067,313.0084839 253.5279541,323.7192078 "/>
<polygon class="st9" points="253.5279541,323.7192078 253.5279541,345.1405945 272.0793762,334.4298706 272.0794067,313.0084839 "/>
<polygon class="st10" points="261.7132874,307.0236206 243.1618195,317.7343445 245.3425903,318.9933777 263.8940735,308.2826538 
	"/>
<polygon class="st2" points="243.1618195,317.7343445 243.1618195,321.7620544 244.2521973,323.3984985 245.3425903,323.0210876 
	245.3425903,318.9933777 "/>
<polygon class="st11" points="249.6200562,326.257782 249.6200562,323.1713867 252.2772217,324.7055054 252.2772217,327.7919006 "/>
<polygon class="st12" points="270.8831482,333.5363159 270.8831482,331.2463074 266.9118042,333.5391541 266.9118042,335.8291626 
	"/>
<polygon class="st7" points="263.9631653,351.1653748 263.9631653,329.7439575 282.5146484,340.4546814 282.5146484,361.8760681 "/>
<polygon class="st8" points="263.9631653,329.7439575 282.5146484,319.0332642 301.0661011,329.7439575 282.5146484,340.4546814 "/>
<polygon class="st9" points="282.5146484,340.4546814 282.5146484,361.8760681 301.0660706,351.1653442 301.0661011,329.7439575 "/>
<polygon class="st10" points="290.6999817,323.7590942 272.1484985,334.4698181 274.3292847,335.7288513 292.8807678,325.0181274 
	"/>
<polygon class="st2" points="272.1484985,334.4698181 272.1484985,338.4975281 273.2388916,340.1339722 274.3292847,339.7565613 
	274.3292847,335.7288513 "/>
<polygon class="st11" points="278.6067505,342.9932556 278.6067505,339.9068604 281.263916,341.440979 281.263916,344.5273743 "/>
<polygon class="st12" points="299.8698425,350.2717896 299.8698425,347.981781 295.8984985,350.2746277 295.8984985,352.5646362 "/>
<polygon class="st7" points="292.9498596,367.9008484 292.9498596,346.4794312 311.5013428,357.190155 311.5013428,378.6115417 "/>
<polygon class="st8" points="292.9498596,346.4794312 311.5013123,335.7687378 330.0527954,346.4794312 311.5013428,357.190155 "/>
<polygon class="st9" points="311.5013428,357.190155 311.5013428,378.6115417 330.0527649,367.9008179 330.0527954,346.4794312 "/>
<polygon class="st10" points="319.686676,340.4945679 301.1351929,351.2052917 303.315979,352.464325 321.8674622,341.7536011 "/>
<polygon class="st2" points="301.1351929,351.2052917 301.1351929,355.2330017 302.2255859,356.8694458 303.315979,356.4920349 
	303.315979,352.464325 "/>
<polygon class="st11" points="307.5934448,359.7287292 307.5934448,356.642334 310.2506104,358.1764526 310.2506104,361.2628479 "/>
<polygon class="st12" points="328.8565369,367.0072327 328.8565369,364.7172546 324.8851929,367.0101013 324.8851929,369.3001099 
	"/>
<polygon class="st4" points="195.5545959,284.3737793 224.541275,267.6383057 340.4880066,334.5801697 311.5013123,351.3156433 "/>
<polygon class="st4" points="195.5545959,285.947113 224.541275,269.2116394 340.4880066,336.1535034 311.5013123,352.8889771 "/>
<polygon class="st5" points="340.4880066,334.5801697 340.4880066,336.1535034 311.5013123,352.8889771 311.5013123,351.3156433 "/>
<polygon class="st6" points="311.5013123,352.8889771 311.5013123,351.3156433 195.5545959,284.3737793 195.5545959,285.947113 "/>
<polygon class="st7" points="205.9898071,284.2234802 205.9898071,262.8020935 224.541275,273.5127869 224.541275,294.9342041 "/>
<polygon class="st8" points="205.9898071,262.8020935 224.541275,252.0914001 243.0927429,262.8020935 224.541275,273.5127869 "/>
<polygon class="st9" points="224.541275,273.5127869 224.541275,294.9342041 243.0927124,284.2234802 243.0927429,262.8020935 "/>
<polygon class="st10" points="232.7266235,256.8171997 214.1751404,267.5279236 216.3559113,268.7869568 234.9073944,258.0762329 
	"/>
<polygon class="st2" points="214.1751404,267.5279236 214.1751404,271.5556335 215.2655334,273.1920776 216.3559113,272.8146667 
	216.3559113,268.7869568 "/>
<polygon class="st11" points="220.6333923,276.0513916 220.6333923,272.9649963 223.2905579,274.4990845 223.2905579,277.5855103 
	"/>
<polygon class="st12" points="241.8964691,283.329895 241.8964691,281.0398865 237.9251404,283.3327332 237.9251404,285.6227417 "/>
<polygon class="st7" points="234.9764709,300.9589539 234.9764709,279.5375671 253.5279541,290.2482605 253.5279541,311.6696777 "/>
<polygon class="st8" points="234.9764709,279.5375671 253.5279541,268.8268738 272.0794067,279.5375671 253.5279541,290.2482605 "/>
<polygon class="st9" points="253.5279541,290.2482605 253.5279541,311.6696777 272.0793762,300.9589233 272.0794067,279.5375671 "/>
<polygon class="st10" points="261.7132874,273.5526733 243.1618195,284.2633972 245.3425903,285.5224304 263.8940735,274.8117065 
	"/>
<polygon class="st2" points="243.1618195,284.2633972 243.1618195,288.2911072 244.2521973,289.9275513 245.3425903,289.5501404 
	245.3425903,285.5224304 "/>
<polygon class="st11" points="249.6200562,292.7868652 249.6200562,289.7004395 252.2772217,291.2345581 252.2772217,294.3209839 
	"/>
<polygon class="st12" points="270.8831482,300.0653687 270.8831482,297.7753601 266.9118042,300.0682068 266.9118042,302.3582153 
	"/>
<polygon class="st7" points="263.9631653,317.6944275 263.9631653,296.2730408 282.5146484,306.9837341 282.5146484,328.4051208 "/>
<polygon class="st8" points="263.9631653,296.2730408 282.5146484,285.5623169 301.0661011,296.2730103 282.5146484,306.9837341 "/>
<polygon class="st9" points="282.5146484,306.9837341 282.5146484,328.4051208 301.0660706,317.694397 301.0661011,296.2730103 "/>
<polygon class="st10" points="290.6999817,290.288147 272.1484985,300.9988708 274.3292847,302.2579041 292.8807678,291.5471802 "/>
<polygon class="st2" points="272.1484985,300.9988708 272.1484985,305.0265808 273.2388916,306.6630249 274.3292847,306.285614 
	274.3292847,302.2579041 "/>
<polygon class="st11" points="278.6067505,309.5223083 278.6067505,306.4359131 281.263916,307.9700317 281.263916,311.056427 "/>
<polygon class="st12" points="299.8698425,316.8008423 299.8698425,314.5108337 295.8984985,316.8036804 295.8984985,319.093689 "/>
<polygon class="st7" points="292.9498596,334.4299011 292.9498596,313.0085144 311.5013428,323.7192078 311.5013428,345.1405945 "/>
<polygon class="st8" points="292.9498596,313.0085144 311.5013123,302.2977905 330.0527954,313.0084839 311.5013428,323.7192078 "/>
<polygon class="st9" points="311.5013428,323.7192078 311.5013428,345.1405945 330.0527649,334.4298706 330.0527954,313.0084839 "/>
<polygon class="st10" points="319.686676,307.0236206 301.1351929,317.7343445 303.315979,318.9933777 321.8674622,308.2826538 "/>
<polygon class="st2" points="301.1351929,317.7343445 301.1351929,321.7620544 302.2255859,323.3984985 303.315979,323.0210876 
	303.315979,318.9933777 "/>
<polygon class="st11" points="307.5934448,326.257782 307.5934448,323.1713867 310.2506104,324.7055054 310.2506104,327.7919006 "/>
<polygon class="st12" points="328.8565369,333.5363159 328.8565369,331.2463074 324.8851929,333.5391541 324.8851929,335.8291626 
	"/>
<polygon class="st4" points="195.5545959,250.902832 224.541275,234.1673584 340.4880066,301.1092529 311.5013428,317.8447266 "/>
<polygon class="st4" points="195.5545959,252.4761658 224.541275,235.7406921 340.4880066,302.6825562 311.5013428,319.4180298 "/>
<polygon class="st5" points="340.4880066,301.1092529 340.4880066,302.6825562 311.5013428,319.4180298 311.5013428,317.8447266 "/>
<polygon class="st6" points="311.5013428,319.4180298 311.5013428,317.8447266 195.5545959,250.902832 195.5545959,252.4761658 "/>
<polygon class="st7" points="205.9898071,250.7525482 205.9898071,229.3311462 224.541275,240.0418549 224.541275,261.4632568 "/>
<polygon class="st8" points="205.9898071,229.3311462 224.541275,218.6204529 243.0927429,229.3311462 224.541275,240.0418549 "/>
<polygon class="st9" points="224.541275,240.0418549 224.541275,261.4632568 243.0927124,250.7525177 243.0927429,229.3311462 "/>
<polygon class="st10" points="232.7266235,223.3462677 214.1751404,234.0569916 216.3559265,235.3160248 234.9073944,224.6053009 
	"/>
<polygon class="st2" points="214.1751404,234.0569916 214.1751404,238.0847015 215.2655334,239.7211456 216.3559265,239.3437347 
	216.3559265,235.3160248 "/>
<polygon class="st11" points="220.6333923,242.5804443 220.6333923,239.4940338 223.2905579,241.0281525 223.2905579,244.114563 "/>
<polygon class="st12" points="241.8964844,249.858963 241.8964844,247.5689545 237.9251404,249.8618011 237.9251404,252.1518097 "/>
<polygon class="st7" points="234.9764862,267.4880066 234.9764862,246.0666199 253.5279541,256.7773132 253.5279541,278.1987305 "/>
<polygon class="st8" points="234.9764862,246.0666199 253.5279541,235.3559265 272.0794373,246.0666199 253.5279541,256.7773132 "/>
<polygon class="st9" points="253.5279541,256.7773132 253.5279541,278.1987305 272.0793762,267.4880066 272.0794373,246.0666199 "/>
<polygon class="st10" points="261.7132874,240.0817413 243.1618195,250.7924652 245.3425903,252.0514984 263.8940735,241.3407745 
	"/>
<polygon class="st2" points="243.1618195,250.7924652 243.1618195,254.8201752 244.2522125,256.456604 245.3425903,256.0791931 
	245.3425903,252.0514984 "/>
<polygon class="st11" points="249.6200562,259.315918 249.6200714,256.2295227 252.2772369,257.7636414 252.2772369,260.8500366 "/>
<polygon class="st12" points="270.8831482,266.5944214 270.8831482,264.3044128 266.9118042,266.59729 266.9118042,268.8872986 "/>
<polygon class="st7" points="263.9631653,284.2234802 263.9631653,262.8020935 282.5146484,273.5127869 282.5146484,294.9342041 "/>
<polygon class="st8" points="263.9631653,262.8020935 282.5146484,252.0913849 301.0661316,262.8020935 282.5146484,273.5127869 "/>
<polygon class="st9" points="282.5146484,273.5127869 282.5146484,294.9342041 301.0660706,284.2234497 301.0661316,262.8020935 "/>
<polygon class="st10" points="290.6999817,256.8171997 272.1484985,267.5279236 274.3292847,268.7869568 292.8807678,258.0762329 
	"/>
<polygon class="st2" points="272.1484985,267.5279236 272.1484985,271.5556335 273.2388916,273.1920776 274.3292847,272.8146667 
	274.3292847,268.7869568 "/>
<polygon class="st11" points="278.6067505,276.0513916 278.6067505,272.9649658 281.263916,274.4990845 281.263916,277.5855103 "/>
<polygon class="st12" points="299.8698425,283.329895 299.8698425,281.0398865 295.8984985,283.3327332 295.8984985,285.6227417 "/>
<polygon class="st7" points="292.9498596,300.9589539 292.9498596,279.5375671 311.5013428,290.2482605 311.5013428,311.6696472 "/>
<polygon class="st8" points="292.9498596,279.5375671 311.5013428,268.8268738 330.0527954,279.5375671 311.5013428,290.2482605 "/>
<polygon class="st9" points="311.5013428,290.2482605 311.5013428,311.6696472 330.0527649,300.9589233 330.0527954,279.5375671 "/>
<polygon class="st10" points="319.686676,273.5526733 301.1351929,284.2633972 303.315979,285.5224304 321.8674622,274.8117065 "/>
<polygon class="st2" points="301.1351929,284.2633972 301.1351929,288.2911072 302.2255859,289.9275513 303.315979,289.5501404 
	303.315979,285.5224304 "/>
<polygon class="st11" points="307.5934448,292.7868347 307.5934448,289.7004395 310.2506104,291.2345581 310.2506104,294.3209534 
	"/>
<polygon class="st12" points="328.8565369,300.0653687 328.8565369,297.7753601 324.8851929,300.0682068 324.8851929,302.3582153 
	"/>
<polygon class="st4" points="195.5545959,217.4319 224.541275,200.6964264 340.4880066,267.6383057 311.5013428,284.3737793 "/>
<polygon class="st4" points="195.5545959,219.0052185 224.541275,202.2697449 340.4880066,269.2116394 311.5013428,285.947113 "/>
<polygon class="st5" points="340.4880066,267.6383057 340.4880066,269.2116394 311.5013428,285.947113 311.5013428,284.3737793 "/>
<polygon class="st6" points="311.5013428,285.947113 311.5013428,284.3737793 195.5545959,217.4319 195.5545959,219.0052185 "/>
<polygon class="st7" points="205.9898071,217.2816162 205.9898071,195.8602142 224.541275,206.5709076 224.541275,227.9923096 "/>
<polygon class="st8" points="205.9898071,195.8602142 224.541275,185.1495056 243.0927429,195.860199 224.541275,206.5709076 "/>
<polygon class="st9" points="224.541275,206.5709076 224.541275,227.9923096 243.0927124,217.2815857 243.0927429,195.860199 "/>
<polygon class="st10" points="232.7266235,189.8753357 214.1751404,200.5860596 216.3559265,201.8450775 234.9073944,191.1343536 
	"/>
<polygon class="st2" points="214.1751404,200.5860596 214.1751404,204.6137543 215.2655334,206.2501984 216.3559265,205.8727875 
	216.3559265,201.8450775 "/>
<polygon class="st11" points="220.6333923,209.1094971 220.6333923,206.0231018 223.2905579,207.5572205 223.2905579,210.6436157 
	"/>
<polygon class="st12" points="241.8964844,216.3880157 241.8964844,214.0980072 237.9251404,216.3908691 237.9251404,218.6808777 
	"/>
<polygon class="st7" points="234.9764862,234.0170746 234.9764862,212.5956879 253.5279541,223.3063812 253.5279541,244.7277832 "/>
<polygon class="st8" points="234.9764862,212.5956879 253.5279541,201.8849792 272.0794373,212.5956726 253.5279541,223.3063812 "/>
<polygon class="st9" points="253.5279541,223.3063812 253.5279541,244.7277832 272.0793762,234.0170593 272.0794373,212.5956726 "/>
<polygon class="st10" points="261.7132874,206.6107941 243.1618195,217.3215179 245.3425903,218.5805511 263.8940735,207.8698273 
	"/>
<polygon class="st2" points="243.1618195,217.3215179 243.1618195,221.3492279 244.2522125,222.985672 245.3425903,222.6082611 
	245.3425903,218.5805511 "/>
<polygon class="st11" points="249.6200562,225.8449707 249.6200714,222.7585754 252.2772369,224.2926941 252.2772369,227.3790894 
	"/>
<polygon class="st12" points="270.8831482,233.1234894 270.8831482,230.8334808 266.9118042,233.1263428 266.9118042,235.4163513 
	"/>
<polygon class="st7" points="263.9631653,250.7525482 263.9631653,229.3311462 282.5146484,240.0418549 282.5146484,261.4632568 "/>
<polygon class="st8" points="263.9631653,229.3311462 282.5146484,218.6204529 301.0661316,229.3311462 282.5146484,240.0418549 "/>
<polygon class="st9" points="282.5146484,240.0418549 282.5146484,261.4632568 301.0660706,250.7525177 301.0661316,229.3311462 "/>
<polygon class="st10" points="290.6999817,223.3462677 272.1484985,234.0569916 274.3292847,235.3160248 292.8807678,224.6053009 
	"/>
<polygon class="st2" points="272.1484985,234.0569916 272.1484985,238.0847015 273.2388916,239.7211456 274.3292847,239.3437347 
	274.3292847,235.3160248 "/>
<polygon class="st11" points="278.6067505,242.5804443 278.6067505,239.4940338 281.263916,241.0281525 281.263916,244.114563 "/>
<polygon class="st12" points="299.8698425,249.858963 299.8698425,247.5689545 295.8984985,249.8618011 295.8984985,252.1518097 "/>
<polygon class="st4" points="195.5545807,183.9609528 224.541275,167.2254791 340.4880066,234.1673584 311.5013123,250.902832 "/>
<polygon class="st4" points="195.5545807,185.5342865 224.541275,168.7988129 340.4880066,235.7406921 311.5013123,252.4761658 "/>
<polygon class="st5" points="340.4880066,234.1673584 340.4880066,235.7406921 311.5013123,252.4761658 311.5013123,250.902832 "/>
<polygon class="st6" points="311.5013123,252.4761658 311.5013123,250.902832 195.5545807,183.9609528 195.5545807,185.5342865 "/>
<polygon class="st0" points="340.4880066,379.4378967 340.4880066,227.816452 342.1917419,226.8328094 342.1917419,378.4542542 "/>
<polygon class="st1" points="340.4880066,379.4378967 340.4880066,227.816452 338.7842712,226.8328094 338.7842712,378.4542542 "/>
<polygon class="st2" points="340.4880066,227.816452 338.7842712,226.8328094 340.4880066,225.8491669 342.1917419,226.8328094 "/>
<polygon class="st3" points="314.565155,382.7012329 314.565155,384.6622925 340.143219,342.3208008 340.143219,340.3597412 "/>
<polygon class="st0" points="340.143219,340.3597412 314.565155,382.7012329 313.6488342,382.1722107 339.2268982,339.830719 "/>
<polygon class="st3" points="314.565155,355.1272583 340.143219,368.1120911 340.143219,369.8947754 314.565155,356.9099426 "/>
<polygon class="st3" points="314.565155,349.2007446 314.565155,351.1617737 340.143219,308.820282 340.143219,306.8592529 "/>
<polygon class="st0" points="340.143219,306.8592529 314.565155,349.2007446 313.6488342,348.6717224 339.2268982,306.3302307 "/>
<polygon class="st3" points="314.565155,321.6267395 340.143219,334.6115723 340.143219,336.3942566 314.565155,323.4094238 "/>
<polygon class="st3" points="314.565155,315.2521057 314.565155,317.2131653 340.143219,274.8716736 340.143219,272.9106445 "/>
<polygon class="st0" points="340.143219,272.9106445 314.565155,315.2521057 313.6488342,314.7230835 339.2268982,272.3816223 "/>
<polygon class="st3" points="314.565155,287.6781311 340.143219,300.6629639 340.143219,302.4456482 314.565155,289.4608154 "/>
<polygon class="st3" points="314.565155,282.2884216 314.565155,284.2494507 340.143219,241.9079742 340.143219,239.9469299 "/>
<polygon class="st0" points="340.143219,239.9469299 314.565155,282.2884216 313.6488342,281.7593994 339.2268982,239.4179077 "/>
<polygon class="st3" points="314.565155,254.7144318 340.143219,267.6992798 340.143219,269.4819336 314.565155,256.4971008 "/>
<polygon class="st0" points="313.2050476,395.2102051 313.2050476,243.5887604 314.908783,242.6051178 314.908783,394.2265625 "/>
<polygon class="st1" points="313.2050476,395.2102051 313.2050476,243.5887604 311.5013123,242.6051178 311.5013123,394.2265625 "/>
<polygon class="st2" points="313.2050476,243.5887604 311.5013123,242.6051178 313.2050476,241.6214752 314.908783,242.6051178 "/>
<g class="st13">
	<polygon class="st14" points="330.7134399,210.7444916 330.7134399,200.0700531 339.9577637,205.4072723 339.9577637,216.0817108 	
		"/>
	<polygon class="st15" points="330.7134399,200.0700531 339.9577637,194.7328339 349.2021179,200.0700531 339.9577637,205.4072723 	
		"/>
	<polygon class="st16" points="339.9577637,205.4072723 339.9577637,216.0817108 349.2020874,210.7444763 349.2021179,200.0700531 	
		"/>
	<polygon class="st17" points="344.0365906,197.087738 334.7922363,202.4249725 335.8789368,203.0523529 345.123291,197.7151184 	
		"/>
	<polygon class="st18" points="334.7922363,202.4249725 334.7922363,204.4320068 335.3356018,205.247467 335.8789368,205.0593872 
		335.8789368,203.0523529 	"/>
	<polygon class="st19" points="338.010437,206.6722717 338.010437,205.1342926 339.3345337,205.8987579 339.3345337,207.4367371 	
		"/>
	<polygon class="st20" points="348.6059875,210.2992096 348.6059875,209.1580811 346.6270447,210.3006287 346.6270447,211.4417572 	
		"/>
</g>
</svg>
