<?xml version="1.0" encoding="utf-8"?>
<!-- Generator: Adobe Illustrator 22.0.0, SVG Export Plug-In . SVG Version: 6.00 Build 0)  -->
<svg version="1.1" id="warehouse_x5F_pc_1_" xmlns="http://www.w3.org/2000/svg" xmlns:xlink="http://www.w3.org/1999/xlink"
	 x="0px" y="0px" viewBox="0 0 479.0195007 437.7582092" style="enable-background:new 0 0 479.0195007 437.7582092;"
	 xml:space="preserve">
<style type="text/css">
	.st0{fill:#A3A3A3;}
	.st1{fill:#949494;}
	.st2{fill:#B3B3B3;}
	.st3{fill:#848484;}
	.st4{fill:#3A3A3A;}
	.st5{fill:#333333;}
	.st6{fill:#292929;}
	.st7{fill:#D0D0D0;}
	.st8{fill:#ECECEC;}
	.st9{fill:#FFFFFF;}
	.st10{fill:#C6C6C6;}
	.st11{fill:#E6001E;}
	.st12{fill:#BDBDBD;}
	.st13{fill:#1F1F1F;}
	.st14{fill:#757575;}
	.st15{fill:#565656;}
	.st16{fill:#43B2E6;}
	.st17{fill:#73D4FF;}
	.st18{fill:#64D0FF;}
	.st19{fill:#666666;}
	.st20{fill:#D9D9D9;}
	.st21{fill:#53C1F2;}
</style>
<polygon class="st0" points="239.865387,163.3687897 239.865387,11.7473431 241.5691223,10.7636976 241.5691223,162.3851318 "/>
<polygon class="st1" points="239.865387,163.3687897 239.865387,11.7473431 238.1616516,10.7636976 238.1616516,162.3851318 "/>
<polygon class="st2" points="239.865387,11.7473431 238.1616516,10.7636976 239.865387,9.7800522 241.5691223,10.7636976 "/>
<polygon class="st3" points="213.9425201,166.6321259 213.9425201,168.5931702 239.5205841,126.2516785 239.5205841,124.2906418 "/>
<polygon class="st0" points="239.5205841,124.2906418 213.9425201,166.6321259 213.0262146,166.1031036 238.6042786,123.7616119 "/>
<polygon class="st3" points="213.9425201,139.058136 239.5205841,152.0429688 239.5205841,153.8256531 213.9425201,140.8408203 "/>
<polygon class="st3" points="213.9425201,133.1316223 213.9425201,135.0926666 239.5205841,92.7511749 239.5205841,90.7901382 "/>
<polygon class="st0" points="239.5205841,90.7901382 213.9425201,133.1316223 213.0262146,132.6026001 238.6042786,90.2611084 "/>
<polygon class="st3" points="213.9425201,105.5576401 239.5205841,118.5424728 239.5205841,120.3251572 213.9425201,107.3403244 "/>
<polygon class="st3" points="213.9425201,99.1830063 213.9425201,101.1440506 239.5205841,58.8025627 239.5205841,56.8415222 "/>
<polygon class="st0" points="239.5205841,56.8415222 213.9425201,99.1830063 213.0262146,98.6539841 238.6042786,56.3124962 "/>
<polygon class="st3" points="213.9425201,71.609024 239.5205841,84.5938568 239.5205841,86.3765411 213.9425201,73.3917084 "/>
<polygon class="st3" points="213.9425201,66.2193069 213.9425201,68.1803436 239.5205841,25.8388577 239.5205841,23.877821 "/>
<polygon class="st0" points="239.5205841,23.877821 213.9425201,66.2193069 213.0262146,65.6902771 238.6042786,23.348793 "/>
<polygon class="st3" points="213.9425201,38.6453209 239.5205841,51.6301537 239.5205841,53.412838 213.9425201,40.4280014 "/>
<polygon class="st0" points="212.582428,179.141098 212.582428,27.5196476 214.2861633,26.5360012 214.2861633,178.1574402 "/>
<polygon class="st1" points="212.582428,179.141098 212.582428,27.5196476 210.8786926,26.5360012 210.8786926,178.1574402 "/>
<polygon class="st2" points="212.582428,27.5196476 210.8786926,26.5360012 212.582428,25.5523567 214.2861633,26.5360012 "/>
<polygon class="st4" points="212.582428,169.7011414 241.5691071,152.9656677 357.5158386,219.907547 328.5291443,236.6430206 "/>
<polygon class="st4" points="212.582428,171.2744598 241.5691071,154.5390015 357.5158386,221.4808807 328.5291443,238.2163391 "/>
<polygon class="st5" points="357.5158386,219.907547 357.5158386,221.4808807 328.5291443,238.2163391 328.5291443,236.6430206 "/>
<polygon class="st6" points="328.5291443,238.2163391 328.5291443,236.6430206 212.582428,169.7011414 212.582428,171.2744598 "/>
<polygon class="st7" points="223.0176392,169.5508575 223.0176392,148.1294556 241.5691071,158.8401642 241.5691071,180.2615509 "/>
<polygon class="st8" points="223.0176392,148.1294556 241.5691071,137.4187622 260.120575,148.1294556 241.5691071,158.8401642 "/>
<polygon class="st9" points="241.5691071,158.8401642 241.5691071,180.2615509 260.1205444,169.550827 260.120575,148.1294556 "/>
<polygon class="st10" points="249.7544556,142.144577 231.2029724,152.8553009 233.3837433,154.1143341 251.9352264,143.4036102 "/>
<polygon class="st2" points="231.2029724,152.8553009 231.2029724,156.8830109 232.2933655,158.519455 233.3837433,158.1420441 
	233.3837433,154.1143341 "/>
<polygon class="st11" points="237.6612091,161.3787537 237.6612091,158.2923431 240.3183746,159.8264618 240.3183746,162.9128723 
	"/>
<polygon class="st12" points="258.9243164,168.6572571 258.9243164,166.3672638 254.9529724,168.6601105 254.9529724,170.950119 "/>
<polygon class="st7" points="252.004303,186.2863312 252.004303,164.8649292 270.5557861,175.5756226 270.5557861,196.9970245 "/>
<polygon class="st8" points="252.004303,164.8649292 270.5557861,154.1542358 289.1072388,164.8649139 270.5557861,175.5756226 "/>
<polygon class="st9" points="270.5557861,175.5756226 270.5557861,196.9970245 289.1072083,186.2863007 289.1072388,164.8649139 "/>
<polygon class="st10" points="278.7411194,158.8800507 260.1896362,169.5907745 262.3704224,170.8497925 280.9219055,160.1390686 
	"/>
<polygon class="st2" points="260.1896362,169.5907745 260.1896362,173.6184845 261.2800293,175.2549286 262.3704224,174.8775024 
	262.3704224,170.8497925 "/>
<polygon class="st11" points="266.6478882,178.114212 266.6478882,175.0278168 269.3050537,176.5619354 269.3050537,179.6483307 "/>
<polygon class="st12" points="287.9109802,185.3927307 287.9109802,183.1027374 283.9396362,185.3955841 283.9396362,187.6855927 
	"/>
<polygon class="st7" points="280.9909973,203.0217896 280.9909973,181.6004028 299.5424805,192.3110962 299.5424805,213.7324982 "/>
<polygon class="st8" points="280.9909973,181.6004028 299.5424805,170.8896942 318.0939331,181.6003876 299.5424805,192.3110962 "/>
<polygon class="st9" points="299.5424805,192.3110962 299.5424805,213.7324982 318.0939026,203.0217743 318.0939331,181.6003876 "/>
<polygon class="st10" points="307.7278137,175.615509 289.1763306,186.3262329 291.3571167,187.5852661 309.9085999,176.8745422 "/>
<polygon class="st2" points="289.1763306,186.3262329 289.1763306,190.3539429 290.2667236,191.990387 291.3571167,191.6129761 
	291.3571167,187.5852661 "/>
<polygon class="st11" points="295.6345825,194.8496857 295.6345825,191.7632904 298.291748,193.2973938 298.291748,196.3838043 "/>
<polygon class="st12" points="316.8976746,202.1282043 316.8976746,199.8381958 312.9263306,202.1310577 312.9263306,204.421051 "/>
<polygon class="st7" points="309.9776917,219.7572632 309.9776917,198.3358612 328.5291748,209.0465698 328.5291748,230.4679718 "/>
<polygon class="st8" points="309.9776917,198.3358612 328.5291443,187.6251678 347.0806274,198.3358612 328.5291748,209.0465698 "/>
<polygon class="st9" points="328.5291748,209.0465698 328.5291748,230.4679718 347.0805969,219.7572327 347.0806274,198.3358612 "/>
<polygon class="st10" points="336.7145081,192.3509827 318.1630249,203.0617065 320.343811,204.3207397 338.8952637,193.6100159 "/>
<polygon class="st2" points="318.1630249,203.0617065 318.1630249,207.0894165 319.253418,208.7258606 320.343811,208.3484497 
	320.343811,204.3207397 "/>
<polygon class="st11" points="324.6212769,211.5851593 324.6212769,208.4987488 327.2784424,210.0328674 327.2784424,213.119278 "/>
<polygon class="st12" points="345.8843689,218.863678 345.8843689,216.5736694 341.9130249,218.8665161 341.9130249,221.1565247 "/>
<polygon class="st4" points="212.582428,136.2301941 241.5691071,119.4947281 357.5158386,186.436615 328.5291443,203.1720734 "/>
<polygon class="st4" points="212.582428,137.8035278 241.5691071,121.0680542 357.5158386,188.0099335 328.5291443,204.7454071 "/>
<polygon class="st5" points="357.5158386,186.436615 357.5158386,188.0099335 328.5291443,204.7454071 328.5291443,203.1720734 "/>
<polygon class="st6" points="328.5291443,204.7454071 328.5291443,203.1720734 212.582428,136.2301941 212.582428,137.8035278 "/>
<polygon class="st7" points="223.0176392,136.0799103 223.0176392,114.6585159 241.5691071,125.3692169 241.5691071,146.7906189 "/>
<polygon class="st8" points="223.0176392,114.6585159 241.5691071,103.9478149 260.120575,114.6585083 241.5691071,125.3692169 "/>
<polygon class="st9" points="241.5691071,125.3692169 241.5691071,146.7906189 260.1205444,136.079895 260.120575,114.6585083 "/>
<polygon class="st10" points="249.7544556,108.6736374 231.2029724,119.3843613 233.3837433,120.6433868 251.9352264,109.932663 "/>
<polygon class="st2" points="231.2029724,119.3843613 231.2029724,123.4120712 232.2933655,125.0485077 233.3837433,124.6710968 
	233.3837433,120.6433868 "/>
<polygon class="st11" points="237.6612091,127.9078064 237.6612091,124.8214035 240.3183746,126.3555222 240.3183746,129.441925 "/>
<polygon class="st12" points="258.9243164,135.1863251 258.9243164,132.8963165 254.9529724,135.1891785 254.9529724,137.479187 "/>
<polygon class="st7" points="252.004303,152.8153839 252.004303,131.3939819 270.5557861,142.1046906 270.5557861,163.5260925 "/>
<polygon class="st8" points="252.004303,131.3939819 270.5557861,120.6832886 289.1072388,131.3939819 270.5557861,142.1046906 "/>
<polygon class="st9" points="270.5557861,142.1046906 270.5557861,163.5260925 289.1072083,152.8153687 289.1072388,131.3939819 "/>
<polygon class="st10" points="278.7411194,125.4091034 260.1896362,136.1198273 262.3704224,137.3788605 280.9219055,126.6681366 
	"/>
<polygon class="st2" points="260.1896362,136.1198273 260.1896362,140.1475372 261.2800293,141.7839813 262.3704224,141.4065704 
	262.3704224,137.3788605 "/>
<polygon class="st11" points="266.6478882,144.64328 266.6478882,141.5568848 269.3050537,143.0909882 269.3050537,146.1773987 "/>
<polygon class="st12" points="287.9109802,151.9217987 287.9109802,149.6317902 283.9396362,151.9246368 283.9396362,154.2146454 
	"/>
<polygon class="st7" points="280.9909973,169.5508575 280.9909973,148.1294556 299.5424805,158.8401489 299.5424805,180.2615509 "/>
<polygon class="st8" points="280.9909973,148.1294556 299.5424805,137.4187622 318.0939331,148.1294556 299.5424805,158.8401489 "/>
<polygon class="st9" points="299.5424805,158.8401489 299.5424805,180.2615509 318.0939026,169.550827 318.0939331,148.1294556 "/>
<polygon class="st10" points="307.7278137,142.144577 289.1763306,152.8553009 291.3571167,154.1143341 309.9085999,143.4036102 "/>
<polygon class="st2" points="289.1763306,152.8553009 289.1763306,156.8830109 290.2667236,158.519455 291.3571167,158.1420288 
	291.3571167,154.1143341 "/>
<polygon class="st11" points="295.6345825,161.3787537 295.6345825,158.2923431 298.291748,159.8264618 298.291748,162.9128571 "/>
<polygon class="st12" points="316.8976746,168.6572571 316.8976746,166.3672638 312.9263306,168.6601105 312.9263306,170.950119 "/>
<polygon class="st7" points="309.9776917,186.2863312 309.9776917,164.8649292 328.5291748,175.5756226 328.5291748,196.9970245 "/>
<polygon class="st8" points="309.9776917,164.8649292 328.5291443,154.1542206 347.0806274,164.8649139 328.5291748,175.5756226 "/>
<polygon class="st9" points="328.5291748,175.5756226 328.5291748,196.9970245 347.0805969,186.2863007 347.0806274,164.8649139 "/>
<polygon class="st10" points="336.7145081,158.8800507 318.1630249,169.5907745 320.343811,170.8497925 338.8952637,160.1390686 "/>
<polygon class="st2" points="318.1630249,169.5907745 318.1630249,173.6184692 319.253418,175.2549133 320.343811,174.8775024 
	320.343811,170.8497925 "/>
<polygon class="st11" points="324.6212769,178.114212 324.6212769,175.0278168 327.2784424,176.5619354 327.2784424,179.6483307 "/>
<polygon class="st12" points="345.8843689,185.3927307 345.8843689,183.1027222 341.9130249,185.3955841 341.9130249,187.6855927 
	"/>
<polygon class="st4" points="212.582428,102.7592545 241.5691071,86.0237885 357.5158386,152.9656677 328.5291748,169.7011414 "/>
<polygon class="st4" points="212.582428,104.3325806 241.5691071,87.5971146 357.5158386,154.5389862 328.5291748,171.2744598 "/>
<polygon class="st5" points="357.5158386,152.9656677 357.5158386,154.5389862 328.5291748,171.2744598 328.5291748,169.7011414 "/>
<polygon class="st6" points="328.5291748,171.2744598 328.5291748,169.7011414 212.582428,102.7592545 212.582428,104.3325806 "/>
<polygon class="st7" points="223.0176392,102.6089783 223.0176392,81.1875763 241.5691071,91.8982773 241.5691071,113.3196793 "/>
<polygon class="st8" points="223.0176392,81.1875763 241.5691071,70.4768753 260.120575,81.1875687 241.5691071,91.8982773 "/>
<polygon class="st9" points="241.5691071,91.8982773 241.5691071,113.3196793 260.1205444,102.6089478 260.120575,81.1875687 "/>
<polygon class="st10" points="249.7544556,75.2026978 231.2029724,85.9134216 233.3837433,87.1724472 251.9352264,76.4617233 "/>
<polygon class="st2" points="231.2029724,85.9134216 231.2029724,89.941124 232.2933655,91.5775681 233.3837433,91.2001572 
	233.3837433,87.1724472 "/>
<polygon class="st11" points="237.6612244,94.4368668 237.6612244,91.3504639 240.3183899,92.8845825 240.3183899,95.9709854 "/>
<polygon class="st12" points="258.9243164,101.7153854 258.9243164,99.4253769 254.9529724,101.7182312 254.9529724,104.0082397 "/>
<polygon class="st7" points="252.0043182,119.3444443 252.0043182,97.9230499 270.5557861,108.6337433 270.5557861,130.0551453 "/>
<polygon class="st8" points="252.0043182,97.9230499 270.5557861,87.2123489 289.1072693,97.9230423 270.5557861,108.6337433 "/>
<polygon class="st9" points="270.5557861,108.6337433 270.5557861,130.0551453 289.1072083,119.3444214 289.1072693,97.9230423 "/>
<polygon class="st10" points="278.7411194,91.9381638 260.1896362,102.6488876 262.3704224,103.9079208 280.9219055,93.197197 "/>
<polygon class="st2" points="260.1896362,102.6488876 260.1896362,106.6765976 261.2800293,108.3130417 262.3704224,107.9356232 
	262.3704224,103.9079208 "/>
<polygon class="st11" points="266.6478882,111.1723404 266.6478882,108.0859375 269.3050537,109.6200485 269.3050537,112.706459 "/>
<polygon class="st12" points="287.9109802,118.4508514 287.9109802,116.1608505 283.9396362,118.4537048 283.9396362,120.7437057 
	"/>
<polygon class="st7" points="280.9909973,136.0799103 280.9909973,114.6585159 299.5424805,125.3692169 299.5424805,146.7906189 "/>
<polygon class="st8" points="280.9909973,114.6585159 299.5424805,103.9478149 318.0939331,114.6585083 299.5424805,125.3692169 "/>
<polygon class="st9" points="299.5424805,125.3692169 299.5424805,146.7906189 318.0939026,136.0798798 318.0939331,114.6585083 "/>
<polygon class="st10" points="307.7278137,108.6736298 289.1763306,119.3843536 291.3571167,120.6433868 309.9085999,109.932663 "/>
<polygon class="st2" points="289.1763306,119.3843536 289.1763306,123.4120636 290.2667236,125.0485077 291.3571167,124.6710968 
	291.3571167,120.6433868 "/>
<polygon class="st11" points="295.6345825,127.9078064 295.6345825,124.8214035 298.291748,126.3555222 298.291748,129.441925 "/>
<polygon class="st12" points="316.8976746,135.1863251 316.8976746,132.8963165 312.9263306,135.1891632 312.9263306,137.4791718 
	"/>
<polygon class="st7" points="309.9776917,152.8153839 309.9776917,131.3939819 328.5291748,142.1046906 328.5291748,163.5260925 "/>
<polygon class="st8" points="309.9776917,131.3939819 328.5291748,120.6832886 347.0806274,131.3939819 328.5291748,142.1046906 "/>
<polygon class="st9" points="328.5291748,142.1046906 328.5291748,163.5260925 347.0805969,152.8153534 347.0806274,131.3939819 "/>
<polygon class="st10" points="336.7145081,125.4091034 318.1630249,136.1198273 320.343811,137.3788605 338.8952942,126.668129 "/>
<polygon class="st2" points="318.1630249,136.1198273 318.1630249,140.1475372 319.253418,141.7839813 320.343811,141.4065704 
	320.343811,137.3788605 "/>
<polygon class="st11" points="324.6212769,144.64328 324.6212769,141.5568695 327.2784424,143.0909882 327.2784424,146.1773987 "/>
<polygon class="st12" points="345.8843689,151.9217834 345.8843689,149.6317902 341.9130249,151.9246368 341.9130249,154.2146454 
	"/>
<polygon class="st4" points="212.582428,69.2883224 241.5691071,52.5528488 357.5158386,119.4947281 328.5291748,136.2301941 "/>
<polygon class="st4" points="212.582428,70.8616409 241.5691071,54.1261749 357.5158386,121.0680542 328.5291748,137.8035278 "/>
<polygon class="st5" points="357.5158386,119.4947281 357.5158386,121.0680542 328.5291748,137.8035278 328.5291748,136.2301941 "/>
<polygon class="st6" points="328.5291748,137.8035278 328.5291748,136.2301941 212.582428,69.2883224 212.582428,70.8616409 "/>
<polygon class="st7" points="223.0176392,69.1380386 223.0176392,47.7166367 241.5691071,58.4273376 241.5691071,79.8487396 "/>
<polygon class="st8" points="223.0176392,47.7166367 241.5691071,37.0059357 260.120575,47.716629 241.5691071,58.4273376 "/>
<polygon class="st9" points="241.5691071,58.4273376 241.5691071,79.8487396 260.1205444,69.1380081 260.120575,47.716629 "/>
<polygon class="st10" points="249.7544556,41.7317543 231.2029724,52.4424782 233.3837433,53.7015076 251.9352264,42.9907837 "/>
<polygon class="st2" points="231.2029724,52.4424782 231.2029724,56.4701881 232.2933655,58.1066284 233.3837433,57.7292175 
	233.3837433,53.7015076 "/>
<polygon class="st11" points="237.6612244,60.9659271 237.6612244,57.8795242 240.3183899,59.4136429 240.3183899,62.5000458 "/>
<polygon class="st12" points="258.9243164,68.2444458 258.9243164,65.9544373 254.9529724,68.2472916 254.9529724,70.5373001 "/>
<polygon class="st7" points="252.0043182,85.8735046 252.0043182,64.4521103 270.5557861,75.1628036 270.5557861,96.5842056 "/>
<polygon class="st8" points="252.0043182,64.4521103 270.5557861,53.7414093 289.1072693,64.4521027 270.5557861,75.1628036 "/>
<polygon class="st9" points="270.5557861,75.1628036 270.5557861,96.5842056 289.1072083,85.8734818 289.1072693,64.4521027 "/>
<polygon class="st10" points="278.7411194,58.4672241 260.1896362,69.177948 262.3704224,70.4369812 280.9219055,59.7262535 "/>
<polygon class="st2" points="260.1896362,69.177948 260.1896362,73.205658 261.2800293,74.8421021 262.3704224,74.4646835 
	262.3704224,70.4369812 "/>
<polygon class="st11" points="266.6478882,77.7014008 266.6478882,74.6149979 269.3050537,76.1491089 269.3050537,79.2355194 "/>
<polygon class="st12" points="287.9109802,84.9799118 287.9109802,82.6899109 283.9396362,84.9827652 283.9396362,87.2727661 "/>
<polygon class="st7" points="280.9909973,102.6089706 280.9909973,81.1875763 299.5424805,91.8982773 299.5424805,113.3196793 "/>
<polygon class="st8" points="280.9909973,81.1875763 299.5424805,70.4768753 318.0939331,81.1875687 299.5424805,91.8982773 "/>
<polygon class="st9" points="299.5424805,91.8982773 299.5424805,113.3196793 318.0939026,102.6089478 318.0939331,81.1875687 "/>
<polygon class="st10" points="307.7278137,75.2026901 289.1763306,85.913414 291.3571167,87.1724472 309.9085999,76.4617233 "/>
<polygon class="st2" points="289.1763306,85.913414 289.1763306,89.941124 290.2667236,91.5775681 291.3571167,91.2001572 
	291.3571167,87.1724472 "/>
<polygon class="st11" points="295.6345825,94.4368668 295.6345825,91.3504639 298.291748,92.8845825 298.291748,95.9709854 "/>
<polygon class="st12" points="316.8976746,101.7153778 316.8976746,99.4253769 312.9263306,101.7182312 312.9263306,104.0082397 "/>
<polygon class="st4" points="212.5824127,35.817379 241.5691071,19.0819092 357.5158386,86.0237885 328.5291443,102.7592545 "/>
<polygon class="st4" points="212.5824127,37.3907051 241.5691071,20.6552353 357.5158386,87.5971146 328.5291443,104.3325806 "/>
<polygon class="st5" points="357.5158386,86.0237885 357.5158386,87.5971146 328.5291443,104.3325806 328.5291443,102.7592545 "/>
<polygon class="st6" points="328.5291443,104.3325806 328.5291443,102.7592545 212.5824127,35.817379 212.5824127,37.3907051 "/>
<polygon class="st0" points="357.5158386,231.2943268 357.5158386,79.6728821 359.219574,78.6892319 359.219574,230.3106689 "/>
<polygon class="st1" points="357.5158386,231.2943268 357.5158386,79.6728821 355.8121033,78.6892319 355.8121033,230.3106689 "/>
<polygon class="st2" points="357.5158386,79.6728821 355.8121033,78.6892319 357.5158386,77.7055893 359.219574,78.6892319 "/>
<polygon class="st3" points="331.5929871,234.557663 331.5929871,236.5187073 357.171051,194.1772156 357.171051,192.2161713 "/>
<polygon class="st0" points="357.171051,192.2161713 331.5929871,234.557663 330.6766663,234.0286407 356.2547302,191.687149 "/>
<polygon class="st3" points="331.5929871,206.9836731 357.171051,219.9685059 357.171051,221.7511902 331.5929871,208.7663574 "/>
<polygon class="st3" points="331.5929871,201.0571594 331.5929871,203.0182037 357.171051,160.676712 357.171051,158.7156677 "/>
<polygon class="st0" points="357.171051,158.7156677 331.5929871,201.0571594 330.6766663,200.5281372 356.2547302,158.1866455 "/>
<polygon class="st3" points="331.5929871,173.4831696 357.171051,186.4680023 357.171051,188.2506866 331.5929871,175.2658539 "/>
<polygon class="st3" points="331.5929871,167.108551 331.5929871,169.0695801 357.171051,126.728096 357.171051,124.7670593 "/>
<polygon class="st0" points="357.171051,124.7670593 331.5929871,167.108551 330.6766663,166.5795135 356.2547302,124.2380371 "/>
<polygon class="st3" points="331.5929871,139.5345612 357.171051,152.5193939 357.171051,154.3020782 331.5929871,141.3172455 "/>
<polygon class="st3" points="331.5929871,134.1448364 331.5929871,136.1058807 357.171051,93.7643967 357.171051,91.80336 "/>
<polygon class="st0" points="357.171051,91.80336 331.5929871,134.1448364 330.6766663,133.6158142 356.2547302,91.2743301 "/>
<polygon class="st3" points="331.5929871,106.5708618 357.171051,119.5556946 357.171051,121.3383713 331.5929871,108.3535385 "/>
<polygon class="st0" points="330.2328796,247.0666351 330.2328796,95.4451828 331.936615,94.4615402 331.936615,246.0829773 "/>
<polygon class="st1" points="330.2328796,247.0666351 330.2328796,95.4451828 328.5291443,94.4615402 328.5291443,246.0829773 "/>
<polygon class="st2" points="330.2328796,95.4451828 328.5291443,94.4615402 330.2328796,93.47789 331.936615,94.4615402 "/>
<polygon class="st0" points="103.0376358,242.3458405 103.0376358,90.7244034 104.7413712,89.7407532 104.7413712,241.3621979 "/>
<polygon class="st1" points="103.0376358,242.3458405 103.0376358,90.7244034 101.3339005,89.7407532 101.3339005,241.3621979 "/>
<polygon class="st2" points="103.0376358,90.7244034 101.3339005,89.7407532 103.0376358,88.7571106 104.7413712,89.7407532 "/>
<polygon class="st3" points="77.114769,245.6091766 77.114769,247.5702209 102.6928329,205.2287292 102.6928329,203.2677002 "/>
<polygon class="st0" points="102.6928329,203.2677002 77.114769,245.6091766 76.1984634,245.0801544 101.7765274,202.738678 "/>
<polygon class="st3" points="77.114769,218.035202 102.6928406,231.0200348 102.6928406,232.8027191 77.114769,219.8178864 "/>
<polygon class="st3" points="77.114769,212.1086731 77.114769,214.0697174 102.6928329,171.7282257 102.6928329,169.7671967 "/>
<polygon class="st0" points="102.6928329,169.7671967 77.114769,212.1086731 76.1984634,211.5796509 101.7765274,169.2381744 "/>
<polygon class="st3" points="77.114769,184.5346985 102.6928406,197.5195313 102.6928406,199.3022156 77.114769,186.3173828 "/>
<polygon class="st3" points="77.114769,178.1600647 77.114769,180.121109 102.6928329,137.7796173 102.6928329,135.8185883 "/>
<polygon class="st0" points="102.6928329,135.8185883 77.114769,178.1600647 76.1984634,177.6310425 101.7765274,135.2895508 "/>
<polygon class="st3" points="77.114769,150.5860748 102.6928406,163.5709229 102.6928406,165.3535919 77.114769,152.3687592 "/>
<polygon class="st3" points="77.114769,145.1963654 77.114769,147.1573944 102.6928329,104.8159103 102.6928329,102.8548737 "/>
<polygon class="st0" points="102.6928329,102.8548737 77.114769,145.1963654 76.1984634,144.6673279 101.7765274,102.3258514 "/>
<polygon class="st3" points="77.114769,117.6223755 102.6928406,130.6072083 102.6928406,132.3898926 77.114769,119.4050598 "/>
<polygon class="st0" points="75.7546768,258.1181641 75.7546768,106.4967041 77.4584122,105.5130615 77.4584122,257.134491 "/>
<polygon class="st1" points="75.7546768,258.1181641 75.7546768,106.4967041 74.0509415,105.5130615 74.0509415,257.134491 "/>
<polygon class="st2" points="75.7546768,106.4967041 74.0509415,105.5130615 75.7546768,104.5294113 77.4584122,105.5130615 "/>
<polygon class="st4" points="75.7546768,248.6781921 104.7413559,231.9427338 220.6880951,298.884613 191.701416,315.6200867 "/>
<polygon class="st4" points="75.7546768,250.2515259 104.7413559,233.5160522 220.6880951,300.4579163 191.701416,317.1933899 "/>
<polygon class="st5" points="220.6880951,298.884613 220.6880951,300.4579163 191.701416,317.1933899 191.701416,315.6200867 "/>
<polygon class="st6" points="191.701416,317.1933899 191.701416,315.6200867 75.7546768,248.6781921 75.7546768,250.2515259 "/>
<polygon class="st7" points="86.189888,248.5279083 86.189888,227.1065216 104.7413635,237.817215 104.7413635,259.2386169 "/>
<polygon class="st8" points="86.189888,227.1065216 104.7413559,216.395813 123.2928314,227.1065063 104.7413635,237.817215 "/>
<polygon class="st9" points="104.7413635,237.817215 104.7413635,259.2386169 123.2927933,248.5278931 123.2928314,227.1065063 "/>
<polygon class="st10" points="112.9267044,221.1216278 94.3752213,231.8323517 96.5559998,233.0913849 115.1074753,222.380661 "/>
<polygon class="st2" points="94.3752213,231.8323517 94.3752213,235.8600616 95.4656143,237.4965057 96.5559998,237.1190948 
	96.5559998,233.0913849 "/>
<polygon class="st11" points="100.8334656,240.3558044 100.8334656,237.2694092 103.4906311,238.8035126 103.4906311,241.8899231 
	"/>
<polygon class="st12" points="122.0965576,247.6343231 122.0965576,245.3443146 118.1252213,247.6371765 118.1252213,249.9271698 
	"/>
<polygon class="st7" points="115.1765594,265.2633972 115.1765594,243.84198 133.7280426,254.5526886 133.7280426,275.9740906 "/>
<polygon class="st8" points="115.1765594,243.84198 133.7280273,233.1312866 152.2795105,243.84198 133.7280426,254.5526886 "/>
<polygon class="st9" points="133.7280426,254.5526886 133.7280426,275.9740906 152.2794647,265.2633667 152.2795105,243.84198 "/>
<polygon class="st10" points="141.9133759,237.8571014 123.3619003,248.5678253 125.5426712,249.8268585 144.0941467,239.1161346 
	"/>
<polygon class="st2" points="123.3619003,248.5678253 123.3619003,252.5955353 124.4522858,254.2319794 125.5426712,253.8545685 
	125.5426712,249.8268585 "/>
<polygon class="st11" points="129.8201447,257.0912781 129.8201447,254.0048676 132.4773102,255.5389862 132.4773102,258.6253967 
	"/>
<polygon class="st12" points="151.0832367,264.3697815 151.0832367,262.0797729 147.1118927,264.3726501 147.1118927,266.6626587 
	"/>
<polygon class="st7" points="144.1632538,281.9988403 144.1632538,260.5774536 162.7147217,271.288147 162.7147217,292.7095642 "/>
<polygon class="st8" points="144.1632538,260.5774536 162.7147217,249.8667603 181.2661896,260.5774536 162.7147217,271.288147 "/>
<polygon class="st9" points="162.7147217,271.288147 162.7147217,292.7095642 181.2661591,281.9988403 181.2661896,260.5774536 "/>
<polygon class="st10" points="170.9000702,254.5925751 152.348587,265.3032837 154.5293732,266.5623169 173.0808411,255.851593 "/>
<polygon class="st2" points="152.348587,265.3032837 152.348587,269.3309937 153.4389801,270.9674377 154.5293732,270.5900269 
	154.5293732,266.5623169 "/>
<polygon class="st11" points="158.806839,273.8267517 158.806839,270.7403259 161.4640045,272.2744446 161.4640045,275.3608704 "/>
<polygon class="st12" points="180.069931,281.1052551 180.069931,278.8152466 176.098587,281.1080933 176.098587,283.3981018 "/>
<polygon class="st7" points="173.1499329,298.734314 173.1499329,277.3129272 191.701416,288.0236206 191.701416,309.4450378 "/>
<polygon class="st8" points="173.1499329,277.3129272 191.701416,266.6022339 210.2528839,277.3129272 191.701416,288.0236206 "/>
<polygon class="st9" points="191.701416,288.0236206 191.701416,309.4450378 210.2528381,298.7342834 210.2528839,277.3129272 "/>
<polygon class="st10" points="199.8867493,271.3280334 181.3352814,282.0387573 183.5160522,283.2977905 202.0675354,272.5870667 
	"/>
<polygon class="st2" points="181.3352814,282.0387573 181.3352814,286.0664673 182.4256592,287.7029114 183.5160522,287.3255005 
	183.5160522,283.2977905 "/>
<polygon class="st11" points="187.7935181,290.5622253 187.7935181,287.4757996 190.4506836,289.0099182 190.4506836,292.096344 "/>
<polygon class="st12" points="209.0566101,297.8407288 209.0566101,295.5507202 205.0852814,297.8435669 205.0852814,300.1335754 
	"/>
<polygon class="st4" points="75.7546768,215.2072601 104.7413559,198.4717865 220.6880951,265.4136658 191.701416,282.1491394 "/>
<polygon class="st4" points="75.7546768,216.7805786 104.7413559,200.0451202 220.6880951,266.9869995 191.701416,283.7224731 "/>
<polygon class="st5" points="220.6880951,265.4136658 220.6880951,266.9869995 191.701416,283.7224731 191.701416,282.1491394 "/>
<polygon class="st6" points="191.701416,283.7224731 191.701416,282.1491394 75.7546768,215.2072601 75.7546768,216.7805786 "/>
<polygon class="st7" points="86.189888,215.0569763 86.189888,193.6355743 104.7413635,204.3462677 104.7413635,225.7676697 "/>
<polygon class="st8" points="86.189888,193.6355743 104.7413559,182.924881 123.2928314,193.6355743 104.7413635,204.3462677 "/>
<polygon class="st9" points="104.7413635,204.3462677 104.7413635,225.7676697 123.2927933,215.0569458 123.2928314,193.6355743 "/>
<polygon class="st10" points="112.9267044,187.6506958 94.3752213,198.3614197 96.5559998,199.6204529 115.1074753,188.909729 "/>
<polygon class="st2" points="94.3752213,198.3614197 94.3752213,202.3891296 95.4656143,204.0255737 96.5559998,203.6481476 
	96.5559998,199.6204529 "/>
<polygon class="st11" points="100.8334656,206.8848724 100.8334656,203.7984619 103.4906311,205.3325806 103.4906311,208.4189911 
	"/>
<polygon class="st12" points="122.0965576,214.1633759 122.0965576,211.8733826 118.1252213,214.1662292 118.1252213,216.4562378 
	"/>
<polygon class="st7" points="115.1765594,231.79245 115.1765594,210.371048 133.7280426,221.0817413 133.7280426,242.5031433 "/>
<polygon class="st8" points="115.1765594,210.371048 133.7280273,199.6603394 152.2795105,210.3710327 133.7280426,221.0817413 "/>
<polygon class="st9" points="133.7280426,221.0817413 133.7280426,242.5031433 152.2794647,231.7924194 152.2795105,210.3710327 "/>
<polygon class="st10" points="141.9133759,204.3861694 123.3619003,215.0968933 125.5426712,216.3559113 144.0941467,205.6451874 
	"/>
<polygon class="st2" points="123.3619003,215.0968933 123.3619003,219.124588 124.4522858,220.7610321 125.5426712,220.3836212 
	125.5426712,216.3559113 "/>
<polygon class="st11" points="129.8201447,223.6203308 129.8201447,220.5339355 132.4773102,222.0680542 132.4773102,225.1544495 
	"/>
<polygon class="st12" points="151.0832367,230.8988495 151.0832367,228.6088409 147.1118927,230.9017029 147.1118927,233.1917114 
	"/>
<polygon class="st7" points="144.1632538,248.5279083 144.1632538,227.1065063 162.7147217,237.817215 162.7147217,259.2386169 "/>
<polygon class="st8" points="144.1632538,227.1065063 162.7147217,216.395813 181.2661896,227.1065063 162.7147217,237.817215 "/>
<polygon class="st9" points="162.7147217,237.817215 162.7147217,259.2386169 181.2661591,248.5278931 181.2661896,227.1065063 "/>
<polygon class="st10" points="170.9000702,221.1216278 152.348587,231.8323517 154.5293732,233.0913849 173.0808411,222.380661 "/>
<polygon class="st2" points="152.348587,231.8323517 152.348587,235.8600616 153.4389801,237.4965057 154.5293732,237.1190948 
	154.5293732,233.0913849 "/>
<polygon class="st11" points="158.806839,240.3558044 158.806839,237.2694092 161.4640045,238.8035126 161.4640045,241.8899231 "/>
<polygon class="st12" points="180.069931,247.6343231 180.069931,245.3443146 176.098587,247.6371613 176.098587,249.9271698 "/>
<polygon class="st7" points="173.1499329,265.2633972 173.1499329,243.84198 191.701416,254.5526886 191.701416,275.9740906 "/>
<polygon class="st8" points="173.1499329,243.84198 191.701416,233.1312866 210.2528839,243.84198 191.701416,254.5526886 "/>
<polygon class="st9" points="191.701416,254.5526886 191.701416,275.9740906 210.2528381,265.2633667 210.2528839,243.84198 "/>
<polygon class="st10" points="199.8867493,237.8571014 181.3352814,248.5678253 183.5160522,249.8268585 202.0675354,239.1161346 
	"/>
<polygon class="st2" points="181.3352814,248.5678253 181.3352814,252.5955353 182.4256592,254.2319794 183.5160522,253.8545685 
	183.5160522,249.8268585 "/>
<polygon class="st11" points="187.7935181,257.0912781 187.7935181,254.0048676 190.4506836,255.5389862 190.4506836,258.6253967 
	"/>
<polygon class="st12" points="209.0566101,264.3697815 209.0566101,262.0797729 205.0852814,264.3726501 205.0852814,266.6626587 
	"/>
<polygon class="st4" points="75.7546768,181.7363129 104.7413635,165.0008392 220.6880951,231.9427185 191.701416,248.6781921 "/>
<polygon class="st4" points="75.7546768,183.3096466 104.7413635,166.574173 220.6880951,233.5160522 191.701416,250.2515259 "/>
<polygon class="st5" points="220.6880951,231.9427185 220.6880951,233.5160522 191.701416,250.2515259 191.701416,248.6781921 "/>
<polygon class="st6" points="191.701416,250.2515259 191.701416,248.6781921 75.7546768,181.7363129 75.7546768,183.3096466 "/>
<polygon class="st7" points="86.189888,181.5860291 86.189888,160.1646271 104.7413635,170.8753357 104.7413635,192.2967377 "/>
<polygon class="st8" points="86.189888,160.1646271 104.7413635,149.4539337 123.2928314,160.1646271 104.7413635,170.8753357 "/>
<polygon class="st9" points="104.7413635,170.8753357 104.7413635,192.2967377 123.2927933,181.5860138 123.2928314,160.1646271 "/>
<polygon class="st10" points="112.9267044,154.1797485 94.3752289,164.8904724 96.5560074,166.1495056 115.1074829,155.4387817 "/>
<polygon class="st2" points="94.3752289,164.8904724 94.3752289,168.9181824 95.4656143,170.5546265 96.5560074,170.1772156 
	96.5560074,166.1495056 "/>
<polygon class="st11" points="100.8334732,173.4139252 100.8334732,170.3275146 103.4906387,171.8616333 103.4906387,174.9480438 
	"/>
<polygon class="st12" points="122.0965652,180.6924438 122.0965652,178.4024353 118.1252289,180.695282 118.1252289,182.9852905 "/>
<polygon class="st7" points="115.1765671,198.3215027 115.1765671,176.9001007 133.7280426,187.6108093 133.7280426,209.0322113 "/>
<polygon class="st8" points="115.1765671,176.9001007 133.7280426,166.1894073 152.2795105,176.9001007 133.7280426,187.6108093 "/>
<polygon class="st9" points="133.7280426,187.6108093 133.7280426,209.0322113 152.2794647,198.3214722 152.2795105,176.9001007 "/>
<polygon class="st10" points="141.9133759,170.9152222 123.3619003,181.625946 125.5426788,182.8849792 144.094162,172.1742554 "/>
<polygon class="st2" points="123.3619003,181.625946 123.3619003,185.653656 124.4522934,187.2901001 125.5426788,186.9126892 
	125.5426788,182.8849792 "/>
<polygon class="st11" points="129.8201447,190.1493988 129.8201447,187.0629883 132.4773102,188.5971069 132.4773102,191.6835175 
	"/>
<polygon class="st12" points="151.0832367,197.4279175 151.0832367,195.1379089 147.111908,197.4307556 147.111908,199.7207642 "/>
<polygon class="st7" points="144.1632538,215.0569763 144.1632538,193.6355743 162.7147369,204.3462677 162.7147369,225.7676697 "/>
<polygon class="st8" points="144.1632538,193.6355743 162.7147217,182.9248657 181.2662048,193.6355591 162.7147369,204.3462677 "/>
<polygon class="st9" points="162.7147369,204.3462677 162.7147369,225.7676697 181.2661591,215.0569458 181.2662048,193.6355591 "/>
<polygon class="st10" points="170.9000702,187.6506958 152.348587,198.3614197 154.5293732,199.6204376 173.0808563,188.9097137 "/>
<polygon class="st2" points="152.348587,198.3614197 152.348587,202.3891144 153.4389801,204.0255585 154.5293732,203.6481476 
	154.5293732,199.6204376 "/>
<polygon class="st11" points="158.806839,206.8848572 158.806839,203.7984619 161.4640045,205.3325806 161.4640045,208.4189758 "/>
<polygon class="st12" points="180.069931,214.1633759 180.069931,211.8733673 176.0986023,214.1662292 176.0986023,216.4562378 "/>
<polygon class="st7" points="173.1499481,231.7924347 173.1499481,210.371048 191.701416,221.0817413 191.701416,242.5031433 "/>
<polygon class="st8" points="173.1499481,210.371048 191.701416,199.6603394 210.2528839,210.3710327 191.701416,221.0817413 "/>
<polygon class="st9" points="191.701416,221.0817413 191.701416,242.5031433 210.2528534,231.7924194 210.2528839,210.3710327 "/>
<polygon class="st10" points="199.8867645,204.3861542 181.3352814,215.0968781 183.5160522,216.3559113 202.0675354,205.6451874 
	"/>
<polygon class="st2" points="181.3352814,215.0968781 181.3352814,219.124588 182.4256592,220.7610321 183.5160522,220.3836212 
	183.5160522,216.3559113 "/>
<polygon class="st11" points="187.7935181,223.6203308 187.7935181,220.5339355 190.4506836,222.0680389 190.4506836,225.1544495 
	"/>
<polygon class="st12" points="209.0566101,230.8988495 209.0566101,228.6088409 205.0852814,230.9017029 205.0852814,233.1916962 
	"/>
<polygon class="st4" points="75.7546768,148.2653809 104.7413635,131.5299072 220.6880951,198.4717865 191.701416,215.2072601 "/>
<polygon class="st4" points="75.7546768,149.8386993 104.7413635,133.1032257 220.6880951,200.045105 191.701416,216.7805786 "/>
<polygon class="st5" points="220.6880951,198.4717865 220.6880951,200.045105 191.701416,216.7805786 191.701416,215.2072601 "/>
<polygon class="st6" points="191.701416,216.7805786 191.701416,215.2072601 75.7546768,148.2653809 75.7546768,149.8386993 "/>
<polygon class="st7" points="86.189888,148.115097 86.189888,126.6936951 104.7413635,137.4043884 104.7413635,158.8257904 "/>
<polygon class="st8" points="86.189888,126.6936951 104.7413635,115.9829941 123.2928314,126.6936874 104.7413635,137.4043884 "/>
<polygon class="st9" points="104.7413635,137.4043884 104.7413635,158.8257904 123.2927933,148.1150665 123.2928314,126.6936874 "/>
<polygon class="st10" points="112.9267044,120.7088089 94.3752289,131.4195404 96.5560074,132.6785583 115.1074829,121.9678421 "/>
<polygon class="st2" points="94.3752289,131.4195404 94.3752289,135.4472504 95.4656143,137.0836945 96.5560074,136.7062683 
	96.5560074,132.6785583 "/>
<polygon class="st11" points="100.8334732,139.9429779 100.8334732,136.8565826 103.4906387,138.3907013 103.4906387,141.4770966 
	"/>
<polygon class="st12" points="122.0965652,147.2214966 122.0965652,144.9315033 118.1252289,147.22435 118.1252289,149.5143585 "/>
<polygon class="st7" points="115.1765671,164.8505707 115.1765671,143.4291687 133.7280426,154.1398621 133.7280426,175.561264 "/>
<polygon class="st8" points="115.1765671,143.4291687 133.7280426,132.7184601 152.2795105,143.4291534 133.7280426,154.1398621 "/>
<polygon class="st9" points="133.7280426,154.1398621 133.7280426,175.561264 152.2794647,164.8505402 152.2795105,143.4291534 "/>
<polygon class="st10" points="141.9133759,137.4442902 123.3619003,148.1549988 125.5426788,149.414032 144.094162,138.7033081 "/>
<polygon class="st2" points="123.3619003,148.1549988 123.3619003,152.1827087 124.4522934,153.8191528 125.5426788,153.4417419 
	125.5426788,149.414032 "/>
<polygon class="st11" points="129.8201447,156.6784515 129.8201447,153.5920563 132.4773102,155.1261749 132.4773102,158.2125702 
	"/>
<polygon class="st12" points="151.0832367,163.9569702 151.0832367,161.6669617 147.111908,163.9598236 147.111908,166.2498322 "/>
<polygon class="st7" points="144.1632538,181.5860291 144.1632538,160.1646271 162.7147369,170.8753357 162.7147369,192.2967377 "/>
<polygon class="st8" points="144.1632538,160.1646271 162.7147217,149.4539337 181.2662048,160.1646271 162.7147369,170.8753357 "/>
<polygon class="st9" points="162.7147369,170.8753357 162.7147369,192.2967377 181.2661591,181.5859985 181.2662048,160.1646271 "/>
<polygon class="st10" points="170.9000702,154.1797485 152.348587,164.8904724 154.5293732,166.1495056 173.0808563,155.4387817 "/>
<polygon class="st2" points="152.348587,164.8904724 152.348587,168.9181824 153.4389801,170.5546265 154.5293732,170.1772156 
	154.5293732,166.1495056 "/>
<polygon class="st11" points="158.806839,173.4139252 158.806839,170.3275146 161.4640045,171.8616333 161.4640045,174.9480438 "/>
<polygon class="st12" points="180.069931,180.6924438 180.069931,178.4024353 176.0986023,180.695282 176.0986023,182.9852905 "/>
<polygon class="st4" points="75.7546692,114.7944336 104.7413559,98.0589676 220.6880951,165.0008392 191.7014008,181.7363129 "/>
<polygon class="st4" points="75.7546692,116.3677597 104.7413559,99.6322937 220.6880951,166.574173 191.7014008,183.3096466 "/>
<polygon class="st5" points="220.6880951,165.0008392 220.6880951,166.574173 191.7014008,183.3096466 191.7014008,181.7363129 "/>
<polygon class="st6" points="191.7014008,183.3096466 191.7014008,181.7363129 75.7546692,114.7944336 75.7546692,116.3677597 "/>
<polygon class="st0" points="220.6880951,310.2713928 220.6880951,158.6499329 222.3918304,157.6662903 222.3918304,309.2877197 "/>
<polygon class="st1" points="220.6880951,310.2713928 220.6880951,158.6499329 218.9843597,157.6662903 218.9843597,309.2877197 "/>
<polygon class="st2" points="220.6880951,158.6499329 218.9843597,157.6662903 220.6880951,156.6826477 222.3918304,157.6662903 "/>
<polygon class="st3" points="194.7652283,313.534729 194.7652283,315.4957581 220.3432922,273.1542664 220.3432922,271.1932373 "/>
<polygon class="st0" points="220.3432922,271.1932373 194.7652283,313.534729 193.8489227,313.0057068 219.4269867,270.6642151 "/>
<polygon class="st3" points="194.7652283,285.9607239 220.3433075,298.9455566 220.3433075,300.728241 194.7652283,287.7434082 "/>
<polygon class="st3" points="194.7652283,280.0342102 194.7652283,281.9952698 220.3432922,239.6537628 220.3432922,237.6927338 "/>
<polygon class="st0" points="220.3432922,237.6927338 194.7652283,280.0342102 193.8489227,279.505188 219.4269867,237.1637115 "/>
<polygon class="st3" points="194.7652283,252.4602356 220.3433075,265.4450684 220.3433075,267.2277527 194.7652283,254.2429199 "/>
<polygon class="st3" points="194.7652283,246.0856018 194.7652283,248.0466461 220.3432922,205.7051544 220.3432922,203.7441254 "/>
<polygon class="st0" points="220.3432922,203.7441254 194.7652283,246.0856018 193.8489227,245.5565796 219.4269867,203.2150879 "/>
<polygon class="st3" points="194.7652283,218.5116119 220.3433075,231.49646 220.3433075,233.279129 194.7652283,220.2942963 "/>
<polygon class="st3" points="194.7652283,213.1219025 194.7652283,215.0829315 220.3432922,172.7414551 220.3432922,170.7804108 "/>
<polygon class="st0" points="220.3432922,170.7804108 194.7652283,213.1219025 193.8489227,212.592865 219.4269867,170.2513885 "/>
<polygon class="st3" points="194.7652283,185.5479126 220.3433075,198.5327454 220.3433075,200.3154297 194.7652283,187.3305969 "/>
<polygon class="st0" points="193.4051361,326.0437012 193.4051361,174.4222412 195.1088715,173.4385986 195.1088715,325.0600281 "/>
<polygon class="st1" points="193.4051361,326.0437012 193.4051361,174.4222412 191.7014008,173.4385986 191.7014008,325.0600281 "/>
<polygon class="st2" points="193.4051361,174.4222412 191.7014008,173.4385986 193.4051361,172.4549561 195.1088715,173.4385986 "/>
<g>
	
		<ellipse transform="matrix(0.5 -0.8660254 0.8660254 0.5 -19.8152637 422.6272278)" class="st13" cx="356.0982971" cy="228.4741364" rx="5.8624258" ry="3.3846731"/>
</g>
<polygon class="st13" points="359.1110535,223.4607849 386.6196289,239.3735962 383.9359741,240.7237091 357.6821594,225.450592 "/>
<polygon class="st14" points="243.547821,331.9175415 243.547821,323.2254333 382.1278381,243.2149963 382.1278381,252.0330048 "/>
<polygon class="st15" points="228.0358124,322.9616394 228.0358124,314.1270447 243.547821,323.2254333 243.547821,331.9175415 "/>
<polygon class="st13" points="356.0684814,223.7046814 222.0361023,301.0867004 249.6711884,317.0418701 383.7042236,239.6602325 
	"/>
<polygon class="st13" points="356.0684814,233.2810974 222.0361023,310.6631165 249.6711884,326.6182861 383.7042236,249.2366486 
	"/>
<g>
	
		<ellipse transform="matrix(0.5 -0.8660254 0.8660254 0.5 -153.8792114 345.2266846)" class="st13" cx="222.0354614" cy="305.8766479" rx="5.8624258" ry="3.3846731"/>
</g>
<polygon class="st13" points="219.0314484,310.8967285 246.7697906,326.9168701 255.9252167,318.4024048 273.1615906,305.4814148 
	226.1808319,301.0572815 "/>
<g>
	
		<ellipse transform="matrix(0.5 -0.8660254 0.8660254 0.5 -153.8785858 377.1372986)" class="st15" cx="249.6711884" cy="321.8314209" rx="5.8624258" ry="3.3846731"/>
</g>
<path class="st5" d="M249.6711731,317.0418701v0.0029297c-2.2799377,1.3163452-4.1453247,4.5473328-4.1453247,7.1799316
	c0,2.6326904,1.865387,3.7097168,4.1453247,2.3933716v0.0001831l134.0330505-77.3816376v-9.576416L249.6711731,317.0418701z"/>
<g>
	
		<ellipse transform="matrix(0.5 -0.8660254 0.8660254 0.5 -19.845108 454.5210266)" class="st5" cx="383.7042236" cy="244.4468842" rx="5.8624258" ry="3.3846731"/>
</g>
<polygon class="st3" points="249.6711884,319.1412354 249.6711884,324.5171509 383.7042236,247.1326141 383.7042236,241.7566986 "/>
<g>
	<path class="st5" d="M274.9751587,307.2322083c0-1.478363,1.0475464-3.2927551,2.3279114-4.0319519
		c1.2803345-0.7392273,2.3296204-0.135437,2.3317566,1.3417053s-1.0454102,3.2915344-2.3279114,4.0319824
		C276.0244446,309.3143616,274.9751587,308.7106018,274.9751587,307.2322083z"/>
</g>
<g>
	<path class="st5" d="M302.6105957,291.2571716c0-1.478363,1.0475464-3.2927551,2.3278809-4.0319519
		c1.2803345-0.7392273,2.3296509-0.135437,2.3317566,1.3417053c0.0021362,1.4771423-1.0454102,3.2915344-2.3278809,4.0319824
		C303.6598816,293.339325,302.6105957,292.7355652,302.6105957,291.2571716z"/>
</g>
<g>
	<path class="st5" d="M330.2463379,275.3012695c0-1.478363,1.0475464-3.2927551,2.3278809-4.0319519
		c1.280365-0.7392273,2.3296509-0.135437,2.3317871,1.3417053c0.0021057,1.4771423-1.0454407,3.2915344-2.3279114,4.0319824
		C331.2956238,277.3834229,330.2463379,276.7796631,330.2463379,275.3012695z"/>
</g>
<g>
	<path class="st5" d="M357.8820801,259.3770142c0-1.478363,1.0475464-3.2927551,2.3278809-4.0319672
		c1.2803345-0.7391968,2.3296509-0.135437,2.3317566,1.3417206c0.0021362,1.4771423-1.0454102,3.2915344-2.3278809,4.0319824
		C358.931366,261.4591675,357.8820801,260.8554077,357.8820801,259.3770142z"/>
</g>
<g>
	<path class="st15" d="M275.9953003,306.6441956c0-0.8315735,0.5892639-1.8521729,1.3094482-2.2679749
		s1.3104248-0.0761719,1.311615,0.7547302c0.0011902,0.8308716-0.5880432,1.8514709-1.3094482,2.2679749
		C276.5855408,307.8154297,275.9953003,307.4757996,275.9953003,306.6441956z"/>
</g>
<g>
	<path class="st15" d="M303.6307373,290.6691895c0-0.831604,0.5892334-1.8522034,1.3094482-2.2680054
		c0.7201843-0.415802,1.3103943-0.0761719,1.311615,0.7547302c0.0011902,0.8309021-0.5880737,1.8514709-1.3094482,2.2679749
		C304.2209473,291.8403931,303.6307373,291.5007629,303.6307373,290.6691895z"/>
</g>
<g>
	<path class="st15" d="M331.2664795,274.7132874c0-0.831604,0.5892639-1.8522034,1.3094482-2.2680054
		s1.3104248-0.0761719,1.311615,0.7547302s-0.5880432,1.8514709-1.3094482,2.2679749
		C331.85672,275.884491,331.2664795,275.5448608,331.2664795,274.7132874z"/>
</g>
<g>
	<path class="st15" d="M358.9022217,258.789032c0-0.831604,0.5892334-1.8522034,1.3094482-2.2680054
		c0.7201843-0.415802,1.3103943-0.0761719,1.311615,0.7547302c0.0011902,0.8309021-0.5880737,1.8514709-1.3094482,2.2679749
		C359.4924316,259.9602356,358.9022217,259.6206055,358.9022217,258.789032z"/>
</g>
<g>
	<path class="st5" d="M247.3394318,323.175415c0-1.478363,1.0475464-3.2927551,2.3278809-4.0319519
		c1.2803497-0.7391968,2.3296509-0.135437,2.3317719,1.3417053c0.0021362,1.4771423-1.0454254,3.2915344-2.3278961,4.0319824
		C248.3887177,325.2575684,247.3394318,324.6538086,247.3394318,323.175415z"/>
</g>
<g>
	<path class="st15" d="M248.3595734,322.5874329c0-0.831604,0.5892487-1.8522034,1.309433-2.2680054
		c0.7201996-0.415802,1.3104248-0.0761719,1.3116302,0.7547302c0.0011902,0.8309021-0.5880585,1.8514709-1.3094482,2.2679749
		S248.3595734,323.4190063,248.3595734,322.5874329z"/>
</g>
<g>
	<path class="st5" d="M381.3724365,245.7908936c0-1.4783783,1.0475464-3.2927551,2.3279114-4.0319672
		c1.2803345-0.739212,2.3296204-0.135437,2.3317566,1.3417206c0.0021362,1.4771423-1.0454102,3.2915344-2.3278809,4.0319672
		S381.3724365,247.2692719,381.3724365,245.7908936z"/>
</g>
<g>
	<path class="st15" d="M382.3925781,245.2028961c0-0.8315887,0.5892639-1.8521881,1.3094482-2.2679901
		s1.3104248-0.0761719,1.311615,0.754715c0.0012207,0.8309021-0.5880432,1.8514862-1.3094177,2.2679901
		C382.9828186,246.3740997,382.3925781,246.0344849,382.3925781,245.2028961z"/>
</g>
<path class="st16" d="M274.475647,229.7265778"/>
<polygon class="st17" points="222.4329529,309.7245483 251.45047,292.971283 262.9856567,299.6311035 233.9476166,316.3725586 "/>
<polygon class="st18" points="262.9856567,299.6311035 268.5272827,310.7089233 239.5097504,327.4621887 233.9476166,316.3725586 
	"/>
<polygon class="st16" points="222.4329529,309.7245483 222.4329529,342.8029175 239.5097504,352.6622009 239.5097504,327.4621887 
	233.9476166,316.3725586 "/>
<g>
	<ellipse class="st15" cx="243.4263916" cy="303.182373" rx="3.4329126" ry="1.981993"/>
</g>
<rect x="239.9993896" y="302.5531616" class="st15" width="6.8547711" height="0.6292121"/>
<g>
	<ellipse class="st19" cx="243.4263916" cy="302.5531616" rx="3.4329126" ry="1.981993"/>
</g>
<g>
	<ellipse class="st15" cx="243.4263916" cy="302.6031494" rx="1.2165112" ry="0.7023531"/>
</g>
<g>
	<ellipse class="st0" cx="243.4263916" cy="298.4462891" rx="1.2165112" ry="0.7023531"/>
</g>
<rect x="242.2119751" y="298.4462891" class="st15" width="2.429105" height="4.156836"/>
<polygon class="st14" points="233.6147461,289.4343262 249.1555481,280.461853 251.3354645,281.7204285 235.7946625,290.6929016 "/>
<polygon class="st19" points="251.3354645,281.7204285 251.3354645,294.873291 235.7946625,303.8457642 235.7946625,290.6929016 "/>
<polygon class="st8" points="236.638443,291.1794434 250.4922028,283.1816711 250.4922028,294.3862915 236.638443,302.3840332 "/>
<polygon class="st15" points="233.6147461,289.4343262 233.6147461,302.5871887 235.7946625,303.8457642 235.7946625,290.6929016 
	"/>
<polygon class="st1" points="250.4922028,283.1816711 250.2960815,283.2949219 250.2960815,294.2775574 250.4922028,294.3862915 "/>
<polygon class="st0" points="250.2960815,294.2775574 236.638443,302.1620789 236.638443,302.3840332 250.4922028,294.3862915 "/>
<polygon class="st20" points="236.9129639,294.8328247 249.7755432,287.4066467 249.7755432,286.4231873 236.9129639,293.8493652 
	"/>
<polygon class="st20" points="236.9129639,296.3080444 249.7755432,288.8818359 249.7755432,287.8983765 236.9129639,295.3245544 
	"/>
<polygon class="st20" points="236.9129639,297.7832336 249.7755432,290.3570557 249.7755432,289.3735657 236.9129639,296.7997742 
	"/>
<polygon class="st20" points="236.9129639,300.2419128 241.2436981,297.7415466 241.2436981,295.7746277 236.9129639,298.2749634 
	"/>
<polygon class="st20" points="241.643158,297.5109253 249.7755432,292.8157043 249.7755432,290.8487854 241.643158,295.5440063 "/>
<polygon class="st11" points="236.9129639,291.3907166 236.9129639,292.374176 239.165451,291.0737 239.165451,290.0902405 "/>
<polygon class="st20" points="247.2204132,285.4396973 247.2204132,286.4231873 249.7755432,284.9479675 249.7755432,283.9645081 
	"/>
<polygon class="st20" points="247.2204132,294.7826538 247.2204132,295.7661133 249.7755432,294.2908936 249.7755432,293.3074341 
	"/>
<polygon class="st20" points="236.9129639,300.7336426 236.9129639,301.7171021 239.4680939,300.2419128 239.4680939,299.2584229 
	"/>
<polygon class="st21" points="268.5272827,310.7089233 268.5272827,335.908905 239.5097504,352.6622009 239.5097504,327.4621887 "/>
<polygon class="st7" points="275.2698669,275.6579285 275.2698669,254.2365417 293.8213501,264.9472351 293.8213501,286.3686523 "/>
<polygon class="st8" points="275.2698669,254.2365417 293.8213501,243.5258331 312.3728027,254.2365265 293.8213501,264.9472351 "/>
<polygon class="st9" points="293.8213501,264.9472351 293.8213501,286.3686523 312.3727722,275.6578979 312.3728027,254.2365265 "/>
<polygon class="st10" points="302.0066833,248.2516632 283.4552002,258.9623718 285.6359863,260.221405 304.1874695,249.5106812 "/>
<polygon class="st2" points="283.4552002,258.9623718 283.4552002,262.9900818 284.5455933,264.6265259 285.6359863,264.249115 
	285.6359863,260.221405 "/>
<polygon class="st11" points="289.9134521,267.4858398 289.9134521,264.3994141 292.5706177,265.9335327 292.5706177,269.0199585 
	"/>
<polygon class="st12" points="311.1765442,274.7643433 311.1765442,272.4743347 307.2052002,274.7671814 307.2052002,277.0571899 
	"/>
</svg>
