<?xml version="1.0" encoding="utf-8"?>
<!-- Generator: Adobe Illustrator 22.0.0, SVG Export Plug-In . SVG Version: 6.00 Build 0)  -->
<svg version="1.1" id="workstation" xmlns="http://www.w3.org/2000/svg" xmlns:xlink="http://www.w3.org/1999/xlink" x="0px"
	 y="0px" viewBox="0 0 479.0195007 437.7582092" style="enable-background:new 0 0 479.0195007 437.7582092;" xml:space="preserve">
<style type="text/css">
	.st0{fill:#3A3A3A;}
	.st1{fill:#292929;}
	.st2{fill:#333333;}
	.st3{fill:#565656;}
	.st4{fill:#ECECEC;}
	.st5{fill:#D9D9D9;}
	.st6{fill:#FFFFFF;}
	.st7{fill:#E2E2E2;}
	.st8{fill:url(#SVGID_1_);}
	.st9{fill:#1F1F1F;}
	.st10{fill:#141414;}
	.st11{fill:#E6001E;}
	.st12{fill:#BDBDBD;}
	.st13{fill:#848484;}
	.st14{fill:#949494;}
	.st15{fill:#D0D0D0;}
	.st16{fill:#C6C6C6;}
	.st17{fill:#757575;}
	.st18{fill:#FFD941;}
	.st19{display:none;fill:#FFD941;}
	.st20{fill:#B3B3B3;}
	.st21{fill:#A3A3A3;}
	.st22{fill:#EEC72B;}
	.st23{fill:#00AD81;}
	.st24{fill:#00C490;}
	.st25{fill:#C1002A;}
	.st26{opacity:0.8;fill:#D0D0D0;}
</style>
<polygon class="st0" points="75.3896103,242.6970215 106.3871994,224.8005524 111.4424515,227.7192078 90.8884048,239.5860901 
	90.8884048,251.6452484 "/>
<polygon class="st0" points="75.3896103,255.9509888 106.3871994,238.1058655 173.4788208,276.7898865 142.4812317,294.6863403 "/>
<polygon class="st1" points="142.4812317,294.6863403 142.4812317,281.3810425 126.9824448,272.4328003 126.9824448,260.4249878 
	90.8884048,239.5860901 90.8884048,251.6452484 75.3896103,242.6970215 75.3896103,255.9509888 "/>
<polygon class="st0" points="126.9824448,272.4328003 156.8118896,255.2107697 172.3106842,264.1589966 142.4812317,281.3810425 "/>
<polygon class="st2" points="224.9323883,175.6411591 244.8351593,164.270813 306.5958862,199.9342499 286.8032227,211.3623047 "/>
<polygon class="st0" points="224.9323883,88.1840591 244.8351593,76.8137131 306.5958862,112.4771576 286.8032227,123.9052048 "/>
<polygon class="st3" points="306.5958862,112.4771576 306.5958862,199.9342499 286.8032227,211.3623047 286.8032227,123.9052048 "/>
<polygon class="st0" points="104.8364563,157.5340576 124.7392349,146.1637115 186.4999542,181.8271637 166.7072906,193.2552032 "/>
<polygon class="st3" points="294.4900208,175.4764099 294.4900208,206.9240417 142.4812317,294.6863403 142.4812317,281.3810425 
	178.7781677,260.4249878 "/>
<polygon class="st4" points="101.8324814,223.468399 172.3106842,264.1589966 231.7058868,229.867157 253.0198975,208.0194702 
	271.3026733,207.0059357 291.1010742,195.5753326 220.6228943,173.5185394 "/>
<polygon class="st4" points="146.0829926,120.5448761 216.5610504,161.2353973 231.7058868,152.491684 253.0198975,130.6439819 
	271.3026733,129.6304626 291.1010742,118.199852 220.6228943,77.5092468 "/>
<polygon class="st5" points="101.8324814,150.3913422 101.8324814,223.468399 172.3106842,264.1589966 172.3106842,191.0813599 "/>
<polygon class="st6" points="291.1010742,118.199852 291.1010742,195.5753326 271.3026733,207.0059357 271.3026733,129.6298676 "/>
<polygon class="st6" points="231.7058868,152.491684 231.7058868,229.867157 172.3106842,264.1589966 172.3106842,191.0813599 
	216.5610504,165.533844 216.5610504,161.2353973 "/>
<polygon class="st7" points="253.0198975,130.6439819 253.0198975,208.0194702 271.3026733,207.0059357 271.3026733,129.6298676 "/>
<polygon class="st0" points="253.0198975,184.2754974 253.0198975,134.9424133 265.9299622,134.2480774 265.9299622,183.5811462 "/>
<linearGradient id="SVGID_1_" gradientUnits="userSpaceOnUse" x1="242.3628998" y1="229.867157" x2="242.3628998" y2="130.6439819">
	<stop  offset="0" style="stop-color:#E2E2E2"/>
	<stop  offset="0.3360996" style="stop-color:#F1F1F1"/>
</linearGradient>
<polygon class="st8" points="253.0198975,130.6439819 253.0198975,208.0194702 231.7058868,229.867157 231.7058868,152.491684 "/>
<polygon class="st3" points="235.0123138,153.4008942 253.0198975,134.9424133 253.0198975,184.2754974 235.0123138,202.733963 "/>
<polygon class="st9" points="238.2357178,154.7133484 253.0198975,139.5589752 253.0198975,180.733078 238.2357178,195.8876801 "/>
<polygon class="st9" points="253.0198975,139.5589752 262.7061462,139.0387726 262.7041931,180.2123108 253.0198975,180.733078 "/>
<polygon class="st1" points="262.7041931,180.2123108 242.0265808,168.2740784 238.2357178,170.4397736 238.2357178,195.8876801 
	253.0198975,180.733078 "/>
<polygon class="st10" points="242.0265808,168.2740784 242.0265808,150.8275604 238.2357178,154.7133484 238.2357178,170.4397736 
	"/>
<polygon class="st0" points="252.0821838,179.6584778 253.0198975,180.733078 238.2357178,195.8876801 238.2357178,193.8518524 "/>
<polygon class="st2" points="252.0821838,179.6584778 262.7061462,179.0871582 262.7041931,180.2123108 253.0198975,180.733078 "/>
<polygon class="st1" points="262.7041931,180.2123108 260.9216003,179.1831207 260.9216003,139.134613 262.7061462,139.0387726 "/>
<polygon class="st11" points="227.566391,157.8115082 227.566391,163.6286011 218.7805634,168.7010956 218.7805634,162.8840027 "/>
<polygon class="st12" points="288.9518738,122.4982834 288.9518738,125.4068298 280.1660461,130.4793243 280.1660461,127.5707779 
	"/>
<path class="st6" d="M269.5007629,252.9521942"/>
<polygon class="st13" points="211.9372559,243.5856934 211.9372559,254.5835724 257.1250305,280.67276 257.1250305,269.6748657 "/>
<polygon class="st13" points="242.9474182,206.7518158 242.9474182,217.7496948 285.4803162,242.306076 285.4803162,231.308197 "/>
<polygon class="st14" points="211.9372559,243.5856934 226.1148987,235.400238 271.2352905,261.4639587 257.1250305,269.6748657 "/>
<polygon class="st13" points="226.1148987,235.400238 226.1148987,233.0927887 228.7697906,231.5599823 228.7697906,225.9351501 
	271.3026733,250.4915314 271.2352905,261.4639587 "/>
<polygon class="st14" points="228.7697906,225.9351501 242.9474182,217.7496948 285.4803162,242.306076 271.3026733,250.4915314 "/>
<polygon class="st15" points="255.1877594,270.7933655 251.9494171,268.9237061 251.9494019,279.9215698 255.1877594,281.7912292 
	"/>
<polygon class="st7" points="251.9494171,268.9237061 282.2419739,229.4385376 285.4803162,231.308197 255.1877594,270.7933655 "/>
<polygon class="st6" points="309.3897095,217.5041046 309.3897095,250.4968414 255.1877594,281.7912292 255.1877594,270.7933655 
	285.4803162,231.308197 "/>
<path class="st13" d="M182.7940674,289.6615295"/>
<polygon class="st3" points="126.9824448,260.4249878 156.8563538,243.1772766 156.8118896,255.2107697 126.9824448,272.4328003 "/>
<polygon class="st0" points="90.8884048,239.5860901 120.7623138,222.3383789 156.8563538,243.1772766 126.9824448,260.4249878 "/>
<polygon class="st16" points="253.0198975,188.0984955 253.0198975,190.5805664 271.3026733,189.5670471 271.3026733,187.0849762 
	"/>
<polygon class="st7" points="271.3026733,187.0849762 271.3026733,189.5670471 291.1010742,178.1364899 291.1010742,175.6543579 "/>
<polygon class="st7" points="253.0198975,188.0984955 253.0198975,190.5805664 231.7058868,212.4273376 172.3104858,246.7190704 
	172.3104858,244.2382355 231.7058868,209.9461975 "/>
<polygon class="st16" points="172.3104858,244.2382355 172.3104858,246.7190704 101.8324814,206.0294952 101.8324814,203.5474091 
	"/>
<polygon class="st17" points="226.1148987,235.400238 226.1148987,233.0927887 211.9372559,241.278244 211.9372559,243.5856934 "/>
<polygon class="st5" points="146.0829926,120.5448761 146.0829926,124.8433075 216.5610504,165.533844 216.5610504,161.2353973 "/>
<polygon class="st4" points="172.3106842,191.0813599 216.5610504,165.533844 146.0829926,124.8433075 101.8324814,150.3913422 "/>
<polygon class="st18" points="233.750885,346.6239624 220.8000336,339.1466064 222.7498932,338.0208435 233.750885,344.3717346 
	244.7520142,338.0207825 246.7018585,339.1465149 "/>
<polygon class="st18" points="258.6779785,332.2322998 256.7281494,331.1065674 267.7286682,324.7548218 256.7281494,318.403717 
	258.6777954,317.2778625 271.6288147,324.7548218 "/>
<polygon class="st19" points="220.8001556,297.660614 209.798996,291.3096313 198.7979584,297.660553 196.8480988,296.5348206 
	209.798996,289.0574036 222.7500153,296.5348816 "/>
<polygon class="st18" points="184.8722534,318.4036255 171.9210663,310.9265442 184.871994,303.4490356 186.8218079,304.5747375 
	175.8212128,310.9265442 186.8218079,317.2776794 "/>
<polygon class="st0" points="232.8096924,334.286438 232.8103485,331.7816772 192.8317261,308.7005005 192.8317261,311.2055359 "/>
<polygon class="st3" points="232.8103485,331.7816772 232.8096924,334.286438 231.9271698,334.7959595 231.9278259,332.2911987 "/>
<polygon class="st3" points="232.8103485,331.7816772 231.9278259,332.2911987 191.9492188,309.210022 192.8317261,308.7005005 "/>
<polygon class="st0" points="231.9271698,334.7959595 231.9278259,332.2911987 191.9492188,309.210022 191.9492188,311.7150574 "/>
<polygon class="st0" points="249.3412476,324.7419128 249.3419189,322.2371521 209.3632965,299.1559753 209.3632965,301.6609802 "/>
<polygon class="st3" points="249.3419189,322.2371521 249.3412476,324.7419128 248.4587402,325.2514343 248.4593964,322.7466736 "/>
<polygon class="st3" points="249.3419189,322.2371521 248.4593964,322.7466736 208.4807739,299.6654968 209.3632965,299.1559753 "/>
<polygon class="st0" points="248.4587402,325.2514343 248.4593964,322.7466736 208.4807739,299.6654968 208.4807739,302.1705017 "/>
<path class="st15" d="M192.8317261,288.1250305v23.0810547l19.9888306-11.5404968v-23.0811462L192.8317261,288.1250305z
	 M210.651001,298.4131775l-15.6490479,9.0344849v-18.0700378l15.6490479-9.035553V298.4131775z"/>
<polygon class="st4" points="212.8205566,276.5844421 210.651001,275.3320923 190.6621704,286.8725891 192.8323975,288.1252136 "/>
<polygon class="st14" points="190.6621704,286.8725891 192.8323975,288.1252136 192.8317261,311.2060852 190.6621704,309.9537354 
	"/>
<polygon class="st20" points="208.4814453,281.5947571 210.651001,280.3420715 210.651001,298.4131775 208.4814453,297.1607666 "/>
<polygon class="st16" points="208.4814453,297.1607666 210.651001,298.4131775 195.0019531,307.4476624 195.0019531,304.9427185 "/>
<path class="st15" d="M198.2328339,291.244751v23.0810852l19.9888306-11.5404968v-23.0811462L198.2328339,291.244751z
	 M216.0520935,301.5329285l-15.6490326,9.0344849v-18.0700378l15.6490326-9.035553V301.5329285z"/>
<polygon class="st4" points="218.2216644,279.7041931 216.0520935,278.4518433 196.0632782,289.9923401 198.2335052,291.2449646 "/>
<polygon class="st14" points="196.0632782,289.9923401 198.2335052,291.2449646 198.2328339,314.3258362 196.0632782,313.0734863 
	"/>
<polygon class="st20" points="213.8825378,284.7145081 216.0520935,283.4618225 216.0520935,301.5329285 213.8825378,300.2805176 
	"/>
<polygon class="st16" points="213.8825378,300.2805176 216.0520935,301.5329285 200.4030609,310.5674133 200.4030609,308.0624695 
	"/>
<path class="st15" d="M203.634613,294.3634644v23.0810852l19.9888153-11.5404968v-23.0811462L203.634613,294.3634644z
	 M221.4538727,304.6516418l-15.6490479,9.0344849v-18.0700378l15.6490479-9.035553V304.6516418z"/>
<polygon class="st4" points="223.6234283,282.8229065 221.4538727,281.5705566 201.4650574,293.1110535 203.6352692,294.363678 "/>
<polygon class="st14" points="201.4650574,293.1110535 203.6352692,294.363678 203.634613,317.4445496 201.4650574,316.1921997 "/>
<polygon class="st20" points="219.284317,287.8331909 221.4538727,286.5805359 221.4538727,304.6516418 219.284317,303.3992004 "/>
<polygon class="st16" points="219.284317,303.3992004 221.4538727,304.6516418 205.8048248,313.6861267 205.8048248,311.1811829 "/>
<path class="st15" d="M209.0350494,297.3586731v23.0810547l19.9888153-11.5404968v-23.0811462L209.0350494,297.3586731z
	 M226.8543091,307.6468201l-15.6490479,9.0344849v-18.0700378l15.6490479-9.035553V307.6468201z"/>
<polygon class="st4" points="229.0238647,285.8180847 226.8543091,284.5657349 206.8654938,296.1062317 209.0357056,297.3588562 "/>
<polygon class="st14" points="206.8654938,296.1062317 209.0357056,297.3588562 209.0350494,320.4397278 206.8654938,319.1873779 
	"/>
<polygon class="st20" points="224.6847534,290.8283997 226.8543091,289.5757141 226.8543091,307.6468201 224.6847534,306.3944092 
	"/>
<polygon class="st16" points="224.6847534,306.3944092 226.8543091,307.6468201 211.2052612,316.6813049 211.2052612,314.1763611 
	"/>
<path class="st15" d="M214.4368134,300.6001282v23.0810852l19.9888153-11.5405273v-23.0811462L214.4368134,300.6001282z
	 M232.256073,310.8882751l-15.6490326,9.0345154v-18.0700378l15.6490326-9.035553V310.8882751z"/>
<polygon class="st4" points="234.4256287,289.0595398 232.256073,287.8072205 212.2672577,299.3477173 214.4374847,300.6003113 "/>
<polygon class="st14" points="212.2672577,299.3477173 214.4374847,300.6003113 214.4368134,323.6812134 212.2672577,322.4288635 
	"/>
<polygon class="st20" points="230.0865173,294.0698547 232.256073,292.8171997 232.256073,310.8882751 230.0865173,309.6358643 "/>
<polygon class="st16" points="230.0865173,309.6358643 232.256073,310.8882751 216.6070404,319.9227905 216.6070404,317.4178467 "/>
<path class="st15" d="M219.8379211,303.7184448V326.79953l19.9888153-11.5404968V292.177887L219.8379211,303.7184448z
	 M237.6571808,314.0066223l-15.6490326,9.0344849v-18.0700378l15.6490326-9.035553V314.0066223z"/>
<polygon class="st4" points="239.8267365,292.177887 237.6571808,290.9255371 217.6683655,302.4660339 219.8385773,303.7186584 "/>
<polygon class="st14" points="217.6683655,302.4660339 219.8385773,303.7186584 219.8379211,326.79953 217.6683655,325.5471802 "/>
<polygon class="st20" points="235.4876251,297.1882019 237.6571808,295.9355164 237.6571808,314.0066223 235.4876251,312.7542114 
	"/>
<polygon class="st16" points="235.4876251,312.7542114 237.6571808,314.0066223 222.0081482,323.0411072 222.0081482,320.5361633 
	"/>
<path class="st15" d="M225.2390289,306.836792v23.0810852l19.9888153-11.5405273v-23.0811462L225.2390289,306.836792z
	 M243.0582886,317.124939l-15.6490479,9.0344849V308.089386l15.6490479-9.0355225V317.124939z"/>
<polygon class="st4" points="245.2278442,295.2962036 243.0582886,294.0438538 223.0694733,305.5843811 225.2396851,306.8369751 "/>
<polygon class="st14" points="223.0694733,305.5843811 225.2396851,306.8369751 225.2390289,329.9178772 223.0694733,328.6655273 
	"/>
<polygon class="st20" points="240.8887329,300.3065186 243.0582886,299.0538635 243.0582886,317.124939 240.8887329,315.8725281 "/>
<polygon class="st16" points="240.8887329,315.8725281 243.0582886,317.124939 227.4092407,326.1594238 227.4092407,323.6545105 "/>
<path class="st15" d="M230.6401367,309.9535828v23.0810852l19.9888153-11.5405273v-23.0811462L230.6401367,309.9535828z
	 M248.4593964,320.2417297l-15.6490479,9.0345154v-18.0700378l15.6490479-9.035553V320.2417297z"/>
<polygon class="st4" points="250.628952,298.4129944 248.4593964,297.160675 228.4705811,308.7011719 230.6407928,309.9537659 "/>
<polygon class="st14" points="228.4705811,308.7011719 230.6407928,309.9537659 230.6401367,333.034668 228.4705811,331.7823181 "/>
<polygon class="st20" points="246.2898407,303.4233093 248.4593964,302.1706543 248.4593964,320.2417297 246.2898407,318.9893188 
	"/>
<polygon class="st16" points="246.2898407,318.9893188 248.4593964,320.2417297 232.8103485,329.2762451 232.8103485,326.7713013 
	"/>
<polygon class="st18" points="129.7036285,258.8539124 128.1184845,259.769104 92.0244446,238.930191 93.6095963,238.0150146 "/>
<polygon class="st18" points="76.52565,242.0411224 90.8884048,250.3334656 90.8884048,248.5030823 78.1108017,241.1259308 "/>
<polygon class="st18" points="169.670929,265.6830444 171.256073,264.7678833 155.7572784,255.8196411 154.1721344,256.7348328 "/>
<polygon class="st18" points="155.7572784,243.8118286 154.1721344,244.7270203 118.0781021,223.8881073 119.6632462,222.9729309 
	"/>
<polygon class="st18" points="102.5793076,226.9990387 107.6345596,229.9176941 109.3023529,229.0502167 104.1644592,226.083847 "/>
<polygon class="st3" points="227.4936371,198.2462463 227.4936371,236.0540161 225.6965637,237.0915527 225.6965637,199.283783 "/>
<polygon class="st0" points="225.6965637,199.283783 224.6923981,198.7040405 224.6923981,236.5118103 225.6965637,237.0915527 "/>
<polygon class="st6" points="218.7805634,201.8776245 218.7805634,183.7678375 231.0138855,176.7049255 231.0138855,194.8147125 "/>
<polygon class="st0" points="230.60849,187.9407196 231.33992,188.362854 221.7625732,193.8926849 221.7625732,192.9753723 "/>
<polygon class="st1" points="231.33992,188.362854 230.60849,187.9407196 230.60849,180.3820801 231.33992,179.9598083 "/>
<polygon class="st13" points="220.4343719,184.7226715 218.7805634,183.7678375 218.7805634,201.8776245 220.4343719,202.8324585 
	"/>
<polygon class="st14" points="232.6677094,177.6597443 231.0138855,176.7049255 218.7805634,183.7678375 220.4343719,184.7226715 
	"/>
<polygon class="st15" points="221.3043365,185.2245483 230.8816833,179.6953583 230.8816833,188.0983887 221.3043365,193.6275787 
	"/>
<path class="st21" d="M220.4343719,184.7226715v18.109787l12.2333374-7.0629272v-18.109787L220.4343719,184.7226715z
	 M231.33992,188.362854l-9.5773468,5.5298309v-8.4036865l9.5773468-5.5291901V188.362854z"/>
<path class="st3" d="M221.0985718,185.1057739v9.9372253l10.9053345-6.2969208v-9.9365845L221.0985718,185.1057739z
	 M231.33992,188.362854l-9.5773468,5.5298309v-8.4036865l9.5773468-5.5291901V188.362854z"/>
<g>
	<path class="st22" d="M230.4044647,191.1793365c0-0.3814697,0.2702942-0.8496552,0.6006775-1.04039
		c0.3303833-0.1907501,0.6011353-0.0349426,0.6016846,0.3462067c0.0005493,0.3811646-0.2697601,0.84935-0.6006927,1.0404053
		C230.6752167,191.7166138,230.4044647,191.5608215,230.4044647,191.1793365z"/>
</g>
<polygon class="st22" points="231.9076996,190.3736877 231.4313507,190.0987091 230.5751953,191.5638885 231.0632477,191.845108 "/>
<g>
	<path class="st18" d="M230.885376,191.4570007c0-0.3814697,0.2703094-0.8496552,0.6006775-1.0404053
		c0.3303833-0.1907349,0.6011353-0.0349426,0.6016846,0.3462219c0.0005493,0.3811493-0.2697601,0.8493347-0.6006775,1.04039
		C231.1561279,191.994278,230.885376,191.8384705,230.885376,191.4570007z"/>
</g>
<g>
	<path class="st16" d="M225.8805389,193.7912292c0-0.3814697,0.2703094-0.8496552,0.6006927-1.04039
		c0.330368-0.1907501,0.6011353-0.0349579,0.6016846,0.3462067s-0.2697601,0.8493347-0.6006927,1.0404053
		C226.1513062,194.3285065,225.8805389,194.1727142,225.8805389,193.7912292z"/>
</g>
<polygon class="st16" points="227.3837891,192.9855804 226.9074402,192.7106018 226.0512848,194.1757813 226.5393372,194.4570007 
	"/>
<g>
	<path class="st5" d="M226.3614655,194.0688934c0-0.381485,0.2702942-0.8496552,0.6006775-1.0404053
		c0.3303833-0.1907349,0.6011353-0.0349426,0.6016846,0.3462219c0.0005493,0.3811493-0.2697601,0.8493347-0.6006927,1.04039
		C226.6322174,194.6061707,226.3614655,194.4503632,226.3614655,194.0688934z"/>
</g>
<g>
	<path class="st16" d="M228.143158,192.4849091c0-0.381485,0.2703094-0.8496552,0.6006927-1.0404053
		c0.330368-0.1907349,0.6011353-0.0349426,0.6016846,0.3462219c0.0005493,0.3811493-0.2697601,0.8493347-0.6006927,1.04039
		C228.4139252,193.0221863,228.143158,192.8663788,228.143158,192.4849091z"/>
</g>
<polygon class="st16" points="229.6464081,191.6792603 229.1700592,191.4042816 228.3139038,192.8694458 228.8019562,193.1506805 
	"/>
<g>
	<path class="st5" d="M228.6240845,192.762558c0-0.3814697,0.2702942-0.8496552,0.6006775-1.04039
		c0.3303833-0.1907501,0.6011353-0.0349426,0.6016846,0.3462067c0.0005493,0.3811646-0.2697601,0.8493347-0.6006927,1.0404053
		C228.8948364,193.2998352,228.6240845,193.144043,228.6240845,192.762558z"/>
</g>
<g>
	<path class="st16" d="M230.4044647,193.8353271c0-0.381485,0.2702942-0.8496552,0.6006775-1.0404053
		c0.3303833-0.1907349,0.6011353-0.0349426,0.6016846,0.3462219c0.0005493,0.3811493-0.2697601,0.8493347-0.6006927,1.04039
		C230.6752167,194.3725891,230.4044647,194.2167969,230.4044647,193.8353271z"/>
</g>
<polygon class="st16" points="231.9076996,193.0296631 231.4313507,192.7546997 230.5751953,194.2198639 231.0632477,194.5010834 
	"/>
<g>
	<path class="st5" d="M230.885376,194.1129761c0-0.3814697,0.2703094-0.8496552,0.6006775-1.04039
		c0.3303833-0.1907501,0.6011353-0.0349579,0.6016846,0.3462067s-0.2697601,0.8493347-0.6006775,1.0404053
		C231.1561279,194.6502533,230.885376,194.4944611,230.885376,194.1129761z"/>
</g>
<g>
	<path class="st16" d="M225.8805389,196.4472198c0-0.381485,0.2703094-0.8496704,0.6006927-1.0404053
		c0.330368-0.1907501,0.6011353-0.0349426,0.6016846,0.3462067c0.0005493,0.3811646-0.2697601,0.84935-0.6006927,1.0404053
		C226.1513062,196.9844818,225.8805389,196.8286896,225.8805389,196.4472198z"/>
</g>
<polygon class="st16" points="227.3837891,195.6415558 226.9074402,195.3665924 226.0512848,196.8317566 226.5393372,197.1129761 
	"/>
<g>
	<path class="st5" d="M226.3614655,196.7248688c0-0.3814697,0.2702942-0.8496552,0.6006775-1.0404053
		c0.3303833-0.1907349,0.6011353-0.0349426,0.6016846,0.3462219s-0.2697601,0.8493347-0.6006927,1.04039
		C226.6322174,197.262146,226.3614655,197.1063538,226.3614655,196.7248688z"/>
</g>
<g>
	<path class="st23" d="M228.143158,195.1408844c0-0.3814697,0.2703094-0.8496552,0.6006927-1.04039
		c0.330368-0.1907501,0.6011353-0.0349579,0.6016846,0.3462067s-0.2697601,0.8493347-0.6006927,1.04039
		C228.4139252,195.6781616,228.143158,195.5223694,228.143158,195.1408844z"/>
</g>
<polygon class="st23" points="229.6464081,194.3352356 229.1700592,194.060257 228.3139038,195.5254364 228.8019562,195.8066559 "/>
<g>
	<path class="st24" d="M228.6240845,195.4185486c0-0.381485,0.2702942-0.8496552,0.6006775-1.0404053
		c0.3303833-0.1907349,0.6011353-0.0349426,0.6016846,0.3462067c0.0005493,0.3811646-0.2697601,0.84935-0.6006927,1.0404053
		C228.8948364,195.9558105,228.6240845,195.8000183,228.6240845,195.4185486z"/>
</g>
<g>
	<path class="st25" d="M221.0985718,196.8339996c0-0.5365143,0.3801727-1.1949768,0.8448181-1.4632263
		c0.4646301-0.2682648,0.8454285-0.0491638,0.8462067,0.486908s-0.3793945,1.194519-0.8448029,1.4632263
		C221.4793701,197.5896149,221.0985718,197.3704987,221.0985718,196.8339996z"/>
</g>
<polygon class="st25" points="223.2127533,195.7009125 222.5428162,195.3141937 221.3386993,197.3748169 222.025116,197.7703247 "/>
<g>
	<path class="st11" d="M221.7749481,197.2244873c0-0.5365143,0.3801575-1.1949615,0.8448029-1.4632263
		s0.8454437-0.0491486,0.8462067,0.4869232c0.0007782,0.5360565-0.3793945,1.194519-0.8448029,1.4632263
		C222.1557312,197.9801178,221.7749481,197.7610016,221.7749481,197.2244873z"/>
</g>
<polygon class="st26" points="231.7058868,209.9461975 231.7058868,212.4273376 253.0198975,190.5805664 253.0198975,188.0984955 
	"/>
<path class="st7" d="M303.1504517,213.9019318"/>
<polygon class="st14" points="285.4803162,231.308197 242.9474182,206.7518158 253.0198975,196.5284424 271.3026733,195.5149078 
	309.3897095,217.5041046 "/>
<polygon class="st7" points="282.2419739,229.4385376 306.1513672,215.6344452 309.3897095,217.5041046 285.4803162,231.308197 "/>
<polygon class="st7" points="309.3897095,217.5041046 271.3026733,195.5149078 265.3939514,195.8424683 306.1513672,219.373764 "/>
<polygon class="st18" points="143.6327209,280.716217 145.217865,279.8010559 129.7190704,270.8528137 128.1339264,271.7680054 "/>
</svg>
